<svg width="36" height="48" viewBox="0 0 36 48" fill="none" xmlns="http://www.w3.org/2000/svg">
<path d="M34.9659 11.5491L24.4612 1.04344C23.7684 0.351562 22.9218 0 21.943 0H3.83805C2.08211 0 0.654297 1.42969 0.654297 3.18656V44.8162C0.654297 46.5722 2.08211 48 3.83805 48H32.8255C34.5815 48 36.0093 46.5722 36.0093 44.8162V14.0691C36.0093 13.0884 35.6587 12.2409 34.9659 11.5491ZM33.4509 12.1528H23.8565V2.55844L33.4509 12.1528ZM34.5102 44.8162C34.5102 45.7453 33.7546 46.5009 32.8255 46.5009H3.83805C2.90898 46.5009 2.15336 45.7453 2.15336 44.8162V3.18656C2.15336 2.25563 2.90898 1.49906 3.83805 1.49906H21.943C22.0874 1.49906 22.2252 1.51125 22.3574 1.53656V12.9019C22.3574 13.3162 22.693 13.6509 23.1065 13.6509H34.4718C34.4971 13.7841 34.5102 13.9228 34.5102 14.0681V44.8162ZM18.3318 19.4184C12.4546 19.4184 7.67242 24.1997 7.67242 30.0778C7.67242 35.955 12.4537 40.7372 18.3318 40.7372C24.2099 40.7372 28.9912 35.9559 28.9912 30.0778C28.9912 24.2006 24.209 19.4184 18.3318 19.4184ZM18.3318 39.2381C13.2805 39.2381 9.17148 35.1291 9.17148 30.0778C9.17148 25.0266 13.2805 20.9175 18.3318 20.9175C23.383 20.9175 27.4921 25.0266 27.4921 30.0778C27.4921 35.1291 23.383 39.2381 18.3318 39.2381ZM23.5471 26.8031C23.8396 27.0956 23.8396 27.57 23.5471 27.8625L18.0571 33.3506C17.9109 33.4969 17.7187 33.57 17.5274 33.57C17.3352 33.57 17.144 33.4969 16.9977 33.3506L13.1174 29.4703C12.8249 29.1778 12.8249 28.7034 13.1174 28.4109C13.4099 28.1184 13.8843 28.1184 14.1768 28.4109L17.5274 31.7606L22.4877 26.8022C22.7802 26.5097 23.2546 26.5097 23.5471 26.8031ZM6.98711 6.77719C6.98711 6.36281 7.32273 6.02813 7.73617 6.02813H16.7746C17.189 6.02813 17.5237 6.36375 17.5237 6.77719C17.5237 7.19063 17.188 7.52625 16.7746 7.52625H7.73617C7.32273 7.52625 6.98711 7.19063 6.98711 6.77719ZM7.73617 13.6519C7.3218 13.6519 6.98711 13.3163 6.98711 12.9028C6.98711 12.4894 7.32273 12.1537 7.73617 12.1537H16.7746C17.189 12.1537 17.5237 12.4894 17.5237 12.9028C17.5237 13.3163 17.188 13.6519 16.7746 13.6519H7.73617Z" fill="#E2E8F0"/>
</svg>
