<svg width="47" height="47" viewBox="0 0 47 47" fill="none" xmlns="http://www.w3.org/2000/svg">
<path d="M41.8067 0.5H20.8067C18.0499 0.5 15.8067 2.7432 15.8067 5.5V22.2768L14.6944 20.4697C12.5264 16.9482 7.89854 15.8457 4.37604 18.0146C0.85454 20.1826 -0.246959 24.8115 1.92044 28.333L8.17884 38.5H4.80664C2.60104 38.5 0.806641 40.2939 0.806641 42.5V43.5C0.806641 45.1543 2.15234 46.5 3.80664 46.5H13.8066C15.1814 46.5 16.3306 45.5654 16.684 44.3019C17.5944 45.6345 19.116 46.5 20.8066 46.5H41.8066C44.5634 46.5 46.8066 44.2568 46.8066 41.5V5.5C46.8066 2.7432 44.5635 0.5 41.8067 0.5ZM14.1783 41.3584C12.7491 41.0176 11.5382 40.1416 10.7681 38.8906L7.72044 33.9395L17.0873 28.1731L20.1353 33.125C20.9053 34.376 21.1421 35.8516 20.8023 37.2812C20.462 38.7099 19.586 39.9208 18.3345 40.6914C17.083 41.4609 15.6079 41.6982 14.1783 41.3584ZM5.42494 19.7178C6.32144 19.166 7.31554 18.9033 8.29844 18.9033C10.1465 18.9033 11.9532 19.833 12.9913 21.5185L16.0388 26.4697L6.67194 32.2362L3.62364 27.2842C2.03424 24.7022 2.84194 21.3076 5.42494 19.7178ZM13.8067 44.5H3.80674C3.25544 44.5 2.80674 44.0518 2.80674 43.5V42.5C2.80674 41.3975 3.70374 40.5 4.80674 40.5H9.44884C10.4971 41.906 11.9886 42.8926 13.7154 43.3037C14.0778 43.3902 14.4423 43.4397 14.8067 43.472V43.5C14.8067 44.0518 14.358 44.5 13.8067 44.5ZM44.8067 41.5C44.8067 43.1543 43.461 44.5 41.8067 44.5H20.8067C19.7053 44.5 18.7213 43.8914 18.2001 42.9732C18.6056 42.8122 19.0039 42.628 19.3833 42.3945C21.0894 41.3447 22.2842 39.6924 22.748 37.7441C23.2114 35.7949 22.8886 33.7822 21.8383 32.0761L17.8066 25.526V5.5C17.8066 3.8457 19.1523 2.5 20.8066 2.5H41.8066C43.4609 2.5 44.8066 3.8457 44.8066 5.5L44.8067 41.5ZM38.8067 9.498C38.8077 10.0507 38.3604 10.499 37.8087 10.5L24.8087 10.5205H24.8067C24.2549 10.5205 23.8077 10.0742 23.8067 9.5225C23.8057 8.9698 24.253 8.5215 24.8052 8.5205L37.8047 8.5H37.8067C38.3585 8.5 38.8057 8.9463 38.8067 9.498ZM38.8067 18.4912C38.8077 19.0439 38.3604 19.4922 37.8087 19.4932L24.8087 19.5137H24.8067C24.2549 19.5137 23.8077 19.0674 23.8067 18.5157C23.8057 17.963 24.253 17.5147 24.8052 17.5137L37.8047 17.4932H37.8067C38.3585 17.4932 38.8057 17.9395 38.8067 18.4912ZM38.8067 27.4844C38.8077 28.0371 38.3604 28.4854 37.8087 28.4864L24.8087 28.5069H24.8067C24.2549 28.5069 23.8077 28.0606 23.8067 27.5089C23.8057 26.9562 24.253 26.5079 24.8052 26.5069L37.8047 26.4864H37.8067C38.3585 26.4864 38.8057 26.9327 38.8067 27.4844ZM38.8067 36.4766C38.8077 37.0293 38.3614 37.4786 37.8096 37.4795L29.8096 37.5H29.8067C29.2559 37.5 28.8077 37.0537 28.8067 36.5029C28.8057 35.9502 29.252 35.5009 29.8038 35.5L37.8038 35.4795H37.8067C38.3575 35.4795 38.8057 35.9258 38.8067 36.4766Z" fill="#E2E8F0"/>
</svg>
