<svg width="57" height="57" viewBox="0 0 57 57" fill="none" xmlns="http://www.w3.org/2000/svg">
<mask id="mask0_14497_19538" style="mask-type:luminance" maskUnits="userSpaceOnUse" x="0" y="0" width="57" height="57">
<path d="M56.6641 0.574219H0.664062V56.5742H56.6641V0.574219Z" fill="white"/>
</mask>
<g mask="url(#mask0_14497_19538)">
<mask id="mask1_14497_19538" style="mask-type:luminance" maskUnits="userSpaceOnUse" x="0" y="0" width="57" height="57">
<path d="M0.664062 0.574223H56.6641V56.5742H0.664062V0.574223Z" fill="white"/>
</mask>
<g mask="url(#mask1_14497_19538)">
<path d="M43.5831 5.48011H2.82956C2.09084 5.48011 1.48633 6.08441 1.48633 6.82313V13.4277H44.9261V6.82313C44.9261 6.08441 44.3217 5.48011 43.5831 5.48011Z" stroke="#E2E8F0" stroke-width="1.64062" stroke-miterlimit="10" stroke-linecap="round" stroke-linejoin="round"/>
<path d="M7.83398 3.04334V8.28711" stroke="#E2E8F0" stroke-width="1.64062" stroke-miterlimit="10" stroke-linecap="round" stroke-linejoin="round"/>
<path d="M13.9824 3.04334V8.28711" stroke="#E2E8F0" stroke-width="1.64062" stroke-miterlimit="10" stroke-linecap="round" stroke-linejoin="round"/>
<path d="M20.1309 3.04334V8.28711" stroke="#E2E8F0" stroke-width="1.64062" stroke-miterlimit="10" stroke-linecap="round" stroke-linejoin="round"/>
<path d="M26.2793 3.04334V8.28711" stroke="#E2E8F0" stroke-width="1.64062" stroke-miterlimit="10" stroke-linecap="round" stroke-linejoin="round"/>
<path d="M32.4277 3.04334V8.28711" stroke="#E2E8F0" stroke-width="1.64062" stroke-miterlimit="10" stroke-linecap="round" stroke-linejoin="round"/>
<path d="M38.5762 3.04334V8.28711" stroke="#E2E8F0" stroke-width="1.64062" stroke-miterlimit="10" stroke-linecap="round" stroke-linejoin="round"/>
<path d="M32.5598 19.0338H29.1077C28.8638 19.0338 28.666 19.2316 28.666 19.4754V22.9276C28.666 23.1714 28.8638 23.3691 29.1077 23.3691H32.5598C32.8036 23.3691 33.0013 23.1714 33.0013 22.9276V19.4754C33.0013 19.2316 32.8036 19.0338 32.5598 19.0338Z" stroke="#E2E8F0" stroke-width="1.64062" stroke-miterlimit="10" stroke-linecap="round" stroke-linejoin="round"/>
<path d="M40.1224 19.0338H36.6702C36.4263 19.0338 36.2285 19.2316 36.2285 19.4754V22.9276C36.2285 23.1714 36.4263 23.3691 36.6702 23.3691H40.1224C40.3662 23.3691 40.5638 23.1714 40.5638 22.9276V19.4754C40.5638 19.2316 40.3662 19.0338 40.1224 19.0338Z" stroke="#E2E8F0" stroke-width="1.64062" stroke-miterlimit="10" stroke-linecap="round" stroke-linejoin="round"/>
<path d="M9.87617 27.1746H6.42408C6.18017 27.1746 5.98242 27.3722 5.98242 27.6161V31.0683C5.98242 31.3121 6.18017 31.5098 6.42408 31.5098H9.87617C10.12 31.5098 10.3177 31.3121 10.3177 31.0683V27.6161C10.3177 27.3722 10.12 27.1746 9.87617 27.1746Z" stroke="#E2E8F0" stroke-width="1.64062" stroke-miterlimit="10" stroke-linecap="round" stroke-linejoin="round"/>
<path d="M17.4387 27.1746H13.9866C13.7427 27.1746 13.5449 27.3722 13.5449 27.6161V31.0683C13.5449 31.3121 13.7427 31.5098 13.9866 31.5098H17.4387C17.6825 31.5098 17.8802 31.3121 17.8802 31.0683V27.6161C17.8802 27.3722 17.6825 27.1746 17.4387 27.1746Z" stroke="#E2E8F0" stroke-width="1.64062" stroke-miterlimit="10" stroke-linecap="round" stroke-linejoin="round"/>
<path d="M24.9992 27.1746H21.5471C21.3032 27.1746 21.1055 27.3722 21.1055 27.6161V31.0683C21.1055 31.3121 21.3032 31.5098 21.5471 31.5098H24.9992C25.243 31.5098 25.4407 31.3121 25.4407 31.0683V27.6161C25.4407 27.3722 25.243 27.1746 24.9992 27.1746Z" stroke="#E2E8F0" stroke-width="1.64062" stroke-miterlimit="10" stroke-linecap="round" stroke-linejoin="round"/>
<path d="M32.5598 27.1746H29.1077C28.8638 27.1746 28.666 27.3722 28.666 27.6161V31.0683C28.666 31.3121 28.8638 31.5098 29.1077 31.5098H32.5598C32.8036 31.5098 33.0013 31.3121 33.0013 31.0683V27.6161C33.0013 27.3722 32.8036 27.1746 32.5598 27.1746Z" stroke="#E2E8F0" stroke-width="1.64062" stroke-miterlimit="10" stroke-linecap="round" stroke-linejoin="round"/>
<path d="M9.87617 35.317H6.42408C6.18017 35.317 5.98242 35.5148 5.98242 35.7586V39.2108C5.98242 39.4546 6.18017 39.6523 6.42408 39.6523H9.87617C10.12 39.6523 10.3177 39.4546 10.3177 39.2108V35.7586C10.3177 35.5148 10.12 35.317 9.87617 35.317Z" stroke="#E2E8F0" stroke-width="1.64062" stroke-miterlimit="10" stroke-linecap="round" stroke-linejoin="round"/>
<path d="M17.4387 35.317H13.9866C13.7427 35.317 13.5449 35.5148 13.5449 35.7586V39.2108C13.5449 39.4546 13.7427 39.6523 13.9866 39.6523H17.4387C17.6825 39.6523 17.8802 39.4546 17.8802 39.2108V35.7586C17.8802 35.5148 17.6825 35.317 17.4387 35.317Z" stroke="#E2E8F0" stroke-width="1.64062" stroke-miterlimit="10" stroke-linecap="round" stroke-linejoin="round"/>
<path d="M24.9992 35.317H21.5471C21.3032 35.317 21.1055 35.5148 21.1055 35.7586V39.2108C21.1055 39.4546 21.3032 39.6523 21.5471 39.6523H24.9992C25.243 39.6523 25.4407 39.4546 25.4407 39.2108V35.7586C25.4407 35.5148 25.243 35.317 24.9992 35.317Z" stroke="#E2E8F0" stroke-width="1.64062" stroke-miterlimit="10" stroke-linecap="round" stroke-linejoin="round"/>
<path d="M6.77344 21.0221L8.07555 22.3242L10.3182 20.0816" stroke="#E2E8F0" stroke-width="1.64062" stroke-miterlimit="10" stroke-linecap="round" stroke-linejoin="round"/>
<path d="M14.334 21.0221L15.6361 22.3242L17.8787 20.0816" stroke="#E2E8F0" stroke-width="1.64062" stroke-miterlimit="10" stroke-linecap="round" stroke-linejoin="round"/>
<path d="M21.8965 21.0221L23.1986 22.3242L25.4411 20.0816" stroke="#E2E8F0" stroke-width="1.64062" stroke-miterlimit="10" stroke-linecap="round" stroke-linejoin="round"/>
<path d="M42.6468 27.398C40.5337 27.398 38.8047 29.127 38.8047 31.24C38.8047 33.3531 40.5337 35.082 42.6468 35.082C44.7599 35.082 46.4888 33.3531 46.4888 31.24C46.4888 29.127 44.7599 27.398 42.6468 27.398Z" stroke="#E2E8F0" stroke-width="1.64062" stroke-miterlimit="10" stroke-linecap="round" stroke-linejoin="round"/>
<path d="M36.0471 35.935C33.934 35.935 32.2051 37.664 32.2051 39.777C32.2051 41.8901 33.934 43.6191 36.0471 43.6191C38.1602 43.6191 39.8891 41.8901 39.8891 39.777C39.8891 37.664 38.1602 35.935 36.0471 35.935Z" stroke="#E2E8F0" stroke-width="1.64062" stroke-miterlimit="10" stroke-linecap="round" stroke-linejoin="round"/>
<path d="M32.6055 48.861V54.1035" stroke="#E2E8F0" stroke-width="1.64062" stroke-miterlimit="10" stroke-linecap="round" stroke-linejoin="round"/>
<path d="M39.4902 48.861V54.1035" stroke="#E2E8F0" stroke-width="1.64062" stroke-miterlimit="10" stroke-linecap="round" stroke-linejoin="round"/>
<path d="M39.1137 43.6186H32.9804C31.0382 43.6186 29.4492 45.2076 29.4492 47.1498V53.1759C29.4492 53.6881 29.8645 54.1035 30.3768 54.1035H41.7173C42.2295 54.1035 42.6449 53.6881 42.6449 53.1759V47.1498C42.6449 45.2076 41.0559 43.6186 39.1137 43.6186Z" stroke="#E2E8F0" stroke-width="1.64062" stroke-miterlimit="10" stroke-linecap="round" stroke-linejoin="round"/>
<path d="M49.2444 35.935C47.1312 35.935 45.4023 37.664 45.4023 39.777C45.4023 41.8901 47.1312 43.6191 49.2444 43.6191C51.3575 43.6191 53.0865 41.8901 53.0865 39.777C53.0865 37.664 51.3575 35.935 49.2444 35.935Z" stroke="#E2E8F0" stroke-width="1.64062" stroke-miterlimit="10" stroke-linecap="round" stroke-linejoin="round"/>
<path d="M45.8027 48.861V54.1035" stroke="#E2E8F0" stroke-width="1.64062" stroke-miterlimit="10" stroke-linecap="round" stroke-linejoin="round"/>
<path d="M52.6855 48.861V54.1035" stroke="#E2E8F0" stroke-width="1.64062" stroke-miterlimit="10" stroke-linecap="round" stroke-linejoin="round"/>
<path d="M39.8906 39.7771C39.8906 41.8901 38.1618 43.619 36.0488 43.6192H39.1153C41.0574 43.6192 42.6464 45.2082 42.6464 47.1504C42.6464 45.2082 44.2355 43.6192 46.1776 43.6192H49.244C47.1309 43.619 45.4022 41.8901 45.4022 39.7771C45.4022 38.0349 46.5779 36.5549 48.1747 36.0886C47.5374 35.4671 46.6682 35.0821 45.713 35.0821H39.5798C38.6247 35.0821 37.7555 35.4671 37.1182 36.0886C38.7151 36.5549 39.8906 38.0349 39.8906 39.7771Z" stroke="#E2E8F0" stroke-width="1.64062" stroke-miterlimit="10" stroke-linecap="round" stroke-linejoin="round"/>
<path d="M25.302 46.1152H29.607C30.0522 44.6739 31.3998 43.6191 32.9822 43.6191H36.0485C33.9356 43.6189 32.2067 41.89 32.2067 39.777C32.2067 37.6638 33.9357 35.9349 36.0488 35.9349C36.4198 35.9349 36.7787 35.9892 37.1187 36.0886L37.1184 36.0885C37.7556 35.4669 38.6249 35.0819 39.5801 35.0819H42.6463C40.5333 35.0818 38.8045 33.3529 38.8045 31.2399C38.8045 29.1269 40.5335 27.3978 42.6465 27.3978C43.4982 27.3978 44.2873 27.679 44.9261 28.1527V6.82369C44.9261 6.73138 44.9166 6.64114 44.8987 6.55386C44.773 5.94333 44.2294 5.48057 43.583 5.48057H2.82945C2.18305 5.48057 1.63945 5.94333 1.51378 6.55386C1.49584 6.64114 1.48633 6.73138 1.48633 6.82369V44.7721C1.48633 45.5108 2.09073 46.1152 2.82945 46.1152H21.4738" stroke="#E2E8F0" stroke-width="1.64062" stroke-miterlimit="10" stroke-linecap="round" stroke-linejoin="round"/>
<path d="M55.8421 47.6541V47.1498C55.8421 45.2076 54.2531 43.6186 52.311 43.6186H46.1778C44.2356 43.6186 42.6465 45.2076 42.6465 47.1498V53.1758C42.6465 53.6881 43.0618 54.1035 43.5742 54.1035H54.9145C55.4267 54.1035 55.8421 53.6881 55.8421 53.1758V51.4822" stroke="#E2E8F0" stroke-width="1.64062" stroke-miterlimit="10" stroke-linecap="round" stroke-linejoin="round"/>
</g>
</g>
</svg>
