<svg width="64" height="82" viewBox="0 0 64 82" fill="none" xmlns="http://www.w3.org/2000/svg">
<path d="M13.4951 51.7439L1.59863 78.9587L1.12793 80.0359L2.23047 79.6277L15.6875 74.6501L15.6885 74.6492C15.8428 74.5916 16.0181 74.6119 16.1543 74.7H16.1553L23.9629 79.7419L24.6299 80.1726L24.7295 79.3845L27.4268 58.0349L28.4229 58.1531L25.7148 79.5916V79.5964C25.6611 80.0541 25.3521 80.4792 24.8994 80.6824H24.8984C24.71 80.7676 24.5024 80.8113 24.2939 80.8113C24.0071 80.8113 23.7218 80.7294 23.4814 80.574L23.4805 80.573L16.0166 75.7537L15.8066 75.6179L15.5723 75.7039L2.45215 80.5574C1.90905 80.7555 1.27904 80.6156 0.891602 80.2253C0.504801 79.8355 0.392761 79.2359 0.608398 78.7429L12.5762 51.3669L13.4951 51.7439ZM62.9072 78.7439C63.1236 79.2404 63.0101 79.8393 62.624 80.2273C62.2326 80.6192 61.6006 80.7576 61.0625 80.5593H61.0615L47.9434 75.7068L47.709 75.6199L47.499 75.7556L40.0322 80.5769C39.7956 80.7289 39.5116 80.8113 39.2246 80.8113C39.0178 80.8113 38.812 80.7677 38.6211 80.6833C38.1685 80.4792 37.8578 80.0556 37.8027 79.5867L37.8018 79.5818L35.0957 58.3943L36.0908 58.2751L38.7881 79.3865L38.8877 80.1736L39.5547 79.7429L47.3623 74.7019C47.5009 74.6127 47.6761 74.5941 47.8281 74.6511H47.8301L61.2871 79.6287L62.3896 80.0369L61.9189 78.9597L50.0195 51.7498L50.9395 51.3728L62.9072 78.7439Z" fill="#001B55" stroke="#FCFAF7"/>
<path d="M31.7607 0.5C33.3761 0.500109 34.7559 1.33763 36.2285 2.24707L36.2295 2.24805C37.1475 2.81322 38.1033 3.40841 39.0449 3.65234H39.0459C39.7924 3.8451 40.6323 3.86708 41.4814 3.84668L42.3311 3.81641C43.942 3.75335 45.4479 3.70625 46.7295 4.31738L46.9824 4.44824C48.3371 5.20754 49.0906 6.57923 49.8906 8.06738V8.06836C50.404 9.02215 50.9366 10.0204 51.6514 10.7129C52.3651 11.4044 53.3935 11.9186 54.3779 12.416C55.9171 13.194 57.3341 13.925 58.1162 15.2334C58.8817 16.5166 58.8312 18.0521 58.7617 19.7197C58.7168 20.8075 58.6635 21.9434 58.9326 22.915C59.1862 23.8351 59.8046 24.7648 60.3867 25.6523V25.6533C61.3279 27.0838 62.1844 28.413 62.1846 29.9619C62.1846 31.3172 61.529 32.5036 60.7344 33.7383L60.3867 34.2715C59.8045 35.1591 59.1862 36.0896 58.9326 37.0098C58.732 37.738 58.7105 38.5589 58.7314 39.3828L58.7617 40.2051C58.8312 41.874 58.8808 43.4074 58.1143 44.6904V44.6914C57.3322 46.0007 55.9156 46.7314 54.377 47.5078C53.3925 48.0052 52.3632 48.5194 51.6494 49.2109C50.9346 49.9035 50.4031 50.9026 49.8896 51.8564C49.0882 53.3447 48.3349 54.7151 46.9814 55.4746C45.6466 56.2221 44.051 56.1737 42.3291 56.1064C41.345 56.0683 40.3305 56.0246 39.4258 56.1875L39.0449 56.2705C38.1017 56.5145 37.1464 57.1086 36.2285 57.6758C34.7557 58.5841 33.3761 59.4218 31.7607 59.4219C30.1465 59.4219 28.7663 58.5845 27.292 57.6748H27.291C26.3729 57.1095 25.4168 56.5134 24.4736 56.2695H24.4746C23.7284 56.0755 22.8868 56.0556 22.0381 56.0762L21.1904 56.1055C19.5775 56.1673 18.0725 56.2165 16.791 55.6055L16.5381 55.4736C15.1834 54.7143 14.4299 53.3427 13.6299 51.8545C13.1165 50.9007 12.5848 49.9015 11.8701 49.209C11.1563 48.5174 10.1271 48.0033 9.14258 47.5059C7.69955 46.7765 6.36422 46.0882 5.55859 44.9268L5.40527 44.6885C4.63974 43.4053 4.68835 41.8702 4.75781 40.2031V40.2021C4.80273 39.1143 4.85546 37.979 4.58789 37.0078C4.33436 36.0874 3.71621 35.1572 3.13379 34.2705C2.19255 32.8399 1.33594 31.51 1.33594 29.9609C1.33598 28.412 2.19265 27.0828 3.13379 25.6523V25.6514C3.64342 24.8755 4.18057 24.067 4.47754 23.2607L4.58984 22.915C4.79058 22.1865 4.81157 21.3653 4.79004 20.541L4.75977 19.7188C4.69029 18.0513 4.63983 16.5164 5.40527 15.2334C6.18733 13.924 7.60364 13.1929 9.14258 12.415C10.1271 11.9176 11.1563 11.4035 11.8701 10.7119C12.5848 10.0193 13.1165 9.02017 13.6299 8.06641C14.3812 6.67109 15.0903 5.37855 16.291 4.59668L16.5381 4.44727C17.8726 3.69995 19.4699 3.74849 21.1895 3.81445V3.81543C22.3177 3.86035 23.4794 3.90799 24.4746 3.65234H24.4756C25.183 3.46941 25.8973 3.08889 26.5977 2.6709L27.293 2.24609C28.7661 1.33761 30.1464 0.5 31.7607 0.5ZM31.7607 1.44141C31.0613 1.44141 30.388 1.65668 29.748 1.9541C29.1102 2.25057 28.469 2.64579 27.8428 3.03223C26.8043 3.67298 25.8091 4.28327 24.7412 4.55957C23.6212 4.84908 22.4077 4.80594 21.1484 4.75586C20.4201 4.7269 19.6767 4.69801 18.9912 4.74805C18.3056 4.79813 17.6317 4.9298 17.0527 5.25391H17.0518C16.4613 5.5854 15.9982 6.09337 15.6045 6.65332C15.2119 7.21167 14.8649 7.85812 14.5254 8.48828C13.9828 9.49631 13.4588 10.4606 12.7363 11.2148L12.5889 11.3633C11.7876 12.1395 10.7264 12.6802 9.61621 13.2412C8.96551 13.5703 8.29918 13.9065 7.72363 14.2861C7.14769 14.666 6.6234 15.1151 6.2793 15.6904H6.27832C5.94041 16.2569 5.80299 16.9165 5.75098 17.585C5.72502 17.9186 5.71967 18.2661 5.72461 18.6182L5.75977 19.6797C5.81023 20.9034 5.85549 22.0707 5.55859 23.1484C5.27511 24.1754 4.6483 25.1368 3.98633 26.1426V26.1436C3.58776 26.7498 3.17791 27.3716 2.87109 27.9912C2.56343 28.6126 2.33789 29.2716 2.33789 29.959C2.33799 30.6462 2.56351 31.3045 2.87109 31.9258C3.17795 32.5455 3.58771 33.1681 3.98633 33.7744V33.7734C4.64839 34.7807 5.27408 35.7413 5.55762 36.7686C5.85453 37.8464 5.81054 39.0159 5.75879 40.2373C5.72893 40.9417 5.69808 41.6646 5.75 42.332C5.79551 42.917 5.90672 43.4949 6.16016 44.0098L6.27734 44.2266C6.62139 44.8025 7.14597 45.251 7.72168 45.6309C8.2969 46.0104 8.9627 46.3468 9.61328 46.6758H9.61426C10.6552 47.2018 11.6522 47.7086 12.4326 48.4102L12.5859 48.5537C13.3862 49.329 13.9437 50.3545 14.5225 51.4297C14.862 52.06 15.2098 52.707 15.6025 53.2656C15.947 53.7557 16.3442 54.2058 16.834 54.5322L17.0498 54.6641C17.6289 54.989 18.3028 55.1208 18.9883 55.1709C19.6739 55.221 20.418 55.1914 21.1455 55.1631L21.1445 55.1621C21.6137 55.1455 22.0717 55.1299 22.5273 55.1299C23.2048 55.1299 23.8574 55.1691 24.4785 55.2998L24.7432 55.3613C25.8099 55.6377 26.8064 56.2481 27.8447 56.8887C28.4708 57.275 29.1114 57.6704 29.749 57.9668C30.3889 58.2642 31.0623 58.4795 31.7617 58.4795C32.4612 58.4795 33.1345 58.2642 33.7744 57.9668C34.4121 57.6704 35.0527 57.275 35.6787 56.8887C36.7172 56.2479 37.7124 55.6377 38.7803 55.3613C39.9005 55.0717 41.1136 55.1149 42.373 55.165C43.0998 55.1934 43.8428 55.2229 44.5283 55.1729C45.2141 55.1228 45.889 54.99 46.4688 54.665C47.0598 54.3336 47.5232 53.8266 47.917 53.2666C48.3098 52.708 48.6571 52.0612 48.9961 51.4307C49.5388 50.4224 50.0612 49.459 50.7842 48.7051L50.9316 48.5566C51.7329 47.7804 52.7941 47.2387 53.9043 46.6777C54.555 46.3487 55.2214 46.0125 55.7969 45.6328C56.3727 45.2529 56.8968 44.8041 57.2402 44.2285C57.5788 43.6621 57.7165 43.0031 57.7686 42.335C57.8205 41.6676 57.7899 40.9443 57.7607 40.2402C57.7134 39.0931 57.6707 37.9953 57.9102 36.9746L57.9619 36.7715C58.2454 35.7442 58.8719 34.7819 59.5342 33.7744C59.9326 33.1683 60.3426 32.5472 60.6494 31.9277C60.9571 31.3064 61.1826 30.6474 61.1826 29.96C61.1826 29.2725 60.9571 28.6136 60.6494 27.9922C60.3426 27.3726 59.9337 26.7507 59.5352 26.1445C58.8728 25.1369 58.2454 24.1768 57.9619 23.1484C57.665 22.0707 57.7103 20.9034 57.7607 19.6797C57.7899 18.9755 57.8213 18.2523 57.7695 17.585C57.7242 17.0001 57.6128 16.4222 57.3594 15.9072L57.2422 15.6904C56.8981 15.1152 56.3735 14.6661 55.7979 14.2861C55.2227 13.9065 54.5569 13.5703 53.9062 13.2412H53.9053C52.7948 12.6801 51.7345 12.1404 50.9336 11.3633L50.7861 11.2148C50.2563 10.6609 49.8334 9.99467 49.4316 9.28125L48.9971 8.4873L48.4775 7.54199C48.2991 7.23171 48.1133 6.93067 47.917 6.65137C47.5725 6.16132 47.1753 5.71124 46.6855 5.38477L46.4697 5.25293C45.8912 4.92862 45.2177 4.797 44.5322 4.74707C43.8467 4.69717 43.1022 4.72656 42.374 4.75488C41.1124 4.80372 39.9003 4.84821 38.7803 4.55859C37.7135 4.28222 36.7187 3.6727 35.6807 3.03223H35.6797C35.0525 2.646 34.4113 2.25046 33.7734 1.9541C33.1334 1.65677 32.4601 1.44147 31.7607 1.44141Z" fill="#001B55" stroke="#FCFAF7"/>
<path d="M31.7607 7.82349C44.3818 7.82354 54.623 17.7683 54.623 29.9583C54.6228 42.148 44.3817 52.092 31.7607 52.092C19.1397 52.092 8.89866 42.148 8.89844 29.9583C8.89844 17.7683 19.1396 7.82349 31.7607 7.82349ZM31.7607 8.76489C19.7228 8.76489 9.90234 18.2574 9.90234 29.9583C9.90257 41.6589 19.7229 51.1506 31.7607 51.1506C43.7985 51.1506 53.6189 41.6589 53.6191 29.9583C53.6191 18.2574 43.7986 8.76495 31.7607 8.76489Z" fill="#001B55" stroke="#FCFAF7"/>
<path d="M31.7598 14.5007C31.9908 14.5007 32.1525 14.6044 32.2148 14.7253L36.543 23.2214L36.6611 23.4539L36.9189 23.49L46.5977 24.8523C46.7698 24.8767 46.9084 24.9804 46.9775 25.1169L47.0029 25.1765C47.0578 25.3403 47.0137 25.5227 46.8799 25.6492L39.8779 32.2615L39.6816 32.447L39.7285 32.7117L41.3818 42.0515C41.4111 42.218 41.3422 42.394 41.1895 42.5027C41.0944 42.5669 40.9873 42.5984 40.8818 42.5984C40.7989 42.5984 40.7171 42.5797 40.6426 42.5417V42.5408L31.9863 38.1326L31.7588 38.0173L31.5322 38.1326L22.876 42.5408C22.703 42.6287 22.492 42.6139 22.335 42.5037C22.1816 42.395 22.1123 42.2183 22.1416 42.0515L23.7949 32.7117L23.8418 32.447L23.6455 32.2615L16.6436 25.6492C16.5097 25.5226 16.4669 25.3388 16.5215 25.1765C16.5772 25.0115 16.7295 24.8802 16.9258 24.8523L26.6045 23.49L26.8623 23.4539L26.9805 23.2214L31.3076 14.7253V14.7244C31.3685 14.6046 31.5285 14.5009 31.7598 14.5007ZM31.3135 16.8933L27.6514 24.0837C27.5802 24.2225 27.4419 24.3238 27.2734 24.3474L19.083 25.5007L18.0537 25.6453L18.8096 26.3591L24.7363 31.9558C24.8233 32.0386 24.8725 32.1453 24.8809 32.2546L24.876 32.364L23.4766 40.2673L23.3018 41.2556L24.1953 40.7996L31.5225 37.0681L31.5254 37.0671C31.5948 37.0311 31.6752 37.0115 31.7588 37.0115C31.8002 37.0115 31.8418 37.0157 31.8818 37.0251L31.999 37.0681L39.3252 40.7996L40.2197 41.2556L40.0449 40.2673L38.6455 32.364C38.62 32.2168 38.6694 32.064 38.7842 31.9558H38.7852L44.7119 26.3591L45.4678 25.6453L44.4385 25.5007L36.248 24.3474L36.127 24.3152C36.0131 24.2702 35.922 24.1871 35.8701 24.0847V24.0837L32.2051 16.8933L31.7588 16.0193L31.3135 16.8933Z" fill="#001B55" stroke="#FCFAF7"/>
</svg>
