<svg width="74" height="70" viewBox="0 0 74 70" fill="none" xmlns="http://www.w3.org/2000/svg">
<path d="M68.8412 34.4293H68.8095V10.9968C68.8095 10.9947 68.8092 10.9927 68.8092 10.9906C68.809 10.9784 68.8083 10.9662 68.8073 10.9541C68.8069 10.95 68.8066 10.9459 68.8061 10.9418C68.8045 10.928 68.8025 10.9142 68.7997 10.9006C68.7989 10.8965 68.7977 10.8926 68.7968 10.8886C68.7945 10.8788 68.792 10.869 68.7891 10.8594C68.7875 10.8539 68.7858 10.8486 68.784 10.8432C68.7808 10.8338 68.7773 10.8246 68.7736 10.8154C68.772 10.8115 68.7706 10.8075 68.7689 10.8037C68.7636 10.7915 68.7576 10.7795 68.7512 10.7676C68.7488 10.7633 68.7463 10.7591 68.7438 10.7549C68.7389 10.7464 68.7338 10.7381 68.7283 10.7299C68.7257 10.726 68.7231 10.7221 68.7204 10.7182C68.7128 10.7074 68.7047 10.6968 68.6961 10.6865C68.6956 10.6858 68.6951 10.6852 68.6946 10.6845C68.6945 10.6844 68.6944 10.6843 68.6944 10.6842L60.2269 0.677969C60.1315 0.565281 59.9896 0.5 59.8399 0.5H21.6636C21.5139 0.5 21.372 0.565238 21.2767 0.677969L12.8092 10.6842C12.8091 10.6843 12.809 10.6844 12.8089 10.6845C12.8084 10.6852 12.8079 10.6858 12.8074 10.6865C12.7988 10.6968 12.7908 10.7074 12.7831 10.7182C12.7804 10.7221 12.7778 10.726 12.7752 10.7299C12.7698 10.7381 12.7646 10.7464 12.7597 10.7549C12.7572 10.7591 12.7547 10.7633 12.7523 10.7676C12.746 10.7795 12.74 10.7914 12.7346 10.8036C12.7329 10.8075 12.7315 10.8115 12.7299 10.8154C12.7262 10.8246 12.7227 10.8339 12.7195 10.8432C12.7177 10.8486 12.716 10.8539 12.7144 10.8594C12.7115 10.869 12.709 10.8788 12.7067 10.8886C12.7058 10.8926 12.7047 10.8965 12.7038 10.9006C12.701 10.9142 12.699 10.928 12.6974 10.9418C12.6969 10.9459 12.6966 10.95 12.6963 10.9541C12.6952 10.9662 12.6945 10.9784 12.6944 10.9906C12.6943 10.9927 12.694 10.9947 12.694 10.9968V41.1704L9.46846 39.2934C8.35089 38.643 7.07679 38.3725 5.78385 38.5118C4.4909 38.6507 3.30741 39.1852 2.36132 40.0574C1.07366 41.2445 0.399649 42.9154 0.512128 44.6416C0.624608 46.3679 1.51006 47.9418 2.94141 48.9598L27.2462 66.245C29.4847 67.837 32.1209 68.8498 34.8697 69.1741C35.5153 69.2503 36.1639 69.2881 36.812 69.2881C38.9233 69.2881 41.0273 68.8866 42.9876 68.1018L64.6769 59.4181C65.5291 60.723 66.994 61.5168 68.6018 61.5168H68.8412C71.4101 61.5168 73.5 59.4748 73.5 56.9649V38.9811C73.5 36.4712 71.4101 34.4293 68.8412 34.4293ZM67.2408 10.5063H46.9643L45.5338 4.57478L44.7878 1.48115H59.6036L67.2408 10.5063ZM37.7475 1.48115H43.7561L45.1865 7.41264L45.9326 10.5063H35.571L36.317 7.41264L37.7475 1.48115ZM35.4389 11.4874H46.0646V27.9453H35.4389V11.4874ZM21.9 1.48115H36.7158L35.9697 4.57478L34.5393 10.5063H14.2628L21.9 1.48115ZM13.6982 41.7547V11.4874H34.4347V28.4359C34.4347 28.7068 34.6595 28.9264 34.9368 28.9264H46.5667C46.8441 28.9264 47.0688 28.7068 47.0688 28.4359V11.4874H67.8053V34.4959C67.7994 34.4969 67.7937 34.4982 67.7878 34.4992C67.7342 34.5085 67.6807 34.5184 67.6276 34.5295C67.6227 34.5304 67.6179 34.5316 67.613 34.5326C67.5612 34.5436 67.5097 34.5554 67.4585 34.5681C67.4515 34.5698 67.4445 34.5714 67.4375 34.5732C67.3856 34.5862 67.3339 34.6003 67.2825 34.6151C67.2725 34.618 67.2626 34.6209 67.2526 34.6238C67.2018 34.6388 67.1512 34.6546 67.101 34.6713C67.0925 34.6741 67.0841 34.677 67.0756 34.6799C67.0231 34.6977 66.9709 34.7161 66.9191 34.7357C66.9189 34.7357 66.9187 34.7358 66.9185 34.7359C66.8667 34.7555 66.8154 34.7763 66.7644 34.7976C66.7564 34.801 66.7484 34.8043 66.7405 34.8076C66.6917 34.8284 66.6434 34.8501 66.5954 34.8724C66.5862 34.8767 66.5771 34.881 66.568 34.8853C66.5198 34.9083 66.4718 34.9318 66.4244 34.9564C66.4182 34.9596 66.4121 34.9629 66.4059 34.9661C66.3588 34.9908 66.3121 35.0161 66.2658 35.0423C66.2623 35.0443 66.2587 35.0462 66.2552 35.0483C66.208 35.0752 66.1614 35.1031 66.1152 35.1317C66.107 35.1367 66.0989 35.1417 66.0908 35.1467C66.046 35.1748 66.0016 35.2036 65.9577 35.2333C65.9498 35.2386 65.9419 35.2441 65.9339 35.2495C65.8891 35.2802 65.8446 35.3115 65.8008 35.3437C65.7973 35.3463 65.7939 35.3489 65.7905 35.3515C65.7477 35.3831 65.7055 35.4157 65.6637 35.4489C65.6583 35.4531 65.6529 35.4573 65.6475 35.4616C65.6056 35.4953 65.5643 35.5298 65.5235 35.5649C65.5159 35.5715 65.5082 35.5781 65.5006 35.5847C65.4604 35.6198 65.4207 35.6556 65.3816 35.6922C65.3752 35.6981 65.3689 35.7042 65.3626 35.7102C65.3219 35.7487 65.2816 35.7878 65.2421 35.8279C65.202 35.8687 65.1629 35.9104 65.1245 35.9525C65.1188 35.9587 65.1131 35.9648 65.1074 35.9711C65.0711 36.0113 65.0356 36.0522 65.0009 36.0935C64.9943 36.1013 64.9877 36.1092 64.9811 36.1171C64.9467 36.1586 64.9129 36.2006 64.8801 36.2431C64.875 36.2497 64.8701 36.2564 64.865 36.263C64.8311 36.3074 64.7978 36.3523 64.7656 36.3978C64.7653 36.3983 64.7649 36.3988 64.7645 36.3993C64.7322 36.4451 64.7011 36.4915 64.6706 36.5382C64.6659 36.5454 64.6612 36.5525 64.6565 36.5597C64.6277 36.6045 64.5998 36.6497 64.5727 36.6953C64.5674 36.7041 64.5622 36.7129 64.5571 36.7217C64.5302 36.7676 64.504 36.8139 64.4788 36.8606C64.4749 36.8678 64.4712 36.8751 64.4673 36.8823C64.4415 36.9308 64.4164 36.9796 64.3924 37.029C64.3919 37.03 64.3914 37.0309 64.3909 37.0319C64.3668 37.0816 64.3438 37.1319 64.3216 37.1825C64.3181 37.1904 64.3145 37.1982 64.3111 37.2061C64.2901 37.2545 64.2701 37.3034 64.2508 37.3525C64.2471 37.362 64.2434 37.3714 64.2398 37.3809C64.2208 37.4304 64.2026 37.4801 64.1854 37.5301C64.1827 37.5378 64.1803 37.5454 64.1777 37.5531C64.1602 37.6049 64.1434 37.657 64.1278 37.7095C64.1274 37.7106 64.1271 37.7118 64.1267 37.713C64.111 37.766 64.0965 37.8194 64.0828 37.873C64.0807 37.8813 64.0785 37.8894 64.0764 37.8977C64.0636 37.9492 64.0517 38.0009 64.0406 38.0528C64.0386 38.0626 64.0366 38.0723 64.0346 38.082C64.0238 38.1343 64.0139 38.1868 64.005 38.2396C64.0037 38.2471 64.0026 38.2547 64.0014 38.2622C63.9925 38.3169 63.9844 38.3717 63.9775 38.4268C63.9774 38.4277 63.9772 38.4285 63.9771 38.4294L57.4495 39.2114C53.5776 39.6752 49.7134 39.3758 45.9647 38.3215L36.2053 35.5767C36.1863 35.5714 36.167 35.5671 36.1475 35.5641C34.6202 35.3198 33.068 35.7413 31.8887 36.7203C31.7413 36.8427 31.6018 36.9721 31.4704 37.1078C30.5509 38.0578 30.0331 39.317 30.0331 40.64C30.0331 42.5624 31.1165 44.3094 32.8605 45.1992L40.4707 49.0822L37.9453 49.866C33.6729 51.1919 29.0136 50.667 25.1622 48.4258L13.6982 41.7547ZM42.6069 67.1939C37.6711 69.1702 32.1497 68.5187 27.8371 65.4517L3.53237 48.1665C2.34333 47.3209 1.60774 46.0134 1.51433 44.5793C1.42087 43.1453 1.98078 41.7572 3.05052 40.7711C3.9859 39.9088 5.20836 39.4627 6.43953 39.4627C7.30605 39.4627 8.17697 39.6838 8.9546 40.1363L16.3893 44.4627L24.6483 49.2688C24.654 49.2721 24.6598 49.2753 24.6656 49.2786C24.7332 49.3179 24.8011 49.3566 24.8692 49.3949C24.895 49.4093 24.9208 49.4235 24.9466 49.4379C24.9967 49.4657 25.0469 49.4932 25.0973 49.5205C25.1249 49.5355 25.1526 49.5504 25.1804 49.5653C25.2332 49.5935 25.2862 49.6213 25.3392 49.649C25.3624 49.661 25.3855 49.6732 25.4087 49.6852C25.4831 49.7235 25.5577 49.7612 25.6326 49.7984C25.6515 49.8078 25.6705 49.8169 25.6894 49.8262C25.7472 49.8546 25.8051 49.8827 25.8632 49.9104C25.891 49.9237 25.9188 49.9367 25.9466 49.9498C25.9978 49.9739 26.049 49.9977 26.1004 50.0212C26.1282 50.0339 26.1559 50.0467 26.1837 50.0592C26.2434 50.0862 26.3034 50.1128 26.3634 50.1391C26.3814 50.1469 26.3993 50.155 26.4174 50.1628C26.4938 50.196 26.5705 50.2285 26.6474 50.2605C26.672 50.2707 26.6968 50.2807 26.7216 50.2909C26.7759 50.3132 26.8304 50.3353 26.885 50.3571C26.9141 50.3687 26.9433 50.3802 26.9726 50.3917C27.0256 50.4124 27.0788 50.4329 27.132 50.4532C27.1591 50.4635 27.186 50.4738 27.2131 50.484C27.2895 50.5126 27.366 50.5407 27.4427 50.5682C27.454 50.5723 27.4654 50.5762 27.4767 50.5802C27.5466 50.6051 27.6166 50.6294 27.6867 50.6533C27.7149 50.6629 27.7431 50.6723 27.7713 50.6818C27.8245 50.6996 27.8778 50.7172 27.9311 50.7345C27.9611 50.7442 27.9911 50.7539 28.0211 50.7634C28.0776 50.7814 28.1343 50.799 28.1909 50.8163C28.2155 50.8239 28.24 50.8316 28.2647 50.839C28.3438 50.8629 28.4231 50.8862 28.5025 50.9089C28.5245 50.9152 28.5465 50.9211 28.5685 50.9273C28.6281 50.9441 28.6877 50.9606 28.7475 50.9767C28.7776 50.9849 28.8078 50.9928 28.838 51.0008C28.8916 51.0149 28.9452 51.0288 28.999 51.0424C29.0287 51.0499 29.0585 51.0575 29.0883 51.0649C29.1519 51.0806 29.2156 51.0959 29.2794 51.1109C29.2979 51.1153 29.3164 51.1199 29.3349 51.1242C29.4152 51.1428 29.4956 51.1607 29.5761 51.1782C29.6034 51.1841 29.6307 51.1897 29.6579 51.1954C29.714 51.2073 29.7701 51.2189 29.8262 51.2302C29.8572 51.2365 29.8883 51.2426 29.9194 51.2486C29.9748 51.2595 30.0303 51.27 30.0858 51.2802C30.1142 51.2855 30.1425 51.2908 30.1708 51.2959C30.2521 51.3105 30.3334 51.3247 30.4148 51.3381C30.4281 51.3403 30.4415 51.3423 30.4548 51.3444C30.5248 51.3558 30.5948 51.3667 30.6649 51.3772C30.6945 51.3817 30.7241 51.3858 30.7538 51.3901C30.809 51.3981 30.8642 51.4058 30.9195 51.4132C30.9505 51.4174 30.9816 51.4215 31.0126 51.4255C31.0721 51.4332 31.1316 51.4404 31.1911 51.4475C31.2157 51.4504 31.2403 51.4535 31.2649 51.4563C31.347 51.4656 31.4292 51.4743 31.5115 51.4825C31.5345 51.4848 31.5575 51.4867 31.5805 51.4889C31.6418 51.4947 31.7032 51.5003 31.7647 51.5055C31.7954 51.5081 31.826 51.5105 31.8568 51.5129C31.9127 51.5173 31.9687 51.5214 32.0247 51.5252C32.0545 51.5273 32.0843 51.5294 32.1141 51.5313C32.1824 51.5356 32.2508 51.5395 32.3192 51.543C32.3352 51.5438 32.3512 51.5448 32.3672 51.5456C32.4501 51.5496 32.533 51.5529 32.6159 51.5558C32.6432 51.5567 32.6706 51.5573 32.6979 51.5581C32.7558 51.5598 32.8138 51.5613 32.8718 51.5624C32.9028 51.563 32.9338 51.5635 32.9648 51.5639C33.0227 51.5647 33.0806 51.5651 33.1386 51.5653C33.1581 51.5654 33.1777 51.5658 33.1972 51.5658C33.2044 51.5658 33.2117 51.5656 33.2189 51.5656C33.3108 51.5655 33.4028 51.5646 33.4948 51.563C33.5173 51.5626 33.5398 51.562 33.5623 51.5615C33.6371 51.5599 33.7119 51.5578 33.7867 51.5553C33.8122 51.5544 33.8377 51.5536 33.8632 51.5526C33.9554 51.549 34.0475 51.5448 34.1397 51.5397C34.1573 51.5387 34.1748 51.5375 34.1923 51.5365C34.2704 51.5319 34.3485 51.5268 34.4266 51.5212C34.4532 51.5193 34.4798 51.5174 34.5064 51.5153C34.5993 51.5082 34.6921 51.5006 34.7849 51.4919C34.7925 51.4912 34.8002 51.4904 34.8078 51.4896C34.8944 51.4814 34.981 51.4724 35.0675 51.4629C35.0943 51.4599 35.1211 51.4569 35.1479 51.4538C35.2303 51.4444 35.3125 51.4344 35.3947 51.4237C35.407 51.4222 35.4193 51.4207 35.4316 51.4191C35.5239 51.4069 35.6162 51.3938 35.7084 51.3801C35.7343 51.3762 35.7602 51.3722 35.7861 51.3683C35.8624 51.3566 35.9387 51.3444 36.0148 51.3316C36.0343 51.3284 36.0537 51.3253 36.0732 51.322C36.1648 51.3063 36.2564 51.2898 36.3478 51.2726C36.3717 51.2682 36.3956 51.2635 36.4194 51.2589C36.4938 51.2446 36.5681 51.2298 36.6424 51.2145C36.6654 51.2098 36.6884 51.2052 36.7114 51.2003C36.8027 51.1811 36.8939 51.1612 36.985 51.1404C37.0052 51.1358 37.0254 51.131 37.0455 51.1263C37.1208 51.1089 37.196 51.0909 37.2712 51.0725C37.296 51.0664 37.3208 51.0603 37.3455 51.0541C37.4368 51.0312 37.528 51.0077 37.6191 50.9833C37.6326 50.9797 37.646 50.9758 37.6595 50.9722C37.7395 50.9505 37.8194 50.9281 37.8992 50.9052C37.9242 50.8981 37.9491 50.8909 37.974 50.8836C38.0659 50.8568 38.1577 50.8295 38.2493 50.8011L41.9244 49.6605C42.1176 49.6005 42.255 49.4329 42.2726 49.2355C42.2902 49.0381 42.1846 48.8498 42.0048 48.7581L33.3254 44.3295C31.914 43.6094 31.0373 42.1957 31.0373 40.64C31.0373 39.4164 31.5846 38.2603 32.539 37.468C32.58 37.434 32.6218 37.4011 32.6639 37.3687C33.5939 36.6535 34.7833 36.3482 35.9568 36.5278L40.8219 37.8961L45.6869 39.2643C49.5662 40.3554 53.5648 40.6653 57.5717 40.1852L63.943 39.422V56.9649C63.943 57.0254 63.9446 57.0856 63.947 57.1457C63.9476 57.1606 63.9483 57.1756 63.949 57.1905C63.9519 57.2503 63.9556 57.3101 63.9609 57.3694C63.961 57.3704 63.9611 57.3714 63.9612 57.3723C63.9665 57.4309 63.9733 57.4891 63.9808 57.5472C63.9827 57.5619 63.9847 57.5766 63.9867 57.5913C63.9949 57.65 64.0039 57.7084 64.0144 57.7666C64.0147 57.7684 64.0152 57.7702 64.0155 57.7721C64.0258 57.8287 64.0376 57.8849 64.0501 57.941C64.0534 57.9554 64.0566 57.9698 64.06 57.9841C64.0734 58.0415 64.0876 58.0987 64.1034 58.1555C64.1041 58.1581 64.1049 58.1607 64.1057 58.1633C64.1209 58.218 64.1375 58.2722 64.1549 58.3263C64.1594 58.3403 64.164 58.3543 64.1686 58.3683C64.1872 58.4243 64.2066 58.4801 64.2276 58.5355C64.2278 58.5361 64.228 58.5368 64.2282 58.5374L42.6069 67.1939ZM72.4958 56.9649C72.4958 58.9338 70.8563 60.5356 68.8412 60.5356H68.6018C67.2178 60.5356 65.9684 59.7859 65.3412 58.5791C65.0798 58.0762 64.9472 57.5331 64.9472 56.9649V38.9811C64.9472 38.9476 64.9478 38.9142 64.9488 38.8809C65.0007 37.0363 66.4596 35.5483 68.3425 35.4195C68.4305 35.4135 68.5178 35.4104 68.6018 35.4104H68.8412C70.8563 35.4104 72.4958 37.0122 72.4958 38.9811V56.9649Z" fill="#001B55" stroke="#FCFAF7"/>
</svg>
