<svg width="59" height="59" viewBox="0 0 59 59" fill="none" xmlns="http://www.w3.org/2000/svg">
<g clip-path="url(#clip0_27912_1897)">
<path d="M35.4 11.8C35.4 11.2784 35.1928 10.7782 34.824 10.4094C34.4552 10.0405 33.9549 9.83333 33.4333 9.83333H24.5381L26.8981 3.93333H33.4333C33.9549 3.93333 34.4552 3.72613 34.824 3.35731C35.1928 2.98849 35.4 2.48826 35.4 1.96667C35.4 1.44507 35.1928 0.944845 34.824 0.576023C34.4552 0.207202 33.9549 1.32585e-07 33.4333 1.32585e-07H25.5667C25.1733 -0.000144258 24.789 0.117649 24.4633 0.338164C24.1376 0.558679 23.8856 0.871784 23.7396 1.23703L20.3019 9.83333H1.96667C1.44507 9.83333 0.944845 10.0405 0.576023 10.4094C0.207202 10.7782 0 11.2784 0 11.8L0 19.6667C0 20.1883 0.207202 20.6885 0.576023 21.0573C0.944845 21.4261 1.44507 21.6333 1.96667 21.6333H4.03363L5.9 57.1376C5.92671 57.6409 6.14565 58.1147 6.51161 58.4613C6.87758 58.8079 7.36264 59.0007 7.86667 59H27.5333C28.0374 59.0007 28.5224 58.8079 28.8884 58.4613C29.2543 58.1147 29.4733 57.6409 29.5 57.1376L31.3664 21.6333H33.4333C33.9549 21.6333 34.4552 21.4261 34.824 21.0573C35.1928 20.6885 35.4 20.1883 35.4 19.6667V11.8ZM9.08993 42.8458L26.9571 30.5561L26.0505 47.79L14.6674 55.0667H9.73303L9.08993 42.8458ZM21.9618 55.0667L25.7968 52.6123L25.667 55.0667H21.9618ZM27.2187 25.6021L8.85 38.2379L7.97287 21.6333H27.4271L27.2187 25.6021ZM31.4667 17.7H3.93333V13.7667H31.4667V17.7Z" fill="#001B55"/>
<path d="M50.3136 37.3666C50.1386 37.3721 49.964 37.3865 49.7905 37.4099C50.2791 36.4553 51.0569 35.6795 52.0128 35.1935C52.244 35.078 52.4501 34.9182 52.6195 34.7231C52.7889 34.528 52.9182 34.3014 53 34.0563C53.0818 33.8112 53.1145 33.5524 53.0963 33.2947C53.0781 33.037 53.0093 32.7854 52.8939 32.5542C52.7784 32.3231 52.6186 32.1169 52.4235 31.9475C52.2284 31.7782 52.0018 31.6489 51.7567 31.5671C51.2618 31.4018 50.7214 31.44 50.2546 31.6731C49.0838 32.2567 48.0539 33.0879 47.2362 34.109C46.4184 35.1302 45.8325 36.3169 45.5189 37.5869C45.0546 37.4455 44.5725 37.3713 44.0872 37.3666C41.7839 37.3687 39.5756 38.2846 37.947 39.9132C36.3184 41.5419 35.4025 43.7502 35.4004 46.0534V50.3132C35.4025 52.6164 36.3184 54.8247 37.947 56.4534C39.5756 58.082 41.7839 58.9979 44.0872 59C45.2146 59.001 46.3102 58.6259 47.2004 57.934C48.0906 58.6259 49.1862 59.001 50.3136 59C52.6169 58.9979 54.8252 58.082 56.4538 56.4534C58.0824 54.8247 58.9983 52.6164 59.0004 50.3132V46.0534C58.9983 43.7502 58.0824 41.5419 56.4538 39.9132C54.8252 38.2846 52.6169 37.3687 50.3136 37.3666ZM55.0671 50.3132C55.066 51.5736 54.5649 52.782 53.6737 53.6732C52.7824 54.5645 51.574 55.0656 50.3136 55.0666C50.1469 55.0667 49.9821 55.0304 49.8309 54.96C49.6798 54.8897 49.5458 54.7871 49.4385 54.6595C49.1661 54.3305 48.8244 54.0656 48.4379 53.8838C48.0514 53.702 47.6295 53.6077 47.2024 53.6077C46.7752 53.6077 46.3533 53.702 45.9668 53.8838C45.5803 54.0656 45.2386 54.3305 44.9663 54.6595C44.8586 54.7881 44.7241 54.8915 44.5723 54.9625C44.4204 55.0335 44.2548 55.0704 44.0872 55.0706C42.8261 55.0695 41.6171 54.5678 40.7257 53.6758C39.8344 52.7837 39.3337 51.5743 39.3337 50.3132V46.0534C39.3348 44.793 39.8359 43.5846 40.7271 42.6934C41.6183 41.8022 42.8268 41.301 44.0872 41.3C44.3574 41.2983 44.6192 41.3939 44.8247 41.5694C45.4814 42.1147 46.3075 42.4144 47.1611 42.417C47.1748 42.417 47.1866 42.417 47.2004 42.417H47.224C48.0861 42.4181 48.9212 42.1167 49.584 41.5655C49.788 41.3932 50.0466 41.2991 50.3136 41.3C51.574 41.301 52.7824 41.8022 53.6737 42.6934C54.5649 43.5846 55.066 44.793 55.0671 46.0534V50.3132Z" fill="#001B55"/>
</g>
<defs>
<clipPath id="clip0_27912_1897">
<rect width="59" height="59" fill="white"/>
</clipPath>
</defs>
</svg>
