<svg width="60" height="47" viewBox="0 0 60 47" fill="none" xmlns="http://www.w3.org/2000/svg">
<g clip-path="url(#clip0_27912_1886)">
<path d="M51.0418 31.4511C50.5998 30.8646 50.1438 30.2638 49.6678 29.5261C47.6025 26.183 46.3509 22.383 46.0178 18.4443L45.9858 18.1541C45.5433 12.8489 46.8568 7.54537 49.7158 3.09371C49.8508 2.86346 49.9401 2.6083 49.9786 2.3428C50.017 2.07729 50.004 1.80664 49.9401 1.5463C49.8762 1.28596 49.7627 1.04102 49.6062 0.825473C49.4497 0.609927 49.2531 0.427993 49.0278 0.29006C48.8024 0.152126 48.5527 0.0608934 48.2928 0.0215712C48.033 -0.0177511 47.7681 -0.00439313 47.5133 0.0608824C47.2585 0.126158 47.0188 0.242073 46.8078 0.402009C46.5968 0.561944 46.4188 0.762769 46.2838 0.993016C42.9671 6.21669 41.4634 12.4271 42.0138 18.6282L42.0418 18.898C42.3964 22.6635 43.4434 26.3269 45.1278 29.6957C35.4044 33.5998 24.5952 33.5998 14.8718 29.6957C16.5561 26.3269 17.6031 22.6635 17.9578 18.898L17.9858 18.6282C18.5362 12.4271 17.0325 6.21669 13.7158 0.993016C13.4431 0.528011 13.0009 0.192712 12.4863 0.0608824C11.9717 -0.0709475 11.4269 0.01149 10.9718 0.29006C10.5167 0.568629 10.1885 1.02051 10.0595 1.5463C9.93045 2.07209 10.0111 2.62871 10.2838 3.09371C13.1428 7.54537 14.4563 12.8489 14.0138 18.1541L13.9818 18.4443C13.6486 22.383 12.3971 26.183 10.3318 29.5261C9.85578 30.2638 9.39978 30.8646 8.95778 31.4511C7.86841 32.8202 6.94256 34.317 6.19978 35.9099C4.9139 38.7139 4.16704 41.7441 3.99978 44.8358C3.98381 45.1041 4.01981 45.373 4.1057 45.6271C4.1916 45.8811 4.3257 46.1154 4.50034 46.3164C4.67498 46.5174 4.88671 46.6813 5.12342 46.7986C5.36013 46.9158 5.61715 46.9843 5.87978 46.9999H5.99978C6.51006 47.0008 7.0014 46.8024 7.3732 46.4453C7.74501 46.0883 7.96916 45.5995 7.99978 45.079C8.13032 42.5096 8.74133 39.9896 9.79978 37.6551C10.4254 36.3273 11.2042 35.0807 12.1198 33.9421C12.3038 33.6989 12.4938 33.4435 12.6818 33.186C18.1637 35.5469 24.0508 36.7695 29.9998 36.7825C35.9461 36.7686 41.8304 35.546 47.3098 33.186C47.4978 33.4414 47.6878 33.6989 47.8718 33.9421C48.7873 35.0807 49.5662 36.3273 50.1918 37.6551C51.253 39.989 51.8667 42.5091 51.9998 45.079C52.0304 45.5995 52.2546 46.0883 52.6264 46.4453C52.9982 46.8024 53.4895 47.0008 53.9998 46.9999H54.1218C54.3842 46.984 54.641 46.9154 54.8775 46.798C55.114 46.6806 55.3255 46.5167 55.4999 46.3157C55.6744 46.1147 55.8083 45.8806 55.8941 45.6266C55.9798 45.3727 56.0158 45.104 55.9998 44.8358C55.8325 41.7441 55.0857 38.7139 53.7998 35.9099C53.057 34.317 52.1311 32.8202 51.0418 31.4511Z" fill="#001B55"/>
<path d="M30 28.6085C30.5304 28.6085 31.0391 28.3932 31.4142 28.0099C31.7893 27.6267 32 27.1069 32 26.565V24.5215C32 23.9795 31.7893 23.4598 31.4142 23.0765C31.0391 22.6933 30.5304 22.478 30 22.478C29.4696 22.478 28.9609 22.6933 28.5858 23.0765C28.2107 23.4598 28 23.9795 28 24.5215V26.565C28 27.1069 28.2107 27.6267 28.5858 28.0099C28.9609 28.3932 29.4696 28.6085 30 28.6085Z" fill="#001B55"/>
<path d="M6.586 19.836C6.96106 20.2191 7.46967 20.4343 8 20.4343C8.53033 20.4343 9.03894 20.2191 9.414 19.836L11.414 17.7925C11.7889 17.4093 11.9996 16.8896 11.9996 16.3478C11.9996 15.8059 11.7889 15.2862 11.414 14.903L9.414 12.8595C9.1343 12.5738 8.77797 12.3793 8.39006 12.3005C8.00216 12.2217 7.60009 12.2621 7.23469 12.4168C6.86929 12.5714 6.55697 12.8332 6.3372 13.1692C6.11743 13.5052 6.00008 13.9002 6 14.3043H2C1.46957 14.3043 0.960859 14.5196 0.585786 14.9028C0.210714 15.286 0 15.8058 0 16.3478C0 16.8897 0.210714 17.4095 0.585786 17.7927C0.960859 18.1759 1.46957 18.3912 2 18.3912H6C6.00011 18.9331 6.2109 19.4528 6.586 19.836Z" fill="#001B55"/>
<path d="M57.9996 14.3043H53.9996C53.9995 13.9002 53.8821 13.5052 53.6624 13.1692C53.4426 12.8332 53.1303 12.5714 52.7649 12.4168C52.3995 12.2621 51.9974 12.2217 51.6095 12.3005C51.2216 12.3793 50.8653 12.5738 50.5856 12.8595L48.5856 14.903C48.2106 15.2862 48 15.8059 48 16.3478C48 16.8896 48.2106 17.4093 48.5856 17.7925L50.5856 19.836C50.8653 20.1217 51.2216 20.3162 51.6095 20.395C51.9974 20.4738 52.3995 20.4334 52.7649 20.2787C53.1303 20.1241 53.4426 19.8623 53.6624 19.5263C53.8821 19.1903 53.9995 18.7953 53.9996 18.3912H57.9996C58.53 18.3912 59.0387 18.1759 59.4138 17.7927C59.7889 17.4095 59.9996 16.8897 59.9996 16.3478C59.9996 15.8058 59.7889 15.286 59.4138 14.9028C59.0387 14.5196 58.53 14.3043 57.9996 14.3043Z" fill="#001B55"/>
</g>
<defs>
<clipPath id="clip0_27912_1886">
<rect width="60" height="47" fill="white"/>
</clipPath>
</defs>
</svg>
