<svg width="64" height="64" viewBox="0 0 64 64" fill="none" xmlns="http://www.w3.org/2000/svg">
<path d="M36 22.19C36 23.51 35.58 24.81 34.81 25.87C34.02 26.95 32.95 27.74 31.7 28.16C30.72 28.48 30.1 29.41 30.18 30.44L31 41.93C31.04 42.48 30.62 42.96 30.07 43C29.52 43.03 29.04 42.62 29 42.07L28.18 30.58C28.04 28.64 29.22 26.87 31.07 26.26C31.92 25.98 32.65 25.43 33.19 24.69C33.71 23.97 34 23.09 34 22.19C34 22.09 34 21.99 33.99 21.89L33.07 9H32V20C32 21.65 30.65 23 29 23H25C23.35 23 22 21.65 22 20V9H20.93L20.01 21.88C20 21.99 20 22.09 20 22.19C20 23.09 20.29 23.97 20.81 24.69C21.35 25.43 22.08 25.98 22.94 26.26C24.66 26.82 25.83 28.44 25.83 30.27C25.83 30.39 25.83 30.52 25.81 30.64L24.28 52.08C24.22 52.84 24.48 53.57 25 54.13C25.53 54.69 26.24 55 27 55C28.51 55 29.73 53.78 29.73 52.27V52.12L29.29 46.07C29.25 45.52 29.67 45.04 30.22 45C30.77 44.98 31.25 45.38 31.29 45.93L31.72 51.94C31.73 52.03 31.73 52.16 31.73 52.27C31.73 54.88 29.61 57 27 57C25.69 57 24.43 56.45 23.54 55.5C22.65 54.54 22.19 53.25 22.28 51.94L23.82 30.44C23.83 30.35 23.83 30.31 23.83 30.27C23.83 29.3 23.22 28.46 22.31 28.16C21.05 27.74 19.98 26.95 19.19 25.87C18.42 24.81 18 23.51 18 22.19C18 22.03 18 21.89 18.01 21.73L19 7.93C19.04 7.41 19.48 7 20 7H23C23.55 7 24 7.45 24 8V20C24 20.55 24.45 21 25 21H26V8C26 7.45 26.45 7 27 7C27.55 7 28 7.45 28 8V21H29C29.55 21 30 20.55 30 20V8C30 7.45 30.45 7 31 7H34C34.52 7 34.96 7.41 35 7.93L35.99 21.74C36 21.89 36 22.03 36 22.19Z" fill="#001B55"/>
<path d="M53.6079 12.1979C53.4859 11.6599 52.9519 11.3219 52.4119 11.4439L49.6539 12.0689C49.1159 12.1909 48.7779 12.7259 48.8999 13.2649C49.0179 13.7849 49.5779 14.1379 50.0959 14.0189L52.8539 13.3939C53.3929 13.2719 53.7299 12.7369 53.6079 12.1979Z" fill="#001B55"/>
<path d="M52.2508 16.9072L49.8578 15.3982C49.3898 15.1032 48.7728 15.2432 48.4788 15.7102C48.1838 16.1772 48.3238 16.7942 48.7908 17.0892L51.1838 18.5982C51.6198 18.8732 52.2678 18.7552 52.5628 18.2862C52.8578 17.8192 52.7178 17.2022 52.2508 16.9072Z" fill="#001B55"/>
<path d="M47.4665 11.2391C47.9295 11.5311 48.5535 11.3891 48.8455 10.9261L50.3545 8.53306C50.6495 8.06606 50.5095 7.44906 50.0425 7.15406C49.5745 6.85906 48.9575 6.99906 48.6635 7.46606L47.1545 9.85906C46.8595 10.3261 46.9995 10.9431 47.4675 11.2381L47.4665 11.2391Z" fill="#001B55"/>
<path d="M14.1261 14.0432C15.2571 14.0342 15.4801 12.3262 14.3461 12.0692L11.5881 11.4442C11.0491 11.3212 10.5131 11.6602 10.3921 12.1982C10.2701 12.7372 10.6071 13.2722 11.1461 13.3942L13.9041 14.0192C13.9781 14.0362 14.0531 14.0442 14.1261 14.0432Z" fill="#001B55"/>
<path d="M14.1411 15.399L11.7481 16.908C11.2811 17.202 11.1411 17.82 11.4351 18.287C11.7261 18.748 12.3541 18.89 12.8141 18.6L15.2071 17.091C15.6741 16.797 15.8141 16.179 15.5191 15.712C15.2261 15.246 14.6071 15.106 14.1401 15.4L14.1411 15.399Z" fill="#001B55"/>
<path d="M15.3377 7.46708C15.0447 7.00008 14.4277 6.86108 13.9587 7.15508C13.4917 7.44908 13.3517 8.06708 13.6467 8.53408L15.1557 10.9271C15.4297 11.3621 16.0757 11.5291 16.5347 11.2401C17.0017 10.9461 17.1417 10.3281 16.8467 9.86108L15.3377 7.46708Z" fill="#001B55"/>
<path d="M41.832 7.44496C41.587 7.07796 41.131 6.91796 40.71 7.04296C40.288 7.17096 40 7.55996 40 7.99996V28C40 28.552 40.448 29 41 29C41.552 29 42 28.552 42 28V11.536C43.672 14.501 45.013 17.641 46.002 20.908C47.328 25.31 48 29.856 48 34.42V35H42V32C42 31.448 41.552 31 41 31C40.448 31 40 31.448 40 32V53.149C40 55.272 41.728 57 43.851 57C46.095 57 47.905 54.997 47.682 52.767L46.105 37H49C49.552 37 50 36.552 50 36V34.42C50 29.661 49.299 24.921 47.917 20.331C46.532 15.755 44.484 11.42 41.832 7.44496ZM45.691 52.966C45.797 54.03 44.912 55 43.85 55C42.829 55 41.999 54.17 41.999 53.149V37H44.094C44.094 37 45.685 52.912 45.69 52.966H45.691Z" fill="#001B55"/>
</svg>
