<svg width="51" height="63" viewBox="0 0 51 63" fill="none" xmlns="http://www.w3.org/2000/svg">
<path d="M28.9792 46.6191C31.0636 46.6191 32.7592 44.9235 32.7592 42.8391C32.7592 40.7547 31.0636 39.0591 28.9792 39.0591C26.8948 39.0591 25.1992 40.7547 25.1992 42.8391C25.1992 44.9235 26.8948 46.6191 28.9792 46.6191ZM28.9792 41.5791C29.6744 41.5791 30.2392 42.1439 30.2392 42.8391C30.2392 43.5343 29.6744 44.0991 28.9792 44.0991C28.284 44.0991 27.7192 43.5343 27.7192 42.8391C27.7192 42.1439 28.284 41.5791 28.9792 41.5791Z" fill="#001B55"/>
<path d="M37.7991 39.0596C38.4949 39.0596 39.0591 38.4954 39.0591 37.7996C39.0591 37.1037 38.4949 36.5396 37.7991 36.5396C37.1032 36.5396 36.5391 37.1037 36.5391 37.7996C36.5391 38.4954 37.1032 39.0596 37.7991 39.0596Z" fill="#001B55"/>
<path d="M30.2405 36.5395C30.9363 36.5395 31.5005 35.9754 31.5005 35.2795C31.5005 34.5837 30.9363 34.0195 30.2405 34.0195C29.5446 34.0195 28.9805 34.5837 28.9805 35.2795C28.9805 35.9754 29.5446 36.5395 30.2405 36.5395Z" fill="#001B55"/>
<path d="M23.9397 39.0596C24.6356 39.0596 25.1997 38.4954 25.1997 37.7996C25.1997 37.1037 24.6356 36.5396 23.9397 36.5396C23.2438 36.5396 22.6797 37.1037 22.6797 37.7996C22.6797 38.4954 23.2438 39.0596 23.9397 39.0596Z" fill="#001B55"/>
<path d="M46.0614 16.1265C42.7176 12.2838 37.8781 10.08 32.7852 10.08H18.8748C18.1802 10.08 17.6148 9.5146 17.6148 8.82V2.52C17.6148 1.13018 16.4846 0 15.0948 0H11.3277C9.93787 0 8.80769 1.13018 8.80769 2.52V10.0923C8.80769 15.6436 13.318 20.16 18.8625 20.16H20.1557L20.1729 20.7931C20.2283 23.2835 19.279 25.7506 17.5662 27.5625L15.7783 29.4636C13.6637 31.7049 12.4991 34.6475 12.4991 37.7495C12.4991 37.7877 12.4991 37.8258 12.4997 37.864C5.49528 38.5389 0 44.4685 0 51.66V60.48C0 61.8698 1.13018 63 2.52 63H6.28769C7.67751 63 8.80769 61.8698 8.80769 60.48V54.1677C8.80769 52.4918 9.46106 50.9094 10.6399 49.7202C11.5504 48.817 12.6849 48.2227 13.9129 47.9901C14.2088 50.5107 15.3329 52.8363 17.149 54.6396C19.2759 56.7806 22.1171 57.96 25.1496 57.96C27.0008 57.96 28.836 57.7496 30.6036 57.3343C31.281 57.175 31.7012 56.497 31.5425 55.8196C31.3831 55.1416 30.7027 54.7183 30.0277 54.8807C28.4484 55.2517 26.807 55.44 25.1496 55.44C22.7932 55.44 20.587 54.5252 18.9308 52.8579C17.2696 51.2078 16.3548 49.0016 16.3548 46.62C16.3548 45.9242 15.7906 45.36 15.0948 45.36C12.7501 45.36 10.5383 46.273 8.85752 47.9378C7.2007 49.6107 6.28769 51.823 6.28769 54.1677V60.48H2.52V51.66C2.52 45.4075 7.59561 40.3201 13.8346 40.32C14.5759 40.32 15.1703 39.6507 15.0868 38.9166C15.0419 38.5241 15.0191 38.131 15.0191 37.7495C15.0191 35.2929 15.9395 32.9643 17.6129 31.1911L19.3996 29.2913C21.5621 27.0033 22.7624 23.8852 22.6917 20.7309L22.6418 18.8662C22.624 18.1839 22.0654 17.64 21.3825 17.64H18.8625C14.7078 17.64 11.3277 14.2544 11.3277 10.0923V2.52H15.0948V8.82C15.0948 10.9044 16.7904 12.6 18.8748 12.6H32.7852C37.1491 12.6 41.2952 14.4882 44.1609 17.7809C47.0328 21.081 48.3334 25.4627 47.728 29.8032L46.7953 36.5566C45.7833 43.8853 41.201 50.1471 34.5386 53.3057C33.9099 53.6041 33.6416 54.3553 33.9394 54.9841C34.2378 55.6129 34.989 55.8811 35.6178 55.5833C43.051 52.0587 48.163 45.0745 49.292 36.9011L50.224 30.1496C50.9297 25.088 49.4126 19.9767 46.0614 16.1265Z" fill="#001B55"/>
<path d="M25.2299 52.9201C34.7832 52.8801 42.9825 45.696 44.3015 36.2085L45.2342 29.4539C45.5529 27.124 45.2237 24.7627 44.2818 22.6254C44.0007 21.9886 43.2593 21.7025 42.6207 21.9806C41.9839 22.2612 41.6954 23.005 41.9759 23.6417C42.3921 24.5866 42.6432 25.5882 42.7557 26.6085C41.2498 26.8786 39.8686 27.2734 38.5743 27.8167C37.0926 28.4439 35.6022 28.9302 33.9773 28.9807C31.9315 29.0444 29.9875 28.2682 28.0378 27.7613C27.5168 27.6252 27.0074 27.5027 26.5016 27.3906C27.3574 25.2629 27.7881 22.9667 27.7308 20.6056L27.6521 17.6401H32.4816C34.5882 17.6401 36.5342 18.1655 38.1086 19.1591C38.5128 19.4138 38.9188 19.7141 39.3157 20.05C39.8466 20.5003 40.6403 20.4333 41.0912 19.9036C41.5416 19.3726 41.4758 18.5777 40.9448 18.128C40.4588 17.7158 39.9574 17.346 39.4541 17.028C37.4761 15.7797 35.065 15.1201 32.4816 15.1201C32.4816 15.1201 26.3769 15.1201 26.3583 15.1201C25.6646 15.1201 25.0801 15.722 25.0988 16.4133L25.212 20.6695C25.3056 24.5369 23.893 28.2148 21.2321 31.0276L19.47 32.9022C17.5562 34.8101 17.2278 37.8243 18.2261 40.2591C19.0673 42.3112 18.8739 44.4473 18.8739 46.6201C18.8739 49.9952 21.8725 52.9201 25.2299 52.9201ZM21.2788 34.6563L23.0655 32.7564C23.9475 31.8241 24.6985 30.8033 25.3397 29.7261C26.0179 29.8643 26.6982 30.0156 27.4017 30.1995C29.5958 30.7718 31.756 31.5713 34.0585 31.4995C35.9743 31.4398 37.7932 30.8819 39.5464 30.1417C40.5351 29.7266 41.5893 29.4122 42.7281 29.1795L41.8055 35.8627C40.6581 44.1155 33.5275 50.3651 25.2188 50.4001C23.1694 50.4087 21.3939 48.7083 21.3939 46.6201C21.3939 44.0669 21.5515 41.7036 20.5565 39.3001C19.9333 37.7924 20.0911 35.8553 21.2788 34.6563Z" fill="#001B55"/>
</svg>
