<svg width="60" height="81" viewBox="0 0 60 81" fill="none" xmlns="http://www.w3.org/2000/svg">
<path d="M8.67383 0.5H46.0244C46.1388 0.500033 46.247 0.543519 46.3271 0.618164L58.8174 12.29C58.8997 12.3669 58.9424 12.4698 58.9424 12.5723V66.0322C58.9424 67.4747 57.7243 68.6777 56.1963 68.6777H23.79C23.6511 68.6777 23.5244 68.6154 23.4453 68.5156C23.3679 68.4181 23.3439 68.2952 23.375 68.1797C23.4018 68.0835 23.4222 67.9858 23.4414 67.8877L23.7598 67.9072L24.29 67.9395V67.8779H56.1963C57.2236 67.8779 58.0859 67.0645 58.0859 66.0312V13.6367H45.1025C44.8511 13.6367 44.6738 13.4433 44.6738 13.2373V1.29883H8.67383C7.64713 1.29883 6.78223 2.11164 6.78223 3.14551V45.7354H5.92578V3.14551L5.94043 2.87793C6.08066 1.55606 7.24019 0.5 8.67383 0.5ZM50.0156 53.0303V53.8281H32.3291V53.0303H50.0156ZM50.0156 47.2998V48.0986H24.4434V47.2998H50.0156ZM50.0156 41.5684V42.3672H14.585V41.5684H50.0156ZM50.0156 35.8379V36.6367H14.585V35.8379H50.0156ZM50.0156 30.1084V30.9062H14.585V30.1084H50.0156ZM50.0156 24.3779V25.1768H14.585V24.3779H50.0156ZM45.5312 12.8398H58.1963L57.2705 11.9746L46.3721 1.79004L45.5312 1.00391V12.8398Z" fill="#001B55" stroke="#FCFAF7"/>
<path d="M1.96973 79.1919L2.61426 79.4702L2.6084 79.4839H2.60742L2.6084 79.4849L2.59863 79.5054L2.59668 79.5044C2.59527 79.5074 2.59441 79.5108 2.59277 79.5142L6.42871 78.0952L6.66309 78.0083L6.87305 78.144L9.37402 79.7593C9.50327 79.8423 9.6577 79.8872 9.81348 79.8872C9.9286 79.8871 10.0421 79.8627 10.1416 79.8179L10.2285 79.772C10.423 79.6518 10.5513 79.4508 10.5762 79.2378L11.5361 71.0269L10.6865 70.9341L9.83398 78.228L9.74023 79.0259L9.06641 78.5903L6.77148 77.1079L2.80566 78.5757L1.73633 78.9712L2.16992 77.9175L5.78809 69.1089L4.99609 68.8032L0.889648 78.8062L0.884766 78.8159C0.772225 79.075 0.829768 79.3913 1.03613 79.6001L1.12109 79.6724C1.33206 79.8258 1.62594 79.872 1.87598 79.7788H1.87793L2.52539 79.5386L1.6875 79.0933M1.96973 79.1919L1.71777 79.0356C1.70844 79.0507 1.70192 79.0643 1.69727 79.0737H1.69629M1.96973 79.1919L2.02637 79.2271L1.69043 79.0884C1.68963 79.0903 1.6881 79.0918 1.6875 79.0933M1.96973 79.1919L1.69629 79.0737M1.69629 79.0737L1.6875 79.0933M1.69629 79.0737C1.69217 79.0821 1.68929 79.0891 1.6875 79.0933M23.792 78.0161L23.5195 78.2983L23.1709 78.6567L23.1719 78.6587L23.5205 78.2993L23.792 78.0171L24.0234 78.5454V78.5464C24.137 78.8079 24.0784 79.1262 23.873 79.3325C23.666 79.5406 23.3212 79.617 23.0312 79.5093L23.0303 79.5083L18.4805 77.8257L18.2461 77.7388L18.0361 77.8745L15.5342 79.4907L15.5312 79.4927C15.4064 79.5742 15.2534 79.6177 15.0957 79.6177C14.9828 79.6176 14.8692 79.5942 14.7666 79.5483C14.5543 79.4522 14.4031 79.2665 14.3496 79.0581L14.333 78.9673L13.373 70.77L14.2227 70.6772L15.0752 77.9595L15.1689 78.7573L15.8428 78.3208L18.1348 76.8403L22.0645 78.2935L23.167 78.7017L22.6963 77.6245L18.9668 69.0972L19.751 68.7749L23.792 78.0161ZM10.1328 78.6821L9.91504 79.1323L9.91797 79.1333L10.1357 78.6841L10.3535 78.2339L10.3516 78.2319L10.1328 78.6821Z" fill="#001B55" stroke="#FCFAF7"/>
<path d="M12.292 47.999C18.8086 47.9992 24.083 53.1325 24.083 59.4082C24.0828 65.6837 18.8072 70.8162 12.292 70.8164C5.77538 70.8164 0.500238 65.6838 0.5 59.4082C0.5 53.1324 5.77523 47.999 12.292 47.999ZM12.292 48.7969C6.27605 48.7969 1.35562 53.541 1.35547 59.4062C1.35547 65.2729 6.27592 70.0176 12.292 70.0176C18.3067 70.0174 23.2266 65.2727 23.2266 59.4062C23.2264 53.5411 18.3065 48.797 12.292 48.7969Z" fill="#001B55" stroke="#FCFAF7"/>
<path d="M12.293 54.4417C15.1444 54.4419 17.4374 56.6857 17.4375 59.4104C17.4375 62.1353 15.1443 64.3809 12.293 64.3811C9.44129 64.3811 7.14648 62.1353 7.14648 59.4104C7.14657 56.6857 9.44119 54.4417 12.293 54.4417ZM12.293 55.2395C9.94203 55.2395 8.00302 57.0948 8.00293 59.4104C8.00293 61.7261 9.94197 63.5823 12.293 63.5823C14.6438 63.5821 16.582 61.726 16.582 59.4104L16.5762 59.1946C16.4589 56.9809 14.5692 55.2397 12.293 55.2395Z" fill="#001B55" stroke="#FCFAF7"/>
<path d="M42.7393 18.5359V19.3347H21.2832V18.5359H42.7393Z" fill="#001B55" stroke="#FCFAF7"/>
</svg>
