<?xml version="1.0" encoding="UTF-8"?>
<svg width="267px" height="37px" viewBox="0 0 267 37" version="1.1" xmlns="http://www.w3.org/2000/svg" xmlns:xlink="http://www.w3.org/1999/xlink">
    <title>Group</title>
    <g id="Page-1" stroke="none" stroke-width="1" fill="none" fill-rule="evenodd">
        <g id="Group" fill-rule="nonzero">
            <path d="M7.671875,9.63186 C7.671875,7.42266 9.462735,5.63186 11.671875,5.63186 L266.671875,5.63186 L250.114875,19.63186 L266.671875,33.63186 L11.671875,33.63186 C9.462745,33.63186 7.671875,31.84096 7.671875,29.63186 L7.671875,19.63186 L7.671875,9.63186 Z" id="Path" fill="#000000"></path>
            <path d="M61.555175,25.09766 L61.555175,15.64316 L67.925875,15.64316 L67.925875,17.29116 L63.554075,17.29116 L63.554075,19.54406 L67.598075,19.54406 L67.598075,21.19216 L63.554075,21.19216 L63.554075,23.44956 L67.944375,23.44956 L67.944375,25.09766 L61.555175,25.09766 Z M71.121675,18.00676 L72.423475,20.48576 L73.757675,18.00676 L75.775075,18.00676 L73.720675,21.55216 L75.830475,25.09766 L73.822275,25.09766 L72.423475,22.64636 L71.047775,25.09766 L69.016475,25.09766 L71.121675,21.55216 L69.090375,18.00676 L71.121675,18.00676 Z M80.714675,18.00676 L80.714675,19.48406 L76.444375,19.48406 L76.444375,18.00676 L80.714675,18.00676 Z M77.413875,16.30786 L79.380475,16.30786 L79.380475,22.91866 C79.380475,23.10026 79.408175,23.24186 79.463575,23.34336 C79.518975,23.44186 79.595975,23.51116 79.694375,23.55116 C79.795975,23.59116 79.912975,23.61116 80.045275,23.61116 C80.137575,23.61116 80.229975,23.60346 80.322275,23.58806 C80.414575,23.56956 80.485375,23.55576 80.534575,23.54656 L80.843975,25.00996 C80.745475,25.04076 80.606975,25.07616 80.428475,25.11616 C80.249975,25.15926 80.032975,25.18536 79.777475,25.19456 C79.303575,25.21306 78.888075,25.14996 78.531075,25.00536 C78.177175,24.86066 77.901675,24.63606 77.704675,24.33136 C77.507775,24.02666 77.410775,23.64196 77.413875,23.17716 L77.413875,16.30786 Z M85.151075,25.23616 C84.421675,25.23616 83.793875,25.08846 83.267575,24.79296 C82.744375,24.49446 82.341175,24.07276 82.058075,23.52806 C81.774875,22.98026 81.633375,22.33236 81.633375,21.58456 C81.633375,20.85516 81.774875,20.21496 82.058075,19.66406 C82.341175,19.11316 82.739775,18.68386 83.253775,18.37606 C83.770775,18.06826 84.377075,17.91446 85.072575,17.91446 C85.540375,17.91446 85.975875,17.98986 86.379075,18.14066 C86.785375,18.28836 87.139275,18.51146 87.440875,18.81006 C87.745575,19.10856 87.982575,19.48406 88.151775,19.93646 C88.321075,20.38576 88.405675,20.91206 88.405675,21.51526 L88.405675,22.05536 L82.418175,22.05536 L82.418175,20.83666 L86.554475,20.83666 C86.554475,20.55346 86.492975,20.30266 86.369875,20.08416 C86.246775,19.86566 86.075975,19.69486 85.857375,19.57176 C85.641975,19.44556 85.391175,19.38246 85.104975,19.38246 C84.806375,19.38246 84.541775,19.45166 84.310875,19.59016 C84.083175,19.72566 83.904675,19.90876 83.775375,20.13956 C83.646175,20.36726 83.579975,20.62126 83.576875,20.90126 L83.576875,22.06006 C83.576875,22.41086 83.641475,22.71406 83.770775,22.96946 C83.903075,23.22486 84.089275,23.42186 84.329375,23.56036 C84.569375,23.69886 84.854075,23.76816 85.183375,23.76816 C85.401975,23.76816 85.601975,23.73736 85.783575,23.67576 C85.965175,23.61426 86.120575,23.52186 86.249775,23.39876 C86.379075,23.27566 86.477575,23.12486 86.545275,22.94636 L88.364175,23.06646 C88.271875,23.50346 88.082575,23.88506 87.796375,24.21126 C87.513175,24.53446 87.146975,24.78686 86.697575,24.96836 C86.251375,25.14686 85.735875,25.23616 85.151075,25.23616 Z M91.655675,20.99826 L91.655675,25.09766 L89.689075,25.09766 L89.689075,18.00676 L91.563375,18.00676 L91.563375,19.25786 L91.646475,19.25786 C91.803475,18.84546 92.066575,18.51916 92.435875,18.27916 C92.805175,18.03596 93.252975,17.91446 93.779275,17.91446 C94.271675,17.91446 94.701075,18.02216 95.067275,18.23756 C95.433575,18.45306 95.718175,18.76076 95.921375,19.16086 C96.124475,19.55786 96.226075,20.03186 96.226075,20.58276 L96.226075,25.09766 L94.259375,25.09766 L94.259375,20.93356 C94.262475,20.49966 94.151675,20.16106 93.926975,19.91796 C93.702375,19.67176 93.393075,19.54866 92.999075,19.54866 C92.734475,19.54866 92.500575,19.60556 92.297375,19.71946 C92.097375,19.83336 91.940375,19.99956 91.826575,20.21806 C91.715775,20.43346 91.658775,20.69356 91.655675,20.99826 Z M100.388875,25.21306 C99.849875,25.21306 99.362575,25.07456 98.925475,24.79756 C98.491575,24.51756 98.146875,24.10666 97.891375,23.56496 C97.639075,23.02026 97.512875,22.35236 97.512875,21.56146 C97.512875,20.74896 97.643675,20.07336 97.905275,19.53476 C98.166875,18.99316 98.514675,18.58846 98.948575,18.32066 C99.385575,18.04986 99.863875,17.91446 100.383875,17.91446 C100.780875,17.91446 101.111875,17.98216 101.376875,18.11756 C101.644875,18.24986 101.859875,18.41606 102.022875,18.61616 C102.188875,18.81306 102.315875,19.00696 102.401875,19.19776 L102.461875,19.19776 L102.461875,15.64316 L104.423875,15.64316 L104.423875,25.09766 L102.484875,25.09766 L102.484875,23.96196 L102.401875,23.96196 C102.309875,24.15896 102.178875,24.35436 102.008875,24.54826 C101.842875,24.73916 101.625875,24.89766 101.358875,25.02376 C101.093875,25.14996 100.770875,25.21306 100.388875,25.21306 Z M101.011875,23.64806 C101.328875,23.64806 101.596875,23.56196 101.815875,23.38956 C102.036875,23.21416 102.205875,22.96946 102.322875,22.65556 C102.442875,22.34166 102.502875,21.97386 102.502875,21.55216 C102.502875,21.13056 102.444875,20.76436 102.327875,20.45346 C102.210875,20.14266 102.041875,19.90256 101.819875,19.73336 C101.598875,19.56406 101.328875,19.47936 101.011875,19.47936 C100.688875,19.47936 100.416875,19.56716 100.194875,19.74256 C99.973875,19.91796 99.805875,20.16106 99.691875,20.47196 C99.577975,20.78276 99.521075,21.14286 99.521075,21.55216 C99.521075,21.96466 99.577975,22.32936 99.691875,22.64636 C99.808875,22.96026 99.976875,23.20646 100.194875,23.38496 C100.416875,23.56036 100.688875,23.64806 101.011875,23.64806 Z M109.271875,25.23616 C108.542875,25.23616 107.914875,25.08846 107.388875,24.79296 C106.865875,24.49446 106.461875,24.07276 106.178875,23.52806 C105.895875,22.98026 105.754875,22.33236 105.754875,21.58456 C105.754875,20.85516 105.895875,20.21496 106.178875,19.66406 C106.461875,19.11316 106.860875,18.68386 107.374875,18.37606 C107.891875,18.06826 108.497875,17.91446 109.193875,17.91446 C109.661875,17.91446 110.096875,17.98986 110.499875,18.14066 C110.906875,18.28836 111.259875,18.51146 111.561875,18.81006 C111.866875,19.10856 112.103875,19.48406 112.272875,19.93646 C112.441875,20.38576 112.526875,20.91206 112.526875,21.51526 L112.526875,22.05536 L106.538875,22.05536 L106.538875,20.83666 L110.675875,20.83666 C110.675875,20.55346 110.613875,20.30266 110.490875,20.08416 C110.367875,19.86566 110.196875,19.69486 109.978875,19.57176 C109.762875,19.44556 109.511875,19.38246 109.225875,19.38246 C108.927875,19.38246 108.662875,19.45166 108.431875,19.59016 C108.203875,19.72566 108.025875,19.90876 107.896875,20.13956 C107.766875,20.36726 107.700875,20.62126 107.697875,20.90126 L107.697875,22.06006 C107.697875,22.41086 107.762875,22.71406 107.891875,22.96946 C108.023875,23.22486 108.210875,23.42186 108.450875,23.56036 C108.690875,23.69886 108.974875,23.76816 109.304875,23.76816 C109.522875,23.76816 109.722875,23.73736 109.904875,23.67576 C110.085875,23.61426 110.241875,23.52186 110.370875,23.39876 C110.499875,23.27566 110.598875,23.12486 110.665875,22.94636 L112.484875,23.06646 C112.392875,23.50346 112.203875,23.88506 111.917875,24.21126 C111.633875,24.53446 111.267875,24.78686 110.818875,24.96836 C110.372875,25.14686 109.856875,25.23616 109.271875,25.23616 Z M116.422875,25.21306 C115.884875,25.21306 115.396875,25.07456 114.959875,24.79756 C114.525875,24.51756 114.180875,24.10666 113.925875,23.56496 C113.672875,23.02026 113.546875,22.35236 113.546875,21.56146 C113.546875,20.74896 113.677875,20.07336 113.939875,19.53476 C114.200875,18.99316 114.548875,18.58846 114.982875,18.32066 C115.419875,18.04986 115.898875,17.91446 116.418875,17.91446 C116.815875,17.91446 117.145875,17.98216 117.410875,18.11756 C117.678875,18.24986 117.893875,18.41606 118.056875,18.61616 C118.223875,18.81306 118.349875,19.00696 118.435875,19.19776 L118.495875,19.19776 L118.495875,15.64316 L120.457875,15.64316 L120.457875,25.09766 L118.518875,25.09766 L118.518875,23.96196 L118.435875,23.96196 C118.343875,24.15896 118.212875,24.35436 118.043875,24.54826 C117.876875,24.73916 117.659875,24.89766 117.392875,25.02376 C117.127875,25.14996 116.804875,25.21306 116.422875,25.21306 Z M117.045875,23.64806 C117.362875,23.64806 117.630875,23.56196 117.849875,23.38956 C118.070875,23.21416 118.240875,22.96946 118.357875,22.65556 C118.477875,22.34166 118.537875,21.97386 118.537875,21.55216 C118.537875,21.13056 118.478875,20.76436 118.361875,20.45346 C118.244875,20.14266 118.075875,19.90256 117.853875,19.73336 C117.632875,19.56406 117.362875,19.47936 117.045875,19.47936 C116.722875,19.47936 116.450875,19.56716 116.228875,19.74256 C116.007875,19.91796 115.839875,20.16106 115.725875,20.47196 C115.611875,20.78276 115.554875,21.14286 115.554875,21.55216 C115.554875,21.96466 115.611875,22.32936 115.725875,22.64636 C115.842875,22.96026 116.010875,23.20646 116.228875,23.38496 C116.450875,23.56036 116.722875,23.64806 117.045875,23.64806 Z M125.120875,25.09766 L125.120875,15.64316 L128.905875,15.64316 C129.601875,15.64316 130.181875,15.74626 130.646875,15.95246 C131.110875,16.15866 131.460875,16.44486 131.694875,16.81106 C131.927875,17.17426 132.044875,17.59276 132.044875,18.06676 C132.044875,18.43606 131.971875,18.76076 131.823875,19.04086 C131.675875,19.31786 131.472875,19.54556 131.213875,19.72406 C130.958875,19.89946 130.666875,20.02416 130.336875,20.09806 L130.336875,20.19036 C130.696875,20.20576 131.033875,20.30726 131.347875,20.49506 C131.664875,20.68276 131.921875,20.94586 132.118875,21.28446 C132.315875,21.61996 132.414875,22.01996 132.414875,22.48476 C132.414875,22.98636 132.289875,23.43416 132.040875,23.82816 C131.794875,24.21896 131.429875,24.52826 130.946875,24.75606 C130.462875,24.98376 129.867875,25.09766 129.159875,25.09766 L125.120875,25.09766 Z M127.119875,23.46346 L128.748875,23.46346 C129.305875,23.46346 129.712875,23.35726 129.967875,23.14486 C130.222875,22.92946 130.350875,22.64326 130.350875,22.28626 C130.350875,22.02466 130.287875,21.79376 130.161875,21.59376 C130.035875,21.39366 129.855875,21.23676 129.621875,21.12286 C129.390875,21.00896 129.114875,20.95206 128.794875,20.95206 L127.119875,20.95206 L127.119875,23.46346 Z M127.119875,19.59946 L128.601875,19.59946 C128.874875,19.59946 129.118875,19.55176 129.330875,19.45636 C129.545875,19.35786 129.715875,19.21936 129.838875,19.04086 C129.964875,18.86236 130.027875,18.64846 130.027875,18.39916 C130.027875,18.05756 129.905875,17.78206 129.662875,17.57276 C129.422875,17.36356 129.081875,17.25886 128.637875,17.25886 L127.119875,17.25886 L127.119875,19.59946 Z M135.644875,15.64316 L135.644875,25.09766 L133.677875,25.09766 L133.677875,15.64316 L135.644875,15.64316 Z M139.241875,25.23156 C138.789875,25.23156 138.386875,25.15306 138.032875,24.99606 C137.678875,24.83606 137.398875,24.60066 137.192875,24.28976 C136.989875,23.97586 136.887875,23.58496 136.887875,23.11716 C136.887875,22.72326 136.959875,22.39236 137.104875,22.12466 C137.249875,21.85686 137.446875,21.64146 137.695875,21.47836 C137.944875,21.31526 138.227875,21.19216 138.544875,21.10906 C138.864875,21.02596 139.200875,20.96746 139.551875,20.93356 C139.963875,20.89056 140.296875,20.85046 140.548875,20.81356 C140.800875,20.77356 140.983875,20.71506 141.097875,20.63816 C141.211875,20.56116 141.268875,20.44736 141.268875,20.29656 L141.268875,20.26886 C141.268875,19.97646 141.176875,19.75026 140.991875,19.59016 C140.810875,19.43016 140.551875,19.35016 140.216875,19.35016 C139.862875,19.35016 139.580875,19.42866 139.371875,19.58556 C139.161875,19.73946 139.023875,19.93336 138.955875,20.16726 L137.136875,20.01956 C137.229875,19.58866 137.410875,19.21626 137.681875,18.90236 C137.952875,18.58536 138.301875,18.34226 138.729875,18.17296 C139.160875,18.00056 139.659875,17.91446 140.225875,17.91446 C140.619875,17.91446 140.996875,17.96056 141.356875,18.05296 C141.719875,18.14526 142.041875,18.28836 142.321875,18.48226 C142.604875,18.67616 142.827875,18.92546 142.990875,19.23016 C143.153875,19.53176 143.235875,19.89336 143.235875,20.31496 L143.235875,25.09766 L141.370875,25.09766 L141.370875,24.11436 L141.314875,24.11436 C141.200875,24.33596 141.048875,24.53136 140.857875,24.70066 C140.666875,24.86686 140.437875,24.99766 140.169875,25.09306 C139.902875,25.18536 139.592875,25.23156 139.241875,25.23156 Z M139.805875,23.87426 C140.094875,23.87426 140.349875,23.81736 140.571875,23.70346 C140.793875,23.58656 140.967875,23.42956 141.093875,23.23256 C141.219875,23.03566 141.282875,22.81246 141.282875,22.56326 L141.282875,21.81076 C141.220875,21.85076 141.136875,21.88766 141.028875,21.92156 C140.923875,21.95226 140.805875,21.98156 140.673875,22.00926 C140.540875,22.03386 140.408875,22.05696 140.276875,22.07846 C140.143875,22.09696 140.023875,22.11386 139.915875,22.12926 C139.685875,22.16316 139.483875,22.21696 139.311875,22.29086 C139.138875,22.36466 139.005875,22.46476 138.909875,22.59096 C138.814875,22.71406 138.766875,22.86786 138.766875,23.05256 C138.766875,23.32036 138.863875,23.52496 139.057875,23.66656 C139.254875,23.80506 139.503875,23.87426 139.805875,23.87426 Z M147.964875,25.23616 C147.238875,25.23616 146.613875,25.08226 146.090875,24.77446 C145.570875,24.46366 145.170875,24.03276 144.890875,23.48186 C144.613875,22.93096 144.474875,22.29696 144.474875,21.57986 C144.474875,20.85356 144.614875,20.21646 144.894875,19.66866 C145.178875,19.11776 145.579875,18.68846 146.099875,18.38066 C146.619875,18.06986 147.238875,17.91446 147.955875,17.91446 C148.574875,17.91446 149.115875,18.02676 149.580875,18.25146 C150.045875,18.47606 150.413875,18.79156 150.683875,19.19776 C150.954875,19.60406 151.104875,20.08106 151.131875,20.62886 L149.275875,20.62886 C149.223875,20.27496 149.085875,19.99026 148.860875,19.77486 C148.638875,19.55636 148.347875,19.44706 147.987875,19.44706 C147.683875,19.44706 147.417875,19.53016 147.189875,19.69636 C146.964875,19.85946 146.789875,20.09806 146.662875,20.41196 C146.536875,20.72586 146.473875,21.10596 146.473875,21.55216 C146.473875,22.00466 146.535875,22.38936 146.658875,22.70636 C146.784875,23.02336 146.961875,23.26496 147.189875,23.43116 C147.417875,23.59726 147.683875,23.68036 147.987875,23.68036 C148.212875,23.68036 148.414875,23.63426 148.592875,23.54186 C148.774875,23.44956 148.923875,23.31566 149.040875,23.14026 C149.160875,22.96176 149.238875,22.74786 149.275875,22.49856 L151.131875,22.49856 C151.100875,23.04026 150.953875,23.51726 150.688875,23.92966 C150.426875,24.33906 150.065875,24.65906 149.603875,24.88996 C149.142875,25.12076 148.595875,25.23616 147.964875,25.23616 Z M154.172875,23.05716 L154.177875,20.69816 L154.463875,20.69816 L156.734875,18.00676 L158.992875,18.00676 L155.940875,21.57066 L155.474875,21.57066 L154.172875,23.05716 Z M152.390875,25.09766 L152.390875,15.64316 L154.357875,15.64316 L154.357875,25.09766 L152.390875,25.09766 Z M156.822875,25.09766 L154.736875,22.00926 L156.047875,20.61966 L159.126875,25.09766 L156.822875,25.09766 Z M163.002875,25.09766 L163.002875,15.64316 L169.262875,15.64316 L169.262875,17.29116 L165.001875,17.29116 L165.001875,19.54406 L168.847875,19.54406 L168.847875,21.19216 L165.001875,21.19216 L165.001875,25.09766 L163.002875,25.09766 Z M170.456875,25.09766 L170.456875,18.00676 L172.362875,18.00676 L172.362875,19.24396 L172.436875,19.24396 C172.566875,18.80386 172.783875,18.47146 173.087875,18.24676 C173.392875,18.01906 173.743875,17.90516 174.140875,17.90516 C174.238875,17.90516 174.344875,17.91136 174.458875,17.92366 C174.572875,17.93596 174.672875,17.95286 174.758875,17.97446 L174.758875,19.71946 C174.666875,19.69176 174.538875,19.66716 174.375875,19.64556 C174.212875,19.62406 174.063875,19.61326 173.927875,19.61326 C173.638875,19.61326 173.380875,19.67636 173.152875,19.80256 C172.927875,19.92566 172.749875,20.09806 172.616875,20.31956 C172.487875,20.54116 172.422875,20.79666 172.422875,21.08596 L172.422875,25.09766 L170.456875,25.09766 Z M175.775875,25.09766 L175.775875,18.00676 L177.742875,18.00676 L177.742875,25.09766 L175.775875,25.09766 Z M176.763875,17.09266 C176.471875,17.09266 176.220875,16.99576 176.011875,16.80186 C175.804875,16.60486 175.701875,16.36946 175.701875,16.09556 C175.701875,15.82466 175.804875,15.59236 176.011875,15.39846 C176.220875,15.20146 176.471875,15.10296 176.763875,15.10296 C177.055875,15.10296 177.305875,15.20146 177.511875,15.39846 C177.720875,15.59236 177.825875,15.82466 177.825875,16.09556 C177.825875,16.36946 177.720875,16.60486 177.511875,16.80186 C177.305875,16.99576 177.055875,17.09266 176.763875,17.09266 Z M181.930875,25.21306 C181.391875,25.21306 180.904875,25.07456 180.467875,24.79756 C180.033875,24.51756 179.688875,24.10666 179.433875,23.56496 C179.180875,23.02026 179.054875,22.35236 179.054875,21.56146 C179.054875,20.74896 179.185875,20.07336 179.446875,19.53476 C179.708875,18.99316 180.056875,18.58846 180.490875,18.32066 C180.927875,18.04986 181.405875,17.91446 181.925875,17.91446 C182.322875,17.91446 182.653875,17.98216 182.918875,18.11756 C183.186875,18.24986 183.401875,18.41606 183.564875,18.61616 C183.730875,18.81306 183.857875,19.00696 183.943875,19.19776 L184.003875,19.19776 L184.003875,15.64316 L185.965875,15.64316 L185.965875,25.09766 L184.026875,25.09766 L184.026875,23.96196 L183.943875,23.96196 C183.851875,24.15896 183.720875,24.35436 183.550875,24.54826 C183.384875,24.73916 183.167875,24.89766 182.900875,25.02376 C182.635875,25.14996 182.312875,25.21306 181.930875,25.21306 Z M182.553875,23.64806 C182.870875,23.64806 183.138875,23.56196 183.357875,23.38956 C183.578875,23.21416 183.747875,22.96946 183.864875,22.65556 C183.984875,22.34166 184.044875,21.97386 184.044875,21.55216 C184.044875,21.13056 183.986875,20.76436 183.869875,20.45346 C183.752875,20.14266 183.583875,19.90256 183.361875,19.73336 C183.140875,19.56406 182.870875,19.47936 182.553875,19.47936 C182.230875,19.47936 181.958875,19.56716 181.736875,19.74256 C181.515875,19.91796 181.347875,20.16106 181.233875,20.47196 C181.119875,20.78276 181.062875,21.14286 181.062875,21.55216 C181.062875,21.96466 181.119875,22.32936 181.233875,22.64636 C181.350875,22.96026 181.518875,23.20646 181.736875,23.38496 C181.958875,23.56036 182.230875,23.64806 182.553875,23.64806 Z M189.604875,25.23156 C189.151875,25.23156 188.748875,25.15306 188.394875,24.99606 C188.040875,24.83606 187.760875,24.60066 187.554875,24.28976 C187.351875,23.97586 187.249875,23.58496 187.249875,23.11716 C187.249875,22.72326 187.322875,22.39236 187.466875,22.12466 C187.611875,21.85686 187.808875,21.64146 188.057875,21.47836 C188.307875,21.31526 188.590875,21.19216 188.907875,21.10906 C189.227875,21.02596 189.562875,20.96746 189.913875,20.93356 C190.326875,20.89056 190.658875,20.85046 190.910875,20.81356 C191.163875,20.77356 191.346875,20.71506 191.460875,20.63816 C191.573875,20.56116 191.630875,20.44736 191.630875,20.29656 L191.630875,20.26886 C191.630875,19.97646 191.538875,19.75026 191.353875,19.59016 C191.172875,19.43016 190.913875,19.35016 190.578875,19.35016 C190.224875,19.35016 189.942875,19.42866 189.733875,19.58556 C189.524875,19.73946 189.385875,19.93336 189.318875,20.16726 L187.499875,20.01956 C187.591875,19.58866 187.773875,19.21626 188.043875,18.90236 C188.314875,18.58536 188.664875,18.34226 189.091875,18.17296 C189.522875,18.00056 190.021875,17.91446 190.587875,17.91446 C190.981875,17.91446 191.358875,17.96056 191.718875,18.05296 C192.081875,18.14526 192.403875,18.28836 192.683875,18.48226 C192.966875,18.67616 193.189875,18.92546 193.352875,19.23016 C193.515875,19.53176 193.597875,19.89336 193.597875,20.31496 L193.597875,25.09766 L191.732875,25.09766 L191.732875,24.11436 L191.677875,24.11436 C191.563875,24.33596 191.410875,24.53136 191.220875,24.70066 C191.029875,24.86686 190.799875,24.99766 190.532875,25.09306 C190.264875,25.18536 189.955875,25.23156 189.604875,25.23156 Z M190.167875,23.87426 C190.456875,23.87426 190.712875,23.81736 190.933875,23.70346 C191.155875,23.58656 191.329875,23.42956 191.455875,23.23256 C191.581875,23.03566 191.644875,22.81246 191.644875,22.56326 L191.644875,21.81076 C191.583875,21.85076 191.498875,21.88766 191.390875,21.92156 C191.286875,21.95226 191.167875,21.98156 191.035875,22.00926 C190.903875,22.03386 190.770875,22.05696 190.638875,22.07846 C190.506875,22.09696 190.386875,22.11386 190.278875,22.12926 C190.047875,22.16316 189.845875,22.21696 189.673875,22.29086 C189.501875,22.36466 189.367875,22.46476 189.271875,22.59096 C189.176875,22.71406 189.128875,22.86786 189.128875,23.05256 C189.128875,23.32036 189.225875,23.52496 189.419875,23.66656 C189.616875,23.80506 189.865875,23.87426 190.167875,23.87426 Z M196.083875,27.75676 C195.834875,27.75676 195.600875,27.73676 195.381875,27.69676 C195.166875,27.65976 194.987875,27.61206 194.846875,27.55366 L195.289875,26.08556 C195.520875,26.15636 195.728875,26.19486 195.912875,26.20096 C196.100875,26.20716 196.262875,26.16406 196.397875,26.07176 C196.535875,25.97936 196.648875,25.82246 196.734875,25.60086 L196.849875,25.30076 L194.306875,18.00676 L196.374875,18.00676 L197.842875,23.21416 L197.916875,23.21416 L199.398875,18.00676 L201.480875,18.00676 L198.724875,25.86396 C198.591875,26.24566 198.411875,26.57806 198.184875,26.86116 C197.959875,27.14736 197.674875,27.36746 197.329875,27.52136 C196.985875,27.67826 196.569875,27.75676 196.083875,27.75676 Z M210.661875,18.36226 C210.624875,17.98986 210.465875,17.70056 210.185875,17.49436 C209.905875,17.28816 209.525875,17.18506 209.045875,17.18506 C208.719875,17.18506 208.443875,17.23116 208.219875,17.32356 C207.994875,17.41276 207.822875,17.53736 207.702875,17.69746 C207.585875,17.85746 207.526875,18.03906 207.526875,18.24216 C207.520875,18.41146 207.555875,18.55916 207.632875,18.68536 C207.712875,18.81156 207.822875,18.92086 207.960875,19.01316 C208.099875,19.10236 208.259875,19.18086 208.440875,19.24856 C208.622875,19.31326 208.816875,19.36866 209.022875,19.41476 L209.871875,19.61786 C210.284875,19.71026 210.662875,19.83336 211.007875,19.98726 C211.352875,20.14106 211.650875,20.33036 211.903875,20.55506 C212.155875,20.77976 212.350875,21.04436 212.489875,21.34906 C212.630875,21.65376 212.703875,22.00306 212.706875,22.39706 C212.703875,22.97566 212.555875,23.47726 212.263875,23.90196 C211.973875,24.32366 211.555875,24.65136 211.007875,24.88526 C210.462875,25.11616 209.805875,25.23156 209.036875,25.23156 C208.272875,25.23156 207.608875,25.11456 207.041875,24.88066 C206.478875,24.64676 206.038875,24.30056 205.721875,23.84196 C205.407875,23.38036 205.242875,22.80946 205.227875,22.12926 L207.161875,22.12926 C207.183875,22.44626 207.274875,22.71096 207.434875,22.92326 C207.597875,23.13256 207.814875,23.29106 208.085875,23.39876 C208.359875,23.50346 208.668875,23.55576 209.013875,23.55576 C209.351875,23.55576 209.645875,23.50656 209.894875,23.40806 C210.147875,23.30956 210.342875,23.17256 210.481875,22.99716 C210.619875,22.82176 210.688875,22.62016 210.688875,22.39236 C210.688875,22.18006 210.625875,22.00156 210.499875,21.85686 C210.376875,21.71226 210.194875,21.58916 209.954875,21.48756 C209.717875,21.38606 209.427875,21.29366 209.082875,21.21056 L208.052875,20.95206 C207.255875,20.75816 206.626875,20.45506 206.164875,20.04266 C205.703875,19.63026 205.473875,19.07466 205.476875,18.37606 C205.473875,17.80366 205.626875,17.30346 205.933875,16.87576 C206.244875,16.44796 206.671875,16.11396 207.212875,15.87396 C207.754875,15.63386 208.369875,15.51386 209.059875,15.51386 C209.760875,15.51386 210.373875,15.63386 210.896875,15.87396 C211.422875,16.11396 211.832875,16.44796 212.124875,16.87576 C212.417875,17.30346 212.567875,17.79896 212.577875,18.36226 L210.661875,18.36226 Z M216.035875,25.23156 C215.583875,25.23156 215.180875,25.15306 214.826875,24.99606 C214.472875,24.83606 214.192875,24.60066 213.986875,24.28976 C213.783875,23.97586 213.681875,23.58496 213.681875,23.11716 C213.681875,22.72326 213.753875,22.39236 213.898875,22.12466 C214.043875,21.85686 214.240875,21.64146 214.489875,21.47836 C214.738875,21.31526 215.021875,21.19216 215.338875,21.10906 C215.658875,21.02596 215.994875,20.96746 216.345875,20.93356 C216.757875,20.89056 217.090875,20.85046 217.342875,20.81356 C217.594875,20.77356 217.777875,20.71506 217.891875,20.63816 C218.005875,20.56116 218.062875,20.44736 218.062875,20.29656 L218.062875,20.26886 C218.062875,19.97646 217.970875,19.75026 217.785875,19.59016 C217.603875,19.43016 217.345875,19.35016 217.010875,19.35016 C216.656875,19.35016 216.374875,19.42866 216.165875,19.58556 C215.955875,19.73946 215.817875,19.93336 215.749875,20.16726 L213.930875,20.01956 C214.023875,19.58866 214.204875,19.21626 214.475875,18.90236 C214.746875,18.58536 215.095875,18.34226 215.523875,18.17296 C215.954875,18.00056 216.452875,17.91446 217.019875,17.91446 C217.413875,17.91446 217.790875,17.96056 218.150875,18.05296 C218.513875,18.14526 218.835875,18.28836 219.115875,18.48226 C219.398875,18.67616 219.621875,18.92546 219.784875,19.23016 C219.947875,19.53176 220.029875,19.89336 220.029875,20.31496 L220.029875,25.09766 L218.164875,25.09766 L218.164875,24.11436 L218.108875,24.11436 C217.994875,24.33596 217.842875,24.53136 217.651875,24.70066 C217.460875,24.86686 217.231875,24.99766 216.963875,25.09306 C216.696875,25.18536 216.386875,25.23156 216.035875,25.23156 Z M216.599875,23.87426 C216.888875,23.87426 217.143875,23.81736 217.365875,23.70346 C217.587875,23.58656 217.760875,23.42956 217.887875,23.23256 C218.013875,23.03566 218.076875,22.81246 218.076875,22.56326 L218.076875,21.81076 C218.014875,21.85076 217.930875,21.88766 217.822875,21.92156 C217.717875,21.95226 217.599875,21.98156 217.467875,22.00926 C217.334875,22.03386 217.202875,22.05696 217.070875,22.07846 C216.937875,22.09696 216.817875,22.11386 216.709875,22.12926 C216.479875,22.16316 216.277875,22.21696 216.105875,22.29086 C215.932875,22.36466 215.798875,22.46476 215.703875,22.59096 C215.608875,22.71406 215.560875,22.86786 215.560875,23.05256 C215.560875,23.32036 215.657875,23.52496 215.851875,23.66656 C216.048875,23.80506 216.297875,23.87426 216.599875,23.87426 Z M223.521875,15.64316 L223.521875,25.09766 L221.554875,25.09766 L221.554875,15.64316 L223.521875,15.64316 Z M228.328875,25.23616 C227.599875,25.23616 226.971875,25.08846 226.444875,24.79296 C225.921875,24.49446 225.518875,24.07276 225.235875,23.52806 C224.952875,22.98026 224.810875,22.33236 224.810875,21.58456 C224.810875,20.85516 224.952875,20.21496 225.235875,19.66406 C225.518875,19.11316 225.917875,18.68386 226.431875,18.37606 C226.948875,18.06826 227.554875,17.91446 228.249875,17.91446 C228.717875,17.91446 229.153875,17.98986 229.556875,18.14066 C229.962875,18.28836 230.316875,18.51146 230.618875,18.81006 C230.922875,19.10856 231.159875,19.48406 231.329875,19.93646 C231.498875,20.38576 231.583875,20.91206 231.583875,21.51526 L231.583875,22.05536 L225.595875,22.05536 L225.595875,20.83666 L229.731875,20.83666 C229.731875,20.55346 229.670875,20.30266 229.547875,20.08416 C229.424875,19.86566 229.253875,19.69486 229.034875,19.57176 C228.819875,19.44556 228.568875,19.38246 228.282875,19.38246 C227.983875,19.38246 227.719875,19.45166 227.488875,19.59016 C227.260875,19.72566 227.082875,19.90876 226.952875,20.13956 C226.823875,20.36726 226.757875,20.62126 226.754875,20.90126 L226.754875,22.06006 C226.754875,22.41086 226.818875,22.71406 226.948875,22.96946 C227.080875,23.22486 227.266875,23.42186 227.506875,23.56036 C227.746875,23.69886 228.031875,23.76816 228.360875,23.76816 C228.579875,23.76816 228.779875,23.73736 228.960875,23.67576 C229.142875,23.61426 229.297875,23.52186 229.427875,23.39876 C229.556875,23.27566 229.654875,23.12486 229.722875,22.94636 L231.541875,23.06646 C231.449875,23.50346 231.259875,23.88506 230.973875,24.21126 C230.690875,24.53446 230.324875,24.78686 229.874875,24.96836 C229.428875,25.14686 228.913875,25.23616 228.328875,25.23616 Z" id="Shape" fill="#FFFFFF"></path>
            <path d="M26.115275,3.01126 L52.045875,3.01126 C53.594575,3.01126 54.851375,4.26796 54.851375,5.81666 L54.851375,14.86526 C54.851375,26.42516 45.465875,35.80956 33.907075,35.80956 L7.975395,35.80956 C6.426645,35.80956 5.169925,34.55276 5.169925,33.00406 L5.169925,23.95546 C5.169925,12.39556 14.555375,3.01126 26.114175,3.01126 L26.115275,3.01126 Z" id="Path" fill="#CBC4CC"></path>
            <path d="M5.675235,19.36866 C5.344925,20.84526 5.169925,22.37976 5.169925,23.95586 L5.169925,33.00446 C5.169925,34.55426 6.425545,35.80986 7.975395,35.80986 L33.905975,35.80986 C43.926975,35.80986 52.302875,28.77166 54.363475,19.36866 L5.675235,19.36866 Z" id="Path" fill="#FCFDFD"></path>
            <path d="M10.075675,19.33096 C15.187175,19.33096 19.330975,15.18716 19.330975,10.07566 C19.330975,4.96406 15.187175,0.82036 10.075675,0.82036 C4.964055,0.82036 0.820315,4.96406 0.820315,10.07566 C0.820315,15.18716 4.964055,19.33096 10.075675,19.33096 Z" id="Path" fill="#D6E4FF"></path>
            <path d="M33.583975,15.88476 C33.680175,15.92086 33.778675,15.93836 33.875975,15.93836 C34.206275,15.93836 34.518075,15.73716 34.642675,15.41016 L34.790375,15.02186 L37.315875,15.02186 L37.461275,15.40796 C37.620975,15.83226 38.094575,16.04556 38.518975,15.88586 C38.943375,15.72626 39.156575,15.25266 38.996975,14.82826 L36.945075,9.39226 C36.941775,9.38466 36.939575,9.37696 36.936275,9.36936 C36.789775,9.01386 36.446275,8.78416 36.062375,8.78416 C35.677375,8.78416 35.333975,9.01496 35.188475,9.37156 C35.186275,9.37806 35.184075,9.38356 35.180875,9.39016 L33.110375,14.82606 C32.949575,15.24936 33.161775,15.72296 33.585075,15.88476 L33.583975,15.88476 Z M36.059075,11.69026 L36.696775,13.38126 L35.414875,13.38126 L36.059075,11.69026 Z" id="Shape" fill="#000000"></path>
            <path d="M29.019275,15.92196 C29.078375,15.93186 29.117775,15.93946 29.732375,15.93946 C30.028875,15.93946 30.460875,15.93836 31.093075,15.93406 C31.545875,15.93186 31.911175,15.56216 31.9089849,15.10936 C31.906775,14.65766 31.539275,14.29336 31.088675,14.29336 L31.084275,14.29336 C30.708075,14.29556 30.310975,14.29666 29.978475,14.29776 L29.978475,9.60446 C29.978475,9.15166 29.610975,8.78416 29.158175,8.78416 C28.705375,8.78416 28.337875,9.15166 28.337875,9.60446 L28.337875,15.11376 C28.337875,15.51296 28.625575,15.85416 29.019275,15.92196 Z" id="Path" fill="#000000"></path>
            <path d="M48.030175,15.93876 C48.482975,15.93876 48.850475,15.57126 48.850475,15.11846 L48.850475,13.99956 L50.622375,15.70906 C50.782075,15.86226 50.986575,15.93876 51.192175,15.93876 C51.397775,15.93876 51.622075,15.85456 51.782775,15.68826 C52.097775,15.36236 52.087975,14.84286 51.762075,14.52896 L49.403875,12.25396 L51.552075,10.27976 C51.885675,9.97346 51.907475,9.45396 51.601275,9.12036 C51.294975,8.78676 50.775475,8.76486 50.441875,9.07116 L48.851575,10.53346 L48.851575,9.60596 C48.851575,9.15316 48.484075,8.78566 48.031275,8.78566 C47.578475,8.78566 47.210975,9.15316 47.210975,9.60596 L47.210975,15.11956 C47.210975,15.57236 47.578475,15.93986 48.031275,15.93986 L48.030175,15.93876 Z" id="Path" fill="#000000"></path>
            <path d="M22.999975,15.93836 L23.003275,15.93836 C23.003275,15.93836 24.475475,15.93186 24.881275,15.93186 C26.152175,15.93186 27.185775,14.89826 27.185775,13.62726 C27.185775,12.94476 26.886075,12.33226 26.412475,11.91016 C26.588575,11.60386 26.690275,11.25056 26.690275,10.87326 C26.690275,9.72156 25.752975,8.78416 24.601275,8.78416 L22.999975,8.78416 C22.547175,8.78416 22.179675,9.15166 22.179675,9.60446 L22.179675,15.11806 C22.179675,15.33686 22.266075,15.54576 22.421375,15.69886 C22.575675,15.85196 22.783475,15.93836 22.999975,15.93836 Z M24.881275,14.29126 C24.683275,14.29126 24.231575,14.29226 23.820275,14.29446 L23.820275,12.96446 L24.022675,12.96446 L24.881275,12.96446 C25.247675,12.96446 25.545175,13.26196 25.545175,13.62836 C25.545175,13.99476 25.247675,14.29226 24.881275,14.29226 L24.881275,14.29126 Z M24.602375,10.42476 C24.849575,10.42476 25.050775,10.62606 25.050775,10.87326 C25.050775,11.12046 24.849575,11.32166 24.602375,11.32166 C24.484175,11.32166 24.263275,11.32166 24.021575,11.32276 L23.821375,11.32276 L23.821375,10.42476 L24.602375,10.42476 Z" id="Shape" fill="#000000"></path>
            <path d="M43.445975,15.93756 C44.237775,15.93756 44.949875,15.67616 45.504375,15.18286 C45.613775,15.08556 45.716575,14.97946 45.811675,14.86566 C46.102675,14.51786 46.056675,14.00056 45.709975,13.70956 C45.363275,13.41866 44.844875,13.46456 44.553875,13.81126 C44.510175,13.86376 44.463075,13.91196 44.412775,13.95676 C44.160175,14.18206 43.834175,14.29696 43.445975,14.29696 C42.378475,14.29696 41.508875,13.42846 41.508875,12.35986 C41.508875,11.29126 42.377375,10.42286 43.445975,10.42286 C43.834175,10.42286 44.208275,10.53656 44.527675,10.75316 C44.902775,11.00696 45.412475,10.90846 45.666275,10.53226 C45.919975,10.15706 45.821575,9.64736 45.445275,9.39366 C44.853575,8.99336 44.161275,8.78226 43.444875,8.78226 C41.472775,8.78226 39.867175,10.38676 39.867175,12.35986 C39.867175,14.33306 41.471675,15.93756 43.444875,15.93756 L43.445975,15.93756 Z" id="Path" fill="#000000"></path>
            <path d="M37.271275,23.63206 C37.267975,23.62446 37.265775,23.61676 37.262475,23.61026 C37.111575,23.24276 36.757175,23.00536 36.359075,23.00536 C35.960875,23.00536 35.606575,23.24386 35.456675,23.61236 C35.454475,23.61896 35.451275,23.62446 35.449075,23.63096 L32.862275,30.42316 C32.701575,30.84646 32.913775,31.32006 33.336975,31.48196 C33.433275,31.51806 33.531675,31.53556 33.629075,31.53556 C33.959375,31.53556 34.271075,31.33426 34.395775,31.00726 L34.838775,29.84346 L37.862975,29.84346 L38.301575,31.00506 C38.461275,31.42946 38.934775,31.64276 39.359175,31.48306 C39.783575,31.32336 39.996875,30.84976 39.837175,30.42536 L37.273375,23.63206 L37.271275,23.63206 Z M35.463275,28.20176 L36.357975,25.85346 L37.243875,28.20176 L35.463275,28.20176 Z" id="Shape" fill="#000000"></path>
            <path d="M22.808575,23.00536 C22.355775,23.00536 21.988275,23.37286 21.988275,23.82566 L21.988275,30.71526 C21.988275,31.16806 22.355775,31.53556 22.808575,31.53556 C23.261375,31.53556 23.628875,31.16806 23.628875,30.71526 L23.628875,23.82566 C23.628875,23.37286 23.261375,23.00536 22.808575,23.00536 Z" id="Path" fill="#000000"></path>
            <path d="M12.246175,24.57866 C12.698975,24.57866 13.066475,24.21116 13.066475,23.75826 C13.066475,23.30546 12.698975,22.93796 12.246175,22.93796 L9.474605,22.93796 C9.021795,22.93796 8.654295,23.30546 8.654295,23.75826 L8.654295,30.59756 C8.654295,31.05036 9.021795,31.41786 9.474605,31.41786 C9.927375,31.41786 10.294875,31.05036 10.294875,30.59756 L10.294875,27.93316 L12.026375,27.93316 C12.479175,27.93316 12.846675,27.56566 12.846675,27.11286 C12.846675,26.66006 12.479175,26.29256 12.026375,26.29256 L10.294875,26.29256 L10.294875,24.57866 L12.246175,24.57866 Z" id="Path" fill="#000000"></path>
            <path d="M28.215575,22.95066 L26.322275,22.95066 C26.104575,22.95066 25.895675,23.03706 25.741475,23.19136 C25.587275,23.34556 25.500875,23.55446 25.5019646,23.77206 L25.5019646,23.77756 L25.5019646,30.34776 C25.5019646,30.40346 25.507475,30.45816 25.518375,30.51066 C25.531475,30.70976 25.615675,30.89786 25.757875,31.03896 C25.911075,31.19206 26.118875,31.27736 26.335375,31.27736 L26.338675,31.27736 C26.395575,31.27736 27.746375,31.27196 28.285575,31.26206 C30.284975,31.22706 31.736375,29.48256 31.736375,27.11346 C31.736375,24.62306 30.322075,22.95066 28.215575,22.95066 Z M28.257075,29.62146 C28.003375,29.62586 27.554975,29.62916 27.153575,29.63236 C27.151375,28.84166 27.145875,25.41386 27.144775,24.59136 L28.216675,24.59136 C29.602475,24.59136 30.096775,25.89396 30.096775,27.11346 C30.096775,28.82416 29.173675,29.60506 28.258175,29.62146 L28.257075,29.62146 Z" id="Shape" fill="#000000"></path>
            <path d="M45.147375,23.06296 C44.767875,22.81576 44.259275,22.92296 44.012075,23.30246 L42.515875,25.60046 L41.003175,23.28386 C40.754875,22.90436 40.247375,22.79826 39.867875,23.04546 C39.488375,23.29266 39.382275,23.80126 39.629475,24.18076 L41.696675,27.34606 L41.688975,30.62076 C41.688975,31.07356 42.054275,31.44216 42.507075,31.44326 L42.509275,31.44326 C42.960975,31.44326 43.328475,31.07686 43.329575,30.62516 L43.337275,27.34826 L45.388075,24.19826 C45.635275,23.81876 45.528075,23.31016 45.148475,23.06296 L45.147375,23.06296 Z" id="Path" fill="#000000"></path>
            <path d="M20.229175,25.45896 C20.229175,24.01956 19.012975,22.84816 17.516675,22.84816 L15.685775,22.84816 C15.685775,22.84816 15.685775,22.84816 15.684675,22.84816 C15.683575,22.84816 15.684675,22.84816 15.683575,22.84816 C15.230775,22.84816 14.863275,23.21566 14.863275,23.66846 L14.863275,30.55796 C14.863275,31.01076 15.230775,31.37826 15.683575,31.37826 C16.136375,31.37826 16.503875,31.01076 16.503875,30.55796 L16.503875,28.49956 L18.793175,31.10046 C18.954975,31.28426 19.181375,31.37826 19.408875,31.37826 C19.601375,31.37826 19.794975,31.31046 19.950275,31.17376 C20.290475,30.87406 20.323275,30.35566 20.023575,30.01656 L18.229875,27.97786 C19.380475,27.67596 20.228175,26.66096 20.228175,25.45896 L20.229175,25.45896 Z M17.517775,26.42906 C17.284875,26.42906 16.882375,26.43126 16.514875,26.43236 C16.512675,26.07366 16.510475,24.86396 16.509375,24.48876 L17.517775,24.48876 C18.098575,24.48876 18.589675,24.93286 18.589675,25.45896 C18.589675,25.98506 18.098575,26.42906 17.517775,26.42906 Z" id="Shape" fill="#000000"></path>
            <path d="M52.046075,2.19186 L26.115475,2.19186 C23.284875,2.19186 20.535175,2.72786 17.937475,3.78216 C16.089075,1.47876 13.251875,0 10.075675,0 C4.520465,0 0,4.51936 0,10.07566 C0,13.77246 2.001565,17.00996 4.976565,18.76216 C4.562035,20.45426 4.349845,22.19876 4.349845,23.95646 L4.349845,33.00496 C4.349845,35.00436 5.976245,36.63076 7.975625,36.63076 L33.906275,36.63076 C45.907975,36.63076 55.670775,26.86686 55.670775,14.86626 L55.670775,5.81766 C55.670775,3.81826 54.044375,2.19186 52.044975,2.19186 L52.046075,2.19186 Z M26.115475,3.83246 L52.046075,3.83246 C53.140975,3.83246 54.031275,4.72286 54.031275,5.81766 L54.031275,14.86626 C54.031275,16.11096 53.916375,17.32826 53.699875,18.51066 L15.579375,18.51066 C18.330175,16.70926 20.150175,13.60186 20.150175,10.07566 C20.150175,8.29716 19.686375,6.62596 18.874875,5.17456 C21.180475,4.28426 23.612975,3.83246 26.114375,3.83246 L26.115475,3.83246 Z M1.640625,10.07566 C1.640625,5.42496 5.425005,1.64066 10.075675,1.64066 C14.726275,1.64066 18.510675,5.42496 18.510675,10.07566 C18.510675,14.72626 14.727375,18.51066 10.075675,18.51066 C5.423905,18.51066 1.640625,14.72736 1.640625,10.07566 Z M33.907375,34.99016 L7.975625,34.99016 C6.880785,34.99016 5.990465,34.09986 5.990465,33.00496 L5.990465,23.95646 C5.990465,22.44706 6.158905,20.94856 6.489215,19.49066 C7.603755,19.91606 8.812345,20.15126 10.075675,20.15126 L53.325775,20.15126 C50.998275,28.69236 43.175775,34.99016 33.907375,34.99016 Z" id="Shape" fill="#000000"></path>
            <path d="M12.108475,5.25396 C11.690575,5.07896 11.210475,5.27476 11.034375,5.69256 L7.692965,13.65506 C7.517965,14.07286 7.713745,14.55306 8.131555,14.72916 C8.235465,14.77286 8.342645,14.79366 8.448745,14.79366 C8.769215,14.79366 9.073275,14.60446 9.205615,14.29056 L12.546975,6.32806 C12.721975,5.91026 12.526275,5.43006 12.108475,5.25396 Z" id="Path" fill="#000000"></path>
            <path d="M9.171875,7.35376 C9.171875,5.95486 8.141565,4.81736 6.874995,4.81736 C5.608435,4.81736 4.578125,5.95486 4.578125,7.35376 C4.578125,8.75266 5.608435,9.89016 6.874995,9.89016 C8.141565,9.89016 9.171875,8.75266 9.171875,7.35376 Z M6.874995,8.24846 C6.519535,8.24846 6.218755,7.83836 6.218755,7.35266 C6.218755,6.86706 6.519535,6.45696 6.874995,6.45696 C7.230465,6.45696 7.531245,6.86706 7.531245,7.35266 C7.531245,7.83836 7.230465,8.24846 6.874995,8.24846 Z" id="Shape" fill="#000000"></path>
            <path d="M10.980475,12.79866 C10.980475,14.19756 12.010775,15.33506 13.277375,15.33506 C14.543875,15.33506 15.574175,14.19756 15.574175,12.79866 C15.574175,11.39976 14.543875,10.26226 13.277375,10.26226 C12.010775,10.26226 10.980475,11.39976 10.980475,12.79866 Z M13.277375,11.90286 C13.632775,11.90286 13.933575,12.31296 13.933575,12.79866 C13.933575,13.28426 13.632775,13.69436 13.277375,13.69436 C12.921875,13.69436 12.621075,13.28426 12.621075,12.79866 C12.621075,12.31296 12.921875,11.90286 13.277375,11.90286 Z" id="Shape" fill="#000000"></path>
        </g>
    </g>
</svg>