<?xml version="1.0" encoding="UTF-8"?>
<svg width="50px" height="50px" viewBox="0 0 50 50" version="1.1" xmlns="http://www.w3.org/2000/svg" xmlns:xlink="http://www.w3.org/1999/xlink">
    <title>Group</title>
    <g id="Page-1" stroke="none" stroke-width="1" fill="none" fill-rule="evenodd">
        <g id="Group" transform="translate(1.000000, 1.000000)">
            <path d="M22.9079778,0.336760751 C23.4249778,-0.0840792485 24.1527777,-0.110531249 24.6960777,0.257660751 L24.8024778,0.336760751 L26.7429777,1.91684075 L29.0280778,0.893400751 L29.1501777,0.844570751 C29.7289777,0.643610751 30.3741778,0.815850751 30.7751778,1.27914075 L30.8571778,1.38363075 L32.3220777,3.41098075 L34.7946777,3.01449075 L34.9255778,2.99887075 C35.5801777,2.95151075 36.1968777,3.33792075 36.4343778,3.96078075 L37.3249778,6.29965075 L39.8161778,6.55551075 C40.4790778,6.62363075 41.0115778,7.11927075 41.1354777,7.76352075 L41.1550777,7.89438075 L41.4099778,10.3845908 L43.7497777,11.2761908 C44.4140777,11.5294908 44.8089777,12.2139908 44.6960778,12.9158908 L44.2985777,15.3875908 L46.3268778,16.8533908 C46.9031777,17.2697908 47.1078778,18.0335908 46.8171777,18.6824908 L45.7927777,20.9666908 L47.3737778,22.9080908 C47.8226778,23.4594908 47.8226778,24.2510908 47.3737778,24.8025908 L45.7927777,26.7429908 L46.8171777,29.0281908 C47.1078778,29.6769908 46.9031777,30.4407908 46.3268778,30.8572908 L44.2985777,32.3220908 L44.6960778,34.7947908 C44.8089777,35.4966908 44.4140777,36.1811908 43.7497777,36.4343908 L41.4099778,37.3250908 L41.1550777,39.8162908 C41.0823777,40.5233908 40.5232777,41.0824908 39.8161778,41.1550908 L37.3249778,41.4099908 L36.4343778,43.7498908 C36.1810778,44.4140908 35.4965778,44.8090908 34.7946777,44.6960908 L32.3220777,44.2986908 L30.8571778,46.3269908 C30.4407777,46.9032908 29.6769777,47.1079908 29.0280778,46.8171908 L26.7429777,45.7927908 L24.8024778,47.3738908 C24.2509777,47.8227908 23.4594778,47.8227908 22.9079778,47.3738908 L20.9665777,45.7927908 L18.6823778,46.8171908 C18.0335777,47.1079908 17.2697777,46.9032908 16.8532778,46.3269908 L15.3874778,44.2986908 L12.9157778,44.6960908 C12.2138777,44.8090908 11.5293778,44.4140908 11.2761778,43.7498908 L10.3845778,41.4099908 L7.89430775,41.1550908 C7.18720775,41.0824908 6.62810775,40.5233908 6.55543775,39.8162908 L6.29957775,37.3250908 L3.96071775,36.4343908 C3.29645775,36.1811908 2.90150775,35.4966908 3.01442775,34.7947908 L3.41090775,32.3220908 L1.38356775,30.8572908 C0.80727775,30.4407908 0.60260775,29.6769908 0.89332775,29.0281908 L1.91676775,26.7429908 L0.33668775,24.8025908 C-0.11222925,24.2510908 -0.11222925,23.4595908 0.33668775,22.9080908 L1.91676775,20.9666908 L0.89332775,18.6824908 C0.60260775,18.0335908 0.80727775,17.2697908 1.38356775,16.8533908 L3.41090775,15.3875908 L3.01442775,12.9158908 C2.90150775,12.2139908 3.29645775,11.5294908 3.96071775,11.2761908 L6.29957775,10.3845908 L6.55543775,7.89438075 C6.62810775,7.18727075 7.18720775,6.62818075 7.89430775,6.55551075 L10.3845778,6.29965075 L11.2761778,3.96078075 L11.3278777,3.83969075 C11.5951777,3.28832075 12.1737777,2.95466075 12.7849777,2.99887075 L12.9157778,3.01449075 L15.3874778,3.41098075 L16.8532778,1.38363075 L16.9352778,1.27914075 C17.3362778,0.815850751 17.9814777,0.643610751 18.5602778,0.844570751 L18.6823778,0.893400751 L20.9665777,1.91684075 L22.9079778,0.336760751 Z" id="Path" stroke="#4685F4" stroke-width="2"></path>
            <path d="M32.8552777,28.6287908 L32.8552777,19.6287908 L18.8552777,19.6287908 L18.8552777,28.6287908 L32.8552777,28.6287908 Z M32.8552777,14.6287908 C33.3856777,14.6287908 33.8943777,14.8394908 34.2694778,15.2144908 C34.6445777,15.5895908 34.8552777,16.0982908 34.8552777,16.6287908 L34.8552777,28.6287908 C34.8552777,29.1591908 34.6445777,29.6678908 34.2694778,30.0429908 C33.8943777,30.4179908 33.3856777,30.6287908 32.8552777,30.6287908 L18.8552777,30.6287908 C17.7452777,30.6287908 16.8552777,29.7287908 16.8552777,28.6287908 L16.8552777,16.6287908 C16.8552777,16.0982908 17.0659777,15.5895908 17.4410777,15.2144908 C17.8160777,14.8394908 18.3247777,14.6287908 18.8552777,14.6287908 L19.8552777,14.6287908 L19.8552777,12.6287908 L21.8552777,12.6287908 L21.8552777,14.6287908 L29.8552777,14.6287908 L29.8552777,12.6287908 L31.8552777,12.6287908 L31.8552777,14.6287908 L32.8552777,14.6287908 Z M14.8552777,32.6287908 L28.8552777,32.6287908 L28.8552777,34.6287908 L14.8552777,34.6287908 C13.7452777,34.6287908 12.8552777,33.7287908 12.8552777,32.6287908 L12.8552777,20.6287908 L14.8552777,20.6287908 L14.8552777,32.6287908 Z" id="Shape" fill="#4685F4" fill-rule="nonzero"></path>
            <path d="M23.1057778,22.7937908 C23.1057778,23.0994908 23.1840778,23.3331908 23.3406778,23.4948908 C23.4998777,23.6539908 23.7246778,23.7335908 24.0152777,23.7335908 C24.1667778,23.7335908 24.3019777,23.7095908 24.4206777,23.6615908 C24.5394777,23.6135908 24.6392778,23.5478908 24.7200778,23.4645908 C24.8009778,23.3811908 24.8615777,23.2826908 24.9019778,23.1689908 C24.9449777,23.0552908 24.9663777,22.9327908 24.9663777,22.8013908 C24.9663777,22.6522908 24.9436777,22.5196908 24.8981777,22.4034908 C24.8526778,22.2847908 24.7882777,22.1849908 24.7049778,22.1040908 C24.6215778,22.0232908 24.5217777,21.9613908 24.4055777,21.9183908 C24.2918778,21.8754908 24.1667778,21.8539908 24.0303777,21.8539908 C23.8889777,21.8539908 23.7613778,21.8779908 23.6476777,21.9259908 C23.5339777,21.9714908 23.4366778,22.0358908 23.3558778,22.1192908 C23.2750778,22.2026908 23.2131777,22.3023908 23.1701778,22.4186908 C23.1272778,22.5322908 23.1057778,22.6573908 23.1057778,22.7937908 Z M24.3486778,24.5028908 C24.3916777,24.4497908 24.4320778,24.3979908 24.4699777,24.3474908 C24.5078777,24.2969908 24.5444777,24.2463908 24.5798778,24.1958908 C24.4535778,24.2767908 24.3145778,24.3386908 24.1630777,24.3815908 C24.0114778,24.4219908 23.8522777,24.4421908 23.6855778,24.4421908 C23.4960778,24.4421908 23.3103778,24.4093908 23.1284777,24.3436908 C22.9465777,24.2779908 22.7849777,24.1794908 22.6434777,24.0480908 C22.5019777,23.9141908 22.3870777,23.7499908 22.2985777,23.5554908 C22.2126778,23.3583908 22.1697778,23.1285908 22.1697778,22.8657908 C22.1697778,22.6207908 22.2152777,22.3908908 22.3061777,22.1760908 C22.3971778,21.9613908 22.5246777,21.7731908 22.6889777,21.6114908 C22.8531778,21.4497908 23.0501777,21.3221908 23.2800778,21.2287908 C23.5099778,21.1352908 23.7638777,21.0885908 24.0417778,21.0885908 C24.3221777,21.0885908 24.5735777,21.1327908 24.7958777,21.2211908 C25.0206778,21.3095908 25.2114778,21.4333908 25.3680778,21.5925908 C25.5272777,21.7516908 25.6484778,21.9423908 25.7318777,22.1647908 C25.8177778,22.3870908 25.8606778,22.6308908 25.8606778,22.8960908 C25.8606778,23.0653908 25.8455778,23.2257908 25.8152777,23.3773908 C25.7874778,23.5289908 25.7470777,23.6754908 25.6939777,23.8169908 C25.6409778,23.9558908 25.5764777,24.0922908 25.5006778,24.2261908 C25.4249778,24.3600908 25.3402777,24.4927908 25.2467777,24.6240908 L23.9924777,26.4127908 C23.9495777,26.4733908 23.8851778,26.5251908 23.7992777,26.5680908 C23.7133777,26.6085908 23.6160777,26.6287908 23.5074777,26.6287908 L22.6472778,26.6287908 L24.3486778,24.5028908 Z M30.4579778,23.8889908 C30.4579778,24.3663908 30.4061778,24.7819908 30.3025778,25.1356908 C30.2014777,25.4868908 30.0600778,25.7773908 29.8781777,26.0072908 C29.6987778,26.2371908 29.4852777,26.4089908 29.2377777,26.5226908 C28.9926777,26.6337908 28.7273777,26.6893908 28.4419777,26.6893908 C28.1564778,26.6893908 27.8911778,26.6337908 27.6461777,26.5226908 C27.4036777,26.4089908 27.1926778,26.2371908 27.0132778,26.0072908 C26.8339777,25.7773908 26.6937777,25.4868908 26.5926778,25.1356908 C26.4916778,24.7819908 26.4410777,24.3663908 26.4410777,23.8889908 C26.4410777,23.4089908 26.4916778,22.9933908 26.5926778,22.6421908 C26.6937777,22.2910908 26.8339777,22.0005908 27.0132778,21.7706908 C27.1926778,21.5407908 27.4036777,21.3701908 27.6461777,21.2590908 C27.8911778,21.1453908 28.1564778,21.0885908 28.4419777,21.0885908 C28.7273777,21.0885908 28.9926777,21.1453908 29.2377777,21.2590908 C29.4852777,21.3701908 29.6987778,21.5407908 29.8781777,21.7706908 C30.0600778,22.0005908 30.2014777,22.2910908 30.3025778,22.6421908 C30.4061778,22.9933908 30.4579778,23.4089908 30.4579778,23.8889908 Z M29.4916778,23.8889908 C29.4916778,23.4922908 29.4625778,23.1638908 29.4044777,22.9036908 C29.3463777,22.6434908 29.2680777,22.4362908 29.1694777,22.2821908 C29.0734777,22.1280908 28.9623777,22.0207908 28.8360778,21.9600908 C28.7097778,21.8969908 28.5783778,21.8653908 28.4419777,21.8653908 C28.3080777,21.8653908 28.1779778,21.8969908 28.0516777,21.9600908 C27.9278778,22.0207908 27.8179778,22.1280908 27.7219778,22.2821908 C27.6259778,22.4362908 27.5488777,22.6434908 27.4907777,22.9036908 C27.4351778,23.1638908 27.4073777,23.4922908 27.4073777,23.8889908 C27.4073777,24.2855908 27.4351778,24.6139908 27.4907777,24.8741908 C27.5488777,25.1343908 27.6259778,25.3415908 27.7219778,25.4956908 C27.8179778,25.6497908 27.9278778,25.7583908 28.0516777,25.8215908 C28.1779778,25.8821908 28.3080777,25.9125908 28.4419777,25.9125908 C28.5783778,25.9125908 28.7097778,25.8821908 28.8360778,25.8215908 C28.9623777,25.7583908 29.0734777,25.6497908 29.1694777,25.4956908 C29.2680777,25.3415908 29.3463777,25.1343908 29.4044777,24.8741908 C29.4625778,24.6139908 29.4916778,24.2855908 29.4916778,23.8889908 Z" id="Shape" fill="#4685F4" fill-rule="nonzero"></path>
        </g>
    </g>
</svg>