<svg width="20" height="19" viewBox="0 0 20 19" fill="none" xmlns="http://www.w3.org/2000/svg">
<path d="M9.90039 14.9H2.90039C2.36996 14.9 1.86125 14.6893 1.48618 14.3142C1.1111 13.9392 0.900391 13.4305 0.900391 12.9V2.90002M0.900391 2.90002C0.900391 2.36959 1.1111 1.86088 1.48618 1.48581C1.86125 1.11074 2.36996 0.900024 2.90039 0.900024H16.9004C17.4308 0.900024 17.9395 1.11074 18.3146 1.48581C18.6897 1.86088 18.9004 2.36959 18.9004 2.90002M0.900391 2.90002L9.90039 8.90002L18.9004 2.90002M18.9004 2.90002V10.4M12.9004 14.9H18.9004M18.9004 14.9L15.9004 11.9M18.9004 14.9L15.9004 17.9" stroke="#222A3F" stroke-width="1.8" stroke-linecap="round" stroke-linejoin="round"/>
</svg>
