<svg width="20" height="20" viewBox="0 0 20 20" fill="none" xmlns="http://www.w3.org/2000/svg">
<path d="M5.4082 1.08032C6.49853 0.782448 7.64306 1.33863 8.07715 2.38696L8.15332 2.57056V2.57251L9.32617 5.38794L9.39062 5.56177C9.6739 6.43647 9.3957 7.40424 8.67383 7.99438L7.76367 8.73657C8.60154 10.1885 9.81188 11.3986 11.2637 12.2366L12.0107 11.3264C12.6398 10.5538 13.7026 10.2939 14.6162 10.675L17.6162 11.925H17.6152C18.6626 12.3596 19.2186 13.5032 18.9209 14.593L18.1709 17.342L18.1699 17.345C17.9012 18.3191 17.0158 19.0012 16 19.0012C7.71656 19.0012 1.00015 12.2846 1 4.00122C1 2.98545 1.68212 2.09905 2.65625 1.83032H2.65918L5.4082 1.0813V1.08032Z" stroke="#222A3F" stroke-width="2"/>
</svg>
