<?xml version="1.0" encoding="UTF-8"?>
<svg width="105px" height="34px" viewBox="0 0 105 34" version="1.1" xmlns="http://www.w3.org/2000/svg" xmlns:xlink="http://www.w3.org/1999/xlink">
    <title>Group</title>
    <g id="Page-1" stroke="none" stroke-width="1" fill="none" fill-rule="evenodd">
        <g id="Group" fill="#737D97" fill-rule="nonzero">
            <g>
                <path d="M20.1256,26.9206 C19.7569,26.7195 19.3589,26.5327 18.9931,26.2963 C18.4323,25.9336 17.9972,25.4494 17.8458,24.779 C17.6153,23.7627 17.9457,22.9259 18.7286,22.2598 C18.9028,22.1119 19.0985,21.9886 19.2846,21.854 C19.0063,21.6911 18.7124,21.5517 18.4557,21.3632 C17.5339,20.6862 17.0503,19.7902 17.2328,18.6278 C17.3639,17.7965 17.8894,17.2225 18.5855,16.7903 C18.637,16.758 18.6909,16.7293 18.7436,16.6987 C18.7896,16.6718 18.8351,16.6437 18.9016,16.6036 C18.482,16.4432 18.0816,16.2929 17.6835,16.1361 C16.9449,15.8446 16.2375,15.5005 15.5994,15.015 C13.8607,13.6923 14.3838,11.4968 15.6557,10.5218 C16.0771,10.1992 16.5373,9.91131 17.015,9.68087 C18.3162,9.0536 19.4546,9.60605 20.1968,10.6487 C20.3536,10.869 20.3291,11.0575 20.122,11.249 C19.9394,11.4178 19.7347,11.5663 19.5253,11.7009 C19.2475,11.8799 18.9387,11.8973 18.6256,11.8057 C18.3725,11.7321 18.1163,11.6626 17.8727,11.5639 C17.7326,11.507 17.6189,11.5196 17.4878,11.5711 C16.8737,11.8105 16.4589,12.2043 16.4033,12.9022 C16.3805,13.1823 16.4769,13.4044 16.6618,13.5995 C17.0521,14.0113 17.5411,14.2848 18.0522,14.4961 C18.9518,14.8678 19.8694,15.194 20.7804,15.5382 C20.8109,15.5495 20.8444,15.5525 20.9085,15.5657 C20.8552,12.2019 20.8019,8.85429 20.7487,5.50845 C20.3991,5.46775 20.3692,5.21337 20.4877,4.74292 C19.8299,4.4251 19.363,3.92771 19.138,3.21844 C18.9728,2.69652 18.983,2.17579 19.1595,1.66164 C19.5187,0.615997004 20.517,-0.045987296 21.6441,0.00249440398 C22.6879,0.047384804 23.6366,0.823690004 23.8928,1.843 C24.1915,3.0311 23.7234,4.02168 22.5191,4.74891 C22.6245,5.23432 22.6071,5.448 22.2504,5.51504 C22.1971,8.85489 22.1439,12.1977 22.09,15.5855 C22.5096,15.4508 22.9028,15.3436 23.2817,15.1982 C23.8102,14.9959 24.3387,14.7888 24.8463,14.5392 C25.2934,14.3195 25.7267,14.0634 26.1373,13.7809 C26.7801,13.3373 26.7125,12.5928 26.2618,12.0648 C26.0248,11.7865 25.7094,11.6339 25.3712,11.5256 C25.3155,11.5076 25.2413,11.531 25.1802,11.5495 C24.8756,11.6393 24.5739,11.7392 24.2687,11.826 C23.9856,11.9062 23.7096,11.8554 23.4702,11.6979 C23.2464,11.5507 23.0363,11.3783 22.8376,11.1976 C22.6682,11.0437 22.6676,10.8432 22.7945,10.6619 C23.572,9.55099 24.8044,9.02547 26.1343,9.75628 C26.5539,9.98672 26.9759,10.2285 27.3482,10.5254 C28.3142,11.2969 28.7146,12.5102 28.4052,13.6228 C28.2184,14.295 27.7522,14.7667 27.2033,15.1611 C26.3695,15.7608 25.4149,16.111 24.4626,16.4629 C24.3489,16.5048 24.2346,16.5473 24.0891,16.6012 C24.1843,16.6556 24.2567,16.6975 24.3291,16.74 C24.9498,17.1028 25.4538,17.5792 25.6764,18.2783 C26.017,19.3497 25.7135,20.2798 24.9259,21.0363 C24.5805,21.3679 24.1424,21.6026 23.7473,21.8809 C23.8563,21.9575 24.0119,22.0581 24.1567,22.1712 C25.6573,23.3449 25.5861,25.2614 23.9921,26.3071 C23.6336,26.5423 23.2392,26.7225 22.8765,26.9194 C22.998,27.0487 23.1398,27.1905 23.2721,27.3414 C23.9341,28.0955 23.9066,29.1154 23.2128,29.8355 C22.8645,30.197 22.4539,30.4663 22.0008,30.6722 C21.8787,30.7279 21.835,30.8003 21.8218,30.9302 C21.7165,31.9531 21.604,32.9754 21.4681,34.0007 C21.4603,33.9558 21.449,33.9109 21.4448,33.8654 C21.355,32.9149 21.2598,31.9651 21.1826,31.0134 C21.167,30.8207 21.1108,30.7165 20.9294,30.6351 C20.4943,30.4406 20.107,30.1701 19.7742,29.8223 C19.1051,29.1232 19.0698,28.1117 19.6994,27.3737 C19.8383,27.2109 19.9933,27.0612 20.1262,26.9206 L20.1256,26.9206 Z M22.0391,21.0208 C22.3516,20.916 22.67,20.8263 22.9752,20.7024 C23.4187,20.5228 23.8216,20.2798 24.0825,19.8548 C24.4656,19.2312 24.3525,18.5524 23.7455,18.1496 C23.4235,17.9359 23.05,17.7971 22.6921,17.6426 C22.5,17.56 22.2905,17.5163 22.0397,17.4403 L22.0397,21.0208 L22.0391,21.0208 Z M20.9593,17.4409 C20.3548,17.6115 19.8125,17.7707 19.3313,18.0844 C18.6053,18.5572 18.485,19.3724 19.0482,20.035 C19.5546,20.6305 20.2704,20.8101 20.9593,21.0064 L20.9593,17.4409 Z M21.0312,26.1 L21.0312,22.5177 C20.4069,22.6362 19.8437,22.902 19.445,23.2509 C18.8633,23.7615 18.8339,24.6366 19.3774,25.183 C19.8449,25.6529 20.4296,25.9031 21.0306,26.0994 L21.0312,26.1 Z M21.9595,26.1024 C22.5539,25.9097 23.1267,25.6643 23.5905,25.213 C24.1142,24.7036 24.1657,23.9578 23.6911,23.403 C23.2494,22.8858 22.6383,22.6769 21.9595,22.5034 L21.9595,26.1024 Z M21.1132,27.5251 C20.5326,27.7789 20.207,28.229 20.2369,28.7042 C20.2591,29.0556 20.7349,29.5978 21.1132,29.7116 L21.1132,27.5251 Z M21.8853,29.7253 C22.4491,29.456 22.8046,28.9646 22.7592,28.5235 C22.7185,28.1236 22.3019,27.6484 21.8853,27.5455 L21.8853,29.7253 Z" id="Shape"></path>
                <path d="M30.1717,5.81267 C30.5087,6.81642 30.8463,7.82017 31.194,8.85684 C30.6218,8.76706 30.0969,8.63179 29.5804,8.44983 C29.1003,8.28045 28.7813,7.97519 28.6167,7.48738 C28.4569,7.01394 28.2636,6.55127 28.084,6.08441 C28.0703,6.0485 28.0505,6.01498 28.0074,5.92759 C28.09,6.7853 28.1666,7.58435 28.2468,8.41572 C27.6303,8.20743 27.027,8.02607 26.5565,7.58914 C26.4285,7.47003 26.3704,7.26772 26.2998,7.09594 C26.2465,6.96666 26.2238,6.8248 26.1819,6.66798 C25.1931,7.52868 24.0756,7.60649 22.8929,7.32398 C22.8815,7.30244 22.8701,7.28149 22.8594,7.25994 C22.9306,7.19709 22.9952,7.12527 23.0737,7.07319 C24.3324,6.24003 25.1213,5.05732 25.6486,3.66691 C25.8419,3.15636 26.049,2.63982 26.3345,2.17775 C27.036,1.04232 27.9338,0.581442004 29.3056,0.868142004 C30.8289,1.18656 32.2864,1.7061 33.7306,2.26633 C36.7287,3.42869 39.6472,4.77181 42.5393,6.17419 C42.6788,6.24182 42.8176,6.31006 43.011,6.40463 C42.6644,6.53631 42.3723,6.67098 42.0671,6.75836 C41.4572,6.93254 40.8425,7.09055 40.2254,7.2354 C39.8848,7.315 39.5478,7.23899 39.2366,7.09175 C38.1066,6.55606 36.9801,6.01318 35.8531,5.47091 C35.6424,5.36915 35.4365,5.25723 35.2024,5.18899 C36.521,6.21908 37.8402,7.24857 39.2067,8.31636 C38.8481,8.34868 38.5549,8.39118 38.2604,8.39896 C37.7331,8.41213 37.2052,8.40614 36.6772,8.40554 C35.9357,8.40435 35.3377,8.06138 34.8026,7.59213 C33.9832,6.87388 33.1734,6.14486 32.3594,5.42063 C32.3396,5.40267 32.3193,5.38531 32.2624,5.3931 C33.0226,6.5387 33.7821,7.6843 34.5656,8.86522 C33.7229,8.84188 32.916,8.83829 32.1643,8.5043 C31.9763,8.42051 31.7872,8.27087 31.6723,8.10148 C31.2066,7.41257 30.7691,6.7039 30.322,6.00181 C30.2789,5.93418 30.2388,5.86415 30.1969,5.79472 C30.1885,5.8007 30.1807,5.80729 30.1723,5.81327 L30.1717,5.81267 Z" id="Path"></path>
                <path d="M8.46035,8.8265 C9.21989,7.6815 9.97944,6.53649 10.739,5.39089 C10.7276,5.38191 10.7162,5.37293 10.7049,5.36395 C10.2703,5.76498 9.84357,6.17557 9.39826,6.56462 C8.90925,6.99198 8.39989,7.39599 7.9055,7.81736 C7.42906,8.22258 6.87003,8.40393 6.25772,8.40633 C5.46047,8.40932 4.66322,8.38239 3.86596,8.36862 C3.85698,8.33929 3.84801,8.30996 3.83903,8.28123 C5.16,7.24995 6.48038,6.21867 7.80136,5.18739 C7.79358,5.17422 7.78639,5.16165 7.77861,5.14848 C7.57212,5.25442 7.36801,5.36336 7.15972,5.46511 C6.11467,5.97506 5.06603,6.47783 4.02338,6.99258 C3.44878,7.27629 2.86161,7.30861 2.24691,7.15598 C1.49096,6.96864 0.758947,6.71426 0,6.40362 C0.234627,6.2869 0.431547,6.18635 0.63086,6.09058 C3.3189,4.79534 6.02848,3.54739 8.80391,2.44847 C10.2631,1.87088 11.7302,1.30646 13.2678,0.969481004 C13.7526,0.863540004 14.2626,0.771963004 14.7522,0.806080004 C15.5464,0.861744004 16.1115,1.36212 16.558,1.99179 C16.9177,2.49935 17.1445,3.07275 17.3552,3.65273 C17.8658,5.0575 18.6684,6.24141 19.9343,7.07817 C20.0086,7.12725 20.0696,7.19668 20.1426,7.26192 C19.3897,7.72998 17.7748,7.4355 16.8243,6.66757 C16.7663,6.86689 16.7316,7.06919 16.6484,7.24875 C16.5747,7.40796 16.47,7.57017 16.3383,7.6821 C16.0091,7.96101 15.2238,8.30098 14.7558,8.39974 C14.833,7.59411 14.9096,6.79626 14.9916,5.94334 C14.9497,6.02175 14.9288,6.05347 14.9156,6.08759 C14.7001,6.63525 14.4828,7.18172 14.2728,7.73117 C14.1668,8.0077 13.9723,8.19385 13.7125,8.31714 C13.1218,8.59906 12.4915,8.7439 11.8062,8.85822 C12.1539,7.82275 12.4921,6.81601 12.8297,5.80927 L12.8057,5.7961 C12.6974,5.97566 12.5921,6.15762 12.4801,6.33538 C12.1521,6.85671 11.8152,7.37205 11.4937,7.89757 C11.225,8.3369 10.8371,8.59906 10.3374,8.67507 C9.72386,8.76844 9.10617,8.83249 8.49027,8.9097 C8.4801,8.88216 8.47052,8.85403 8.46035,8.8265 Z" id="Path"></path>
            </g>
            <path d="M56.552,16 L55.2703,16 L55.2703,12.6786 L51.3135,12.6786 L51.3135,16 L50.0206,16 L50.0206,8.19798 L51.3135,8.19798 L51.3135,11.3968 L55.2703,11.3968 L55.2703,8.19798 L56.552,8.19798 L56.552,16 Z M60.4021,16 L59.1092,16 L59.1092,8.19798 L60.4021,8.19798 L60.4021,16 Z M64.2443,9.46859 L64.2443,12.4445 L65.8828,12.4445 C67.1534,12.4445 67.811,11.8984 67.811,10.9733 C67.811,10.0147 67.1534,9.46859 65.8828,9.46859 L64.2443,9.46859 Z M64.2443,16 L62.9514,16 L62.9514,8.19798 L64.1552,8.19798 L64.2443,8.09767 L64.2443,8.19798 L65.905,8.19798 C67.9001,8.19798 69.1039,9.21224 69.1039,10.9733 C69.1039,12.6674 67.9001,13.7263 65.905,13.7263 L64.2443,13.7263 L64.2443,16 Z M75.141,12.8458 L73.8593,9.97015 L72.5664,12.8458 L75.141,12.8458 Z M71.1509,16 L69.7576,16 L73.3243,8.19798 L74.3943,8.19798 L77.9609,16 L76.5565,16 L75.6872,14.0718 L72.0202,14.0718 L71.1509,16 Z M83.3915,12.8458 L82.1097,9.97015 L80.8168,12.8458 L83.3915,12.8458 Z M79.4013,16 L78.0081,16 L81.5747,8.19798 L82.6447,8.19798 L86.2114,16 L84.807,16 L83.9376,14.0718 L80.2707,14.0718 L79.4013,16 Z M53.3643,28.0557 C51.046,28.0557 49.3407,26.3839 49.3407,24.099 C49.3407,21.8141 51.0683,20.1311 53.3755,20.1311 C54.4789,20.1311 55.5712,20.5881 56.396,21.502 L55.5155,22.3825 C54.8579,21.7027 54.1557,21.424 53.3978,21.424 C51.8262,21.424 50.6225,22.572 50.6225,24.099 C50.6225,25.626 51.8262,26.7628 53.3978,26.7628 C54.1557,26.7628 54.8579,26.473 55.5155,25.8043 L56.396,26.6848 C55.5823,27.5988 54.4789,28.0557 53.3643,28.0557 Z M60.238,28.0446 C58.5772,28.0446 57.3066,26.7963 57.3066,25.0687 C57.3066,23.3076 58.5661,22.0928 60.238,22.0928 C61.9433,22.0928 63.1804,23.3076 63.1804,25.0687 C63.1804,26.7963 61.9321,28.0446 60.238,28.0446 Z M60.238,26.7963 C61.2076,26.7963 61.921,26.1052 61.921,25.0687 C61.921,24.021 61.2076,23.3299 60.2491,23.3299 C59.2906,23.3299 58.5661,24.021 58.5661,25.0687 C58.5661,26.1052 59.3017,26.7963 60.238,26.7963 Z M70.2704,22.3157 C71.6302,22.3157 72.611,23.185 72.611,25.0687 L72.611,28 L71.4296,28 L71.4296,25.0687 C71.4296,24.0321 70.9726,23.5417 70.2704,23.5417 C69.546,23.5417 69.089,24.0321 69.089,25.0687 L69.089,28 L67.9187,28 L67.9187,25.0687 C67.9187,24.0321 67.4617,23.5417 66.7484,23.5417 C66.035,23.5417 65.5781,24.0321 65.5781,25.0687 L65.5781,28 L64.3966,28 L64.3966,25.0687 C64.3966,23.185 65.3886,22.3157 66.7484,22.3157 C67.4617,22.3157 68.1082,22.6166 68.5094,23.1962 C68.8995,22.6166 69.5571,22.3157 70.2704,22.3157 Z M73.8348,29.8168 L73.8348,25.0241 C73.8348,23.4191 75.0943,22.1485 76.6658,22.1485 C78.2151,22.1485 79.508,23.4191 79.508,25.0241 C79.508,26.6291 78.2151,27.9666 76.6658,27.9666 C76.0194,27.9666 75.4509,27.7214 75.0051,27.3424 L75.0051,29.8168 L73.8348,29.8168 Z M76.6658,26.7405 C77.5909,26.7405 78.3265,25.9492 78.3265,25.0241 C78.3265,24.1101 77.6021,23.3745 76.6658,23.3745 C75.7073,23.3745 74.994,24.1101 74.994,25.0241 C74.994,25.9492 75.7296,26.7405 76.6658,26.7405 Z M82.5194,28 L81.2711,28 L81.2711,19.9862 L82.5194,19.9862 L82.5194,28 Z M85.9866,28 L84.7383,28 L84.7383,22.1485 L85.9866,22.1485 L85.9866,28 Z M85.3625,21.6135 C84.9278,21.6135 84.5823,21.2457 84.5823,20.7887 C84.5823,20.3429 84.9278,19.9862 85.3625,19.9862 C85.8083,19.9862 86.1538,20.3206 86.1538,20.7776 C86.1538,21.2457 85.8194,21.6135 85.3625,21.6135 Z M89.1472,25.7597 C89.0023,25.8823 88.9355,26.0272 88.9355,26.1944 C88.9355,26.6068 89.3256,26.8743 89.9943,26.8743 C90.6519,26.8743 91.1535,26.5733 91.3875,26.0383 L91.3875,25.5702 L90.0055,25.5702 C89.5708,25.5702 89.281,25.626 89.1472,25.7597 Z M92.6359,28 L91.421,28 L91.421,27.5876 C90.9751,27.922 90.4178,28.0446 89.8829,28.0446 C88.5231,28.0446 87.6983,27.2867 87.6983,26.2167 C87.6983,25.2359 88.3002,24.4222 89.9943,24.4222 L91.3875,24.4222 L91.3875,24.4111 C91.3875,23.72 90.9751,23.3299 90.1726,23.3299 C89.5485,23.3299 88.8797,23.6309 88.367,24.0767 L87.7429,23.0401 C88.4451,22.4383 89.359,22.0928 90.2395,22.0928 C91.7665,22.0928 92.6359,22.8618 92.6359,24.4445 L92.6359,28 Z M99.321,25.0687 L99.321,28 L98.1396,28 L98.1396,25.0687 C98.1396,24.0321 97.6269,23.5417 96.8578,23.5417 C96.0888,23.5417 95.5761,24.0321 95.5761,25.0687 L95.5761,28 L94.3946,28 L94.3946,25.0687 C94.3946,23.185 95.42,22.3157 96.8578,22.3157 C98.2956,22.3157 99.321,23.185 99.321,25.0687 Z M101.436,23.3522 L100.499,23.3522 L100.499,22.1485 L101.436,22.1485 L101.436,20.9893 L102.684,20.9893 L102.684,22.1485 L104.278,22.1485 L104.278,23.3522 L102.684,23.3522 L102.684,26.1721 C102.684,26.5845 102.907,26.8186 103.319,26.8186 C103.565,26.8186 103.854,26.6848 104.178,26.4062 L104.69,27.4539 C104.233,27.8551 103.709,28.0446 103.241,28.0446 C102.082,28.0446 101.436,27.3758 101.436,26.2167 L101.436,23.3522 Z" id="Shape"></path>
        </g>
    </g>
</svg>