<svg width="19" height="18" viewBox="0 0 19 18" fill="none" xmlns="http://www.w3.org/2000/svg">
<path fill-rule="evenodd" clip-rule="evenodd" d="M13.5375 0H4.5125C2.03085 0 0 1.91419 0 4.25517V12.7655C0 15.1056 2.03085 17.0207 4.5125 17.0207H13.5375C16.0191 17.0207 18.05 15.1056 18.05 12.7655V4.25517C18.05 1.91419 16.0191 0 13.5375 0ZM9.02416 12.0562C6.94706 12.0562 5.26367 10.4682 5.26367 8.5104C5.26367 6.55175 6.94706 4.96436 9.02416 4.96436C11.1004 4.96436 12.7847 6.55175 12.7847 8.5104C12.7847 10.4682 11.1004 12.0562 9.02416 12.0562ZM12.7852 3.90071C12.7852 4.48813 13.2897 4.9645 13.9133 4.9645C14.5369 4.9645 15.0414 4.48813 15.0414 3.90071C15.0414 3.31328 14.5369 2.83691 13.9133 2.83691C13.2897 2.83691 12.7852 3.31328 12.7852 3.90071Z" fill="white"/>
</svg>
