<?xml version="1.0" encoding="UTF-8"?>
<svg width="139px" height="22px" viewBox="0 0 139 22" version="1.1" xmlns="http://www.w3.org/2000/svg" xmlns:xlink="http://www.w3.org/1999/xlink">
    <title>Group</title>
    <g id="Page-1" stroke="none" stroke-width="1" fill="none" fill-rule="evenodd">
        <g id="Group" fill="#737D97">
            <path d="M3.11678,15.96642 L0,15.96642 L0,2.92672 L3.11678,2.92672 L3.11678,15.96642 Z M10.9014,2.92672 L7.85127,2.92672 C7.85127,5.32632 6.70181,7.52892 4.69791,8.96972 L3.4895,9.83842 L8.1716,15.96682 L12.0213,15.96682 L7.71306,10.32772 C9.75531,8.37582 10.9014,5.74972 10.9014,2.92672 Z M15.8733,15.96272 L12.9298,15.96272 L12.9298,2.92922 L15.8733,2.92922 L15.8733,15.96272 Z M24.7698,6.94692 L24.7698,7.52372 C23.9754,7.00352 23.0165,6.69782 21.9822,6.69782 C19.2449,6.69782 17.0261,8.82762 17.0261,11.45502 C17.0261,14.08242 19.2449,16.21242 21.9822,16.21242 C23.0165,16.21242 23.9754,15.90672 24.7698,15.38662 L24.7698,15.96272 L27.5821,15.96272 L27.5821,6.94692 L24.7698,6.94692 Z M24.7605,11.45502 C24.7605,12.73612 23.6195,13.77482 22.2123,13.77482 C20.805,13.77482 19.6641,12.73612 19.6641,11.45502 C19.6641,10.17392 20.805,9.13562 22.2123,9.13562 C23.6195,9.13562 24.7605,10.17392 24.7605,11.45502 Z M54.4378,7.52372 L54.4378,6.94692 L57.25,6.94692 L57.25,15.96272 L54.4378,15.96272 L54.4378,15.38662 C53.6434,15.90672 52.6845,16.21242 51.6501,16.21242 C48.9128,16.21242 46.694,14.08242 46.694,11.45502 C46.694,8.82762 48.9128,6.69782 51.6501,6.69782 C52.6845,6.69782 53.6434,7.00352 54.4378,7.52372 Z M51.8803,13.77482 C53.2877,13.77482 54.4284,12.73612 54.4284,11.45502 C54.4284,10.17392 53.2877,9.13562 51.8803,9.13562 C50.4729,9.13562 49.3321,10.17392 49.3321,11.45502 C49.3321,12.73612 50.4729,13.77482 51.8803,13.77482 Z M58.4705,14.45892 C58.4705,13.52342 59.2606,12.76502 60.2352,12.76502 C61.2098,12.76502 62,13.52342 62,14.45892 C62,15.39442 61.2098,16.15282 60.2352,16.15282 C59.2606,16.15282 58.4705,15.39442 58.4705,14.45892 Z M41.6968,6.70442 C40.5734,6.70442 39.5104,7.03922 38.7996,7.96282 L38.7996,6.94742 L35.9995,6.94742 L35.9995,15.96272 L38.834,15.96272 L38.834,11.22492 C38.834,9.85382 39.7917,9.18262 40.9449,9.18262 C42.1809,9.18262 42.8915,9.89122 42.8915,11.20622 L42.8915,15.96272 L45.7003,15.96272 L45.7003,10.22942 C45.7003,8.13132 43.9624,6.70442 41.6968,6.70442 Z M31.9325,6.94712 L31.9325,8.12132 C32.4961,7.41692 33.5465,6.94752 34.6886,6.94752 L34.6886,9.57112 L34.6796,9.57072 L34.6729,9.57052 L34.6656,9.57012 L34.6552,9.56992 C33.5425,9.56992 31.9389,10.33322 31.9389,11.75352 L31.9389,15.96272 L29.0532,15.96272 L29.0532,6.94712 L31.9325,6.94712 Z" id="Shape"></path>
            <path d="M73.1459,4.91532 L71.8642,2.03967 L70.5713,4.91532 L73.1459,4.91532 Z M69.1557,8.06952 L67.7625,8.06952 L71.3292,0.2675 L72.3992,0.2675 L75.9658,8.06952 L74.5614,8.06952 L73.6921,6.14132 L70.0251,6.14132 L69.1557,8.06952 Z M79.6576,8.06952 L78.6099,8.06952 L76.013,2.218 L77.3393,2.218 L79.1449,6.29732 L80.9728,2.218 L82.2658,2.218 L79.6576,8.06952 Z M84.3548,5.82922 C84.2099,5.95182 84.143,6.09672 84.143,6.26392 C84.143,6.67632 84.5331,6.94382 85.2019,6.94382 C85.8595,6.94382 86.361,6.64282 86.5951,6.10782 L86.5951,5.63972 L85.213,5.63972 C84.7783,5.63972 84.4885,5.69552 84.3548,5.82922 Z M87.8434,8.06952 L86.6285,8.06952 L86.6285,7.65712 C86.1827,7.99152 85.6254,8.11412 85.0904,8.11412 C83.7306,8.11412 82.9058,7.35622 82.9058,6.28622 C82.9058,5.30542 83.5077,4.49172 85.2019,4.49172 L86.5951,4.49172 L86.5951,4.48062 C86.5951,3.78952 86.1827,3.39942 85.3802,3.39942 C84.756,3.39942 84.0873,3.70042 83.5746,4.14622 L82.9504,3.10962 C83.6526,2.50779 84.5666,2.16227 85.4471,2.16227 C86.974,2.16227 87.8434,2.93132 87.8434,4.51402 L87.8434,8.06952 Z M91.2406,8.06952 L89.9923,8.06952 L89.9923,2.218 L91.2406,2.218 L91.2406,8.06952 Z M90.6164,1.68301 C90.1818,1.68301 89.8362,1.3152 89.8362,0.85822 C89.8362,0.41239 90.1818,0.05573 90.6164,0.05573 C91.0623,0.05573 91.4078,0.3901 91.4078,0.84708 C91.4078,1.3152 91.0734,1.68301 90.6164,1.68301 Z M94.9028,8.06952 L93.6544,8.06952 L93.6544,0.05573 L94.9028,0.05573 L94.9028,8.06952 Z M98.0802,5.82922 C97.9353,5.95182 97.8684,6.09672 97.8684,6.26392 C97.8684,6.67632 98.2585,6.94382 98.9272,6.94382 C99.5848,6.94382 100.086,6.64282 100.32,6.10782 L100.32,5.63972 L98.9384,5.63972 C98.5037,5.63972 98.2139,5.69552 98.0802,5.82922 Z M101.569,8.06952 L100.354,8.06952 L100.354,7.65712 C99.9081,7.99152 99.3508,8.11412 98.8158,8.11412 C97.456,8.11412 96.6312,7.35622 96.6312,6.28622 C96.6312,5.30542 97.2331,4.49172 98.9272,4.49172 L100.32,4.49172 L100.32,4.48062 C100.32,3.78952 99.9081,3.39942 99.1056,3.39942 C98.4814,3.39942 97.8127,3.70042 97.3,4.14622 L96.6758,3.10962 C97.378,2.50779 98.2919,2.16227 99.1725,2.16227 C100.699,2.16227 101.569,2.93132 101.569,4.51402 L101.569,8.06952 Z M103.907,5.13822 L103.907,0.34552 L105.077,0.34552 L105.077,2.88672 C105.523,2.50779 106.092,2.25144 106.738,2.25144 C108.287,2.25144 109.569,3.53322 109.569,5.13822 C109.569,6.74322 108.287,8.01382 106.738,8.01382 C105.167,8.01382 103.907,6.74322 103.907,5.13822 Z M106.738,3.47752 C105.802,3.47752 105.066,4.22422 105.066,5.13822 C105.066,6.05212 105.78,6.78772 106.738,6.78772 C107.674,6.78772 108.399,6.05212 108.399,5.13822 C108.399,4.22422 107.663,3.47752 106.738,3.47752 Z M112.285,8.06952 L111.037,8.06952 L111.037,0.05573 L112.285,0.05573 L112.285,8.06952 Z M118.115,4.15732 L118.127,4.16852 C117.848,3.68922 117.358,3.38832 116.722,3.38832 C116.009,3.38832 115.374,3.81182 115.184,4.51402 L118.26,4.51402 C118.227,4.40252 118.182,4.26882 118.115,4.15732 Z M116.912,8.11412 C115.128,8.11412 113.891,6.86582 113.891,5.13822 C113.891,3.41062 115.106,2.16227 116.722,2.16227 C118.349,2.16227 119.531,3.37712 119.531,5.13822 C119.531,5.17162 119.52,5.22732 119.52,5.26082 L119.52,5.66202 L115.184,5.66202 C115.407,6.47572 116.12,6.86582 116.934,6.86582 C117.502,6.86582 118.06,6.59832 118.539,6.05212 L119.319,6.95492 C118.673,7.71282 117.826,8.11412 116.912,8.11412 Z M125.244,8.06952 L123.996,8.06952 L123.996,3.42172 L123.06,3.42172 L123.06,2.218 L123.996,2.218 L123.996,1.87249 C123.996,0.74677 124.654,-1.77635684e-15 125.846,-1.77635684e-15 C126.303,-1.77635684e-15 126.816,0.17833 127.239,0.55729 L126.749,1.63842 C126.426,1.35978 126.125,1.21489 125.88,1.21489 C125.456,1.21489 125.222,1.44895 125.222,1.89478 L125.222,2.218 L126.838,2.218 L126.838,3.42172 L125.244,3.42172 L125.244,8.06952 Z M130.298,8.11412 C128.638,8.11412 127.367,6.86582 127.367,5.13822 C127.367,3.37712 128.626,2.16227 130.298,2.16227 C132.004,2.16227 133.241,3.37712 133.241,5.13822 C133.241,6.86582 131.992,8.11412 130.298,8.11412 Z M130.298,6.86582 C131.268,6.86582 131.981,6.17472 131.981,5.13822 C131.981,4.09052 131.268,3.39942 130.309,3.39942 C129.351,3.39942 128.626,4.09052 128.626,5.13822 C128.626,6.17472 129.362,6.86582 130.298,6.86582 Z M136.107,8.06952 L134.858,8.06952 L134.858,2.218 L136.073,2.218 L136.073,2.71952 C136.608,2.25144 137.344,2.16227 138.035,2.16227 L138.035,3.47752 C137.723,3.47752 137.689,3.47752 137.667,3.46632 C136.63,3.46632 136.107,4.06822 136.107,5.08242 L136.107,8.06952 Z M70.5267,20.11412 C69.6016,20.11412 68.6319,19.73512 68.03,19.24472 L68.6319,18.17472 C69.1335,18.56482 69.8914,18.87692 70.5713,18.87692 C71.3737,18.87692 71.7081,18.66512 71.7081,18.33082 C71.7081,17.98522 71.1285,17.88492 70.5044,17.77352 C69.4678,17.59512 68.3087,17.39452 68.3087,15.96792 C68.3087,14.93132 69.1446,14.16232 70.6493,14.16232 C71.3737,14.16232 72.2543,14.44092 72.8784,14.85332 L72.2877,15.94562 C71.7081,15.55552 71.1397,15.38832 70.6493,15.38832 C69.8914,15.38832 69.5458,15.62232 69.5458,15.94562 C69.5458,16.32452 70.1477,16.43602 70.8053,16.55862 C71.8307,16.74812 72.9564,16.94872 72.9564,18.30852 C72.9564,19.41192 72.0648,20.11412 70.5267,20.11412 Z M78.0169,16.15732 L78.028,16.16852 C77.7494,15.68922 77.259,15.38832 76.6237,15.38832 C75.9103,15.38832 75.275,15.81182 75.0855,16.51402 L78.1618,16.51402 C78.1283,16.40252 78.0837,16.26882 78.0169,16.15732 Z M76.8131,20.11412 C75.0298,20.11412 73.7926,18.86582 73.7926,17.13822 C73.7926,15.41062 75.0075,14.16232 76.6237,14.16232 C78.2509,14.16232 79.4324,15.37712 79.4324,17.13822 C79.4324,17.17162 79.4212,17.22732 79.4212,17.26082 L79.4212,17.66202 L75.0855,17.66202 C75.3085,18.47572 76.0218,18.86582 76.8354,18.86582 C77.4039,18.86582 77.9611,18.59832 78.4404,18.05212 L79.2206,18.95492 C78.5742,19.71282 77.7271,20.11412 76.8131,20.11412 Z M82.4182,20.06952 L81.1699,20.06952 L81.1699,12.05572 L82.4182,12.05572 L82.4182,20.06952 Z M88.2483,16.15732 L88.2595,16.16852 C87.9808,15.68922 87.4904,15.38832 86.8551,15.38832 C86.1418,15.38832 85.5065,15.81182 85.317,16.51402 L88.3932,16.51402 C88.3598,16.40252 88.3152,16.26882 88.2483,16.15732 Z M87.0446,20.11412 C85.2613,20.11412 84.0241,18.86582 84.0241,17.13822 C84.0241,15.41062 85.239,14.16232 86.8551,14.16232 C88.4824,14.16232 89.6638,15.37712 89.6638,17.13822 C89.6638,17.17162 89.6527,17.22732 89.6527,17.26082 L89.6527,17.66202 L85.317,17.66202 C85.5399,18.47572 86.2532,18.86582 87.0669,18.86582 C87.6353,18.86582 88.1926,18.59832 88.6719,18.05212 L89.4521,18.95492 C88.8056,19.71282 87.9585,20.11412 87.0446,20.11412 Z M93.5748,20.11412 C91.8695,20.11412 90.61,18.86582 90.61,17.13822 C90.61,15.37712 91.8695,14.16232 93.5748,14.16232 C94.5556,14.16232 95.4473,14.64152 96.0157,15.61122 L95.0349,16.26882 C94.6336,15.67812 94.1209,15.39942 93.5748,15.39942 C92.6051,15.39942 91.8695,16.09052 91.8695,17.13822 C91.8695,18.18592 92.6051,18.86582 93.5748,18.86582 C94.1209,18.86582 94.6336,18.58712 95.046,18.01872 L96.0157,18.67632 C95.4473,19.61252 94.5556,20.11412 93.5748,20.11412 Z M97.6011,15.42172 L96.6648,15.42172 L96.6648,14.21802 L97.6011,14.21802 L97.6011,13.05882 L98.8494,13.05882 L98.8494,14.21802 L100.443,14.21802 L100.443,15.42172 L98.8494,15.42172 L98.8494,18.24162 C98.8494,18.65402 99.0723,18.88812 99.4847,18.88812 C99.7299,18.88812 100.02,18.75432 100.343,18.47572 L100.856,19.52342 C100.399,19.92462 99.8748,20.11412 99.4067,20.11412 C98.2475,20.11412 97.6011,19.44532 97.6011,18.28622 L97.6011,15.42172 Z M104.874,21.88632 L104.874,17.09362 C104.874,15.48862 106.134,14.21802 107.705,14.21802 C109.254,14.21802 110.547,15.48862 110.547,17.09362 C110.547,18.69862 109.254,20.03612 107.705,20.03612 C107.059,20.03612 106.49,19.79092 106.045,19.41192 L106.045,21.88632 L104.874,21.88632 Z M107.705,18.81002 C108.63,18.81002 109.366,18.01872 109.366,17.09362 C109.366,16.17962 108.641,15.44402 107.705,15.44402 C106.747,15.44402 106.033,16.17962 106.033,17.09362 C106.033,18.01872 106.769,18.81002 107.705,18.81002 Z M113.559,20.06952 L112.311,20.06952 L112.311,12.05572 L113.559,12.05572 L113.559,20.06952 Z M116.736,17.82922 C116.591,17.95182 116.524,18.09672 116.524,18.26392 C116.524,18.67632 116.915,18.94382 117.583,18.94382 C118.241,18.94382 118.742,18.64282 118.977,18.10782 L118.977,17.63972 L117.594,17.63972 C117.16,17.63972 116.87,17.69552 116.736,17.82922 Z M120.225,20.06952 L119.01,20.06952 L119.01,19.65712 C118.564,19.99152 118.007,20.11412 117.472,20.11412 C116.112,20.11412 115.287,19.35622 115.287,18.28622 C115.287,17.30542 115.889,16.49172 117.583,16.49172 L118.977,16.49172 L118.977,16.48062 C118.977,15.78952 118.564,15.39942 117.762,15.39942 C117.137,15.39942 116.469,15.70042 115.956,16.14622 L115.332,15.10962 C116.034,14.50782 116.948,14.16232 117.829,14.16232 C119.355,14.16232 120.225,14.93132 120.225,16.51402 L120.225,20.06952 Z M126.91,17.13822 L126.91,20.06952 L125.729,20.06952 L125.729,17.13822 C125.729,16.10162 125.216,15.61122 124.447,15.61122 C123.678,15.61122 123.165,16.10162 123.165,17.13822 L123.165,20.06952 L121.984,20.06952 L121.984,17.13822 C121.984,15.25452 123.009,14.38522 124.447,14.38522 C125.885,14.38522 126.91,15.25452 126.91,17.13822 Z M130.685,20.11412 C129.76,20.11412 128.791,19.73512 128.189,19.24472 L128.791,18.17472 C129.292,18.56482 130.05,18.87692 130.73,18.87692 C131.532,18.87692 131.867,18.66512 131.867,18.33082 C131.867,17.98522 131.287,17.88492 130.663,17.77352 C129.627,17.59512 128.467,17.39452 128.467,15.96792 C128.467,14.93132 129.303,14.16232 130.808,14.16232 C131.532,14.16232 132.413,14.44092 133.037,14.85332 L132.446,15.94562 C131.867,15.55552 131.298,15.38832 130.808,15.38832 C130.05,15.38832 129.705,15.62232 129.705,15.94562 C129.705,16.32452 130.306,16.43602 130.964,16.55862 C131.989,16.74812 133.115,16.94872 133.115,18.30852 C133.115,19.41192 132.224,20.11412 130.685,20.11412 Z" id="Shape" fill-rule="nonzero"></path>
        </g>
    </g>
</svg>