<?xml version="1.0" encoding="UTF-8"?>
<svg width="109px" height="26px" viewBox="0 0 109 26" version="1.1" xmlns="http://www.w3.org/2000/svg" xmlns:xlink="http://www.w3.org/1999/xlink">
    <title>Group</title>
    <g id="Page-1" stroke="none" stroke-width="1" fill="none" fill-rule="evenodd">
        <g id="Group" transform="translate(0.000000, 0.000000)" fill="#737D97">
            <path d="M12.75,12.84442 C9.2278,12.84442 6.375,9.97052 6.375,6.42222 C6.375,2.87393 9.2278,0 12.75,0 C16.2722,0 19.125,2.87393 19.125,6.42222 C19.125,9.97052 16.2722,12.84442 12.75,12.84442 Z" id="Path" fill-rule="nonzero"></path>
            <path d="M18.6749,16.24712 C18.8059,16.68902 18.8147,17.21752 18.6186,17.84872 C18.5521,17.84242 18.4847,17.83922 18.4167,17.83922 C17.243,17.83922 16.2917,18.79762 16.2917,19.97992 C16.2917,21.16222 17.243,22.12062 18.4167,22.12062 C19.5903,22.12062 20.5417,21.16222 20.5417,19.97992 C20.5417,19.38382 20.2998,18.84452 19.9095,18.45642 C20.2356,17.52452 20.2704,16.64532 20.0332,15.84462 C20.028,15.82692 20.0226,15.80932 20.0171,15.79172 C22.991,16.85572 25.5,18.55082 25.5,20.87182 L25.5,25.49952 L0,25.49952 L0,20.87182 C0,18.57162 2.46415,16.88612 5.40296,15.82052 C5.25846,16.23162 5.17629,16.66922 5.16078,17.13092 L4.99998,17.13092 C4.83685,17.13092 4.67875,17.18712 4.55232,17.29022 L3.094,18.47952 C2.92903,18.61402 2.83333,18.81562 2.83333,19.02852 L2.83333,22.12062 C2.83333,22.51192 3.15046,22.82902 3.54167,22.82902 L4.99998,22.82902 L4.99998,21.41232 L4.25,21.41232 L4.25,19.36482 L5.25222,18.54752 L5.30931,18.54752 C5.31583,18.57542 5.32256,18.60332 5.3295,18.63142 L5.66766,18.54752 L6.7894,18.54752 L7.7917,19.36482 L7.7917,21.41232 L7.0417,21.41232 L7.0417,22.82902 L8.5,22.82902 C8.8912,22.82902 9.2083,22.51192 9.2083,22.12062 L9.2083,19.02852 C9.2083,18.81562 9.1126,18.61402 8.9477,18.47952 L7.4894,17.29022 C7.3629,17.18712 7.2048,17.13092 7.0417,17.13092 L6.5786,17.13092 C6.5961,16.76792 6.6723,16.44332 6.7919,16.15272 C6.9352,15.80472 7.149,15.48582 7.4274,15.19762 C7.5202,15.17372 7.613,15.15032 7.7057,15.12752 C8.0618,15.04002 8.4271,15.21912 8.5888,15.55042 L11.4676,15.55042 C12.0971,15.55062 12.4175,15.55062 12.7324,15.55052 C13.059,15.55052 13.3796,15.55052 14.0326,15.55062 L16.9112,15.55042 C17.0729,15.21912 17.4382,15.04002 17.7943,15.12752 C17.8737,15.14702 17.9531,15.16692 18.0325,15.18732 C18.3463,15.51052 18.5618,15.86552 18.6749,16.24712 Z M17.7083,19.97992 C17.7083,20.38972 18.0353,20.70402 18.4167,20.70402 C18.798,20.70402 19.125,20.38972 19.125,19.97992 C19.125,19.57012 18.798,19.25592 18.4167,19.25592 C18.0353,19.25592 17.7083,19.57012 17.7083,19.97992 Z" id="Shape"></path>
            <path d="M42.0774,10.04102 L36.7608,10.04102 L36.7608,2.239 L38.0538,2.239 L38.0538,8.75922 L42.0774,8.75922 L42.0774,10.04102 Z M44.5251,10.04102 L43.2768,10.04102 L43.2768,4.1895 L44.5251,4.1895 L44.5251,10.04102 Z M43.9009,3.65451 C43.4662,3.65451 43.1207,3.2867 43.1207,2.82972 C43.1207,2.38389 43.4662,2.02723 43.9009,2.02723 C44.3467,2.02723 44.6923,2.3616 44.6923,2.81858 C44.6923,3.2867 44.3579,3.65451 43.9009,3.65451 Z M49.1123,10.08562 C47.407,10.08562 46.1476,8.83732 46.1476,7.10972 C46.1476,5.34862 47.407,4.13377 49.1123,4.13377 C50.0932,4.13377 50.9848,4.61304 51.5533,5.58272 L50.5724,6.24032 C50.1712,5.64962 49.6585,5.37092 49.1123,5.37092 C48.1427,5.37092 47.407,6.06202 47.407,7.10972 C47.407,8.15742 48.1427,8.83732 49.1123,8.83732 C49.6585,8.83732 50.1712,8.55862 50.5836,7.99022 L51.5533,8.64782 C50.9848,9.58402 50.0932,10.08562 49.1123,10.08562 Z M56.7276,6.12882 L56.7387,6.14002 C56.4601,5.66072 55.9697,5.35982 55.3344,5.35982 C54.621,5.35982 53.9857,5.78332 53.7963,6.48552 L56.8725,6.48552 C56.839,6.37402 56.7945,6.24032 56.7276,6.12882 Z M55.5238,10.08562 C53.7405,10.08562 52.5033,8.83732 52.5033,7.10972 C52.5033,5.38212 53.7182,4.13377 55.3344,4.13377 C56.9616,4.13377 58.1431,5.34862 58.1431,7.10972 C58.1431,7.14312 58.1319,7.19882 58.1319,7.23232 L58.1319,7.63352 L53.7963,7.63352 C54.0192,8.44722 54.7325,8.83732 55.5461,8.83732 C56.1146,8.83732 56.6719,8.56982 57.1511,8.02362 L57.9313,8.92642 C57.2849,9.68432 56.4378,10.08562 55.5238,10.08562 Z M64.2052,7.10972 L64.2052,10.04102 L63.0237,10.04102 L63.0237,7.10972 C63.0237,6.07312 62.511,5.58272 61.7419,5.58272 C60.9729,5.58272 60.4602,6.07312 60.4602,7.10972 L60.4602,10.04102 L59.2787,10.04102 L59.2787,7.10972 C59.2787,5.22602 60.3041,4.35669 61.7419,4.35669 C63.1797,4.35669 64.2052,5.22602 64.2052,7.10972 Z M67.9805,10.08562 C67.0554,10.08562 66.0857,9.70662 65.4839,9.21622 L66.0857,8.14622 C66.5873,8.53632 67.3452,8.84842 68.0251,8.84842 C68.8276,8.84842 69.162,8.63662 69.162,8.30232 C69.162,7.95672 68.5824,7.85642 67.9582,7.74502 C66.9217,7.56662 65.7625,7.36602 65.7625,5.93942 C65.7625,4.90283 66.5984,4.13377 68.1031,4.13377 C68.8276,4.13377 69.7081,4.41242 70.3323,4.82481 L69.7415,5.91712 C69.162,5.52702 68.5935,5.35982 68.1031,5.35982 C67.3452,5.35982 66.9997,5.59382 66.9997,5.91712 C66.9997,6.29602 67.6016,6.40752 68.2592,6.53012 C69.2846,6.71962 70.4103,6.92022 70.4103,8.28002 C70.4103,9.38342 69.5186,10.08562 67.9805,10.08562 Z M75.4707,6.12882 L75.4819,6.14002 C75.2032,5.66072 74.7128,5.35982 74.0775,5.35982 C73.3642,5.35982 72.7289,5.78332 72.5394,6.48552 L75.6156,6.48552 C75.5822,6.37402 75.5376,6.24032 75.4707,6.12882 Z M74.267,10.08562 C72.4837,10.08562 71.2465,8.83732 71.2465,7.10972 C71.2465,5.38212 72.4614,4.13377 74.0775,4.13377 C75.7048,4.13377 76.8862,5.34862 76.8862,7.10972 C76.8862,7.14312 76.8751,7.19882 76.8751,7.23232 L76.8751,7.63352 L72.5394,7.63352 C72.7623,8.44722 73.4756,8.83732 74.2893,8.83732 C74.8577,8.83732 75.415,8.56982 75.8943,8.02362 L76.6745,8.92642 C76.028,9.68432 75.1809,10.08562 74.267,10.08562 Z M83.3718,2.45077 L83.3718,7.15432 C83.3718,8.75922 82.1012,10.04102 80.5408,10.04102 C78.9804,10.04102 77.6986,8.75922 77.6986,7.15432 C77.6986,5.54932 78.9804,4.27867 80.5408,4.27867 C81.1761,4.27867 81.7557,4.52388 82.1904,4.90283 L82.1904,2.45077 L83.3718,2.45077 Z M80.5408,5.50472 C79.6157,5.50472 78.8801,6.24032 78.8801,7.15432 C78.8801,8.07932 79.6046,8.81502 80.5408,8.81502 C81.4993,8.81502 82.2015,8.07932 82.2015,7.15432 C82.2015,6.24032 81.4771,5.50472 80.5408,5.50472 Z M91.6277,10.09672 C89.6215,10.09672 88.3954,8.92642 88.3954,6.66382 L88.3954,2.239 L89.6883,2.239 L89.6883,6.63042 C89.6883,8.11282 90.4017,8.80382 91.6277,8.80382 C92.8649,8.80382 93.5671,8.11282 93.5671,6.63042 L93.5671,2.239 L94.8377,2.239 L94.8377,6.66382 C94.8377,8.92642 93.6228,10.09672 91.6277,10.09672 Z M96.642,9.31652 C96.642,9.03792 96.843,8.53632 97.478,8.53632 C98.114,8.53632 98.314,9.03792 98.314,9.31652 C98.314,9.58402 98.103,10.09672 97.478,10.09672 C96.854,10.09672 96.642,9.58402 96.642,9.31652 Z M102.448,10.09672 C101.311,10.09672 100.107,9.61752 99.438,8.91532 L100.007,7.80072 C100.609,8.38032 101.556,8.83732 102.448,8.83732 C103.618,8.83732 104.108,8.40262 104.108,7.87872 C104.108,7.21002 103.25,6.99822 102.336,6.78642 C101.055,6.47442 99.684,6.14002 99.684,4.457 C99.684,3.23097 100.586,2.17212 102.593,2.17212 C103.451,2.17212 104.421,2.4842 105.167,2.99691 L104.677,4.15607 C103.941,3.66565 103.195,3.44274 102.593,3.44274 C101.467,3.44274 100.965,3.87742 100.965,4.43471 C100.965,5.10342 101.812,5.30412 102.738,5.52702 C104.008,5.83912 105.39,6.17342 105.39,7.83412 C105.39,9.03792 104.465,10.09672 102.448,10.09672 Z M106.504,9.31652 C106.504,9.03792 106.704,8.53632 107.34,8.53632 C107.975,8.53632 108.176,9.03792 108.176,9.31652 C108.176,9.58402 107.964,10.09672 107.34,10.09672 C106.716,10.09672 106.504,9.58402 106.504,9.31652 Z M38.0538,15.50962 L38.0538,18.48552 L39.6922,18.48552 C40.9628,18.48552 41.6204,17.93942 41.6204,17.01432 C41.6204,16.05572 40.9628,15.50962 39.6922,15.50962 L38.0538,15.50962 Z M38.0538,22.04102 L36.7608,22.04102 L36.7608,14.23902 L37.9646,14.23902 L38.0538,14.13872 L38.0538,14.23902 L39.7145,14.23902 C41.7096,14.23902 42.9133,15.25322 42.9133,17.01432 C42.9133,18.70842 41.7096,19.76732 39.7145,19.76732 L38.0538,19.76732 L38.0538,22.04102 Z M45.8965,22.04102 L44.6482,22.04102 L44.6482,16.18952 L45.8631,16.18952 L45.8631,16.69102 C46.3981,16.22292 47.1337,16.13382 47.8247,16.13382 L47.8247,17.44902 C47.5127,17.44902 47.4792,17.44902 47.4569,17.43782 C46.4204,17.43782 45.8965,18.03972 45.8965,19.05392 L45.8965,22.04102 Z M51.7021,22.08562 C50.0414,22.08562 48.7707,20.83732 48.7707,19.10972 C48.7707,17.34862 50.0302,16.13382 51.7021,16.13382 C53.4074,16.13382 54.6445,17.34862 54.6445,19.10972 C54.6445,20.83732 53.3962,22.08562 51.7021,22.08562 Z M51.7021,20.83732 C52.6717,20.83732 53.3851,20.14622 53.3851,19.10972 C53.3851,18.06202 52.6717,17.37092 51.7132,17.37092 C50.7547,17.37092 50.0302,18.06202 50.0302,19.10972 C50.0302,20.14622 50.7658,20.83732 51.7021,20.83732 Z M58.8255,22.04102 L57.7778,22.04102 L55.1808,16.18952 L56.5072,16.18952 L58.3128,20.26882 L60.1407,16.18952 L61.4336,16.18952 L58.8255,22.04102 Z M63.8124,22.04102 L62.5641,22.04102 L62.5641,16.18952 L63.8124,16.18952 L63.8124,22.04102 Z M63.1883,15.65452 C62.7536,15.65452 62.4081,15.28672 62.4081,14.82972 C62.4081,14.38392 62.7536,14.02722 63.1883,14.02722 C63.6341,14.02722 63.9796,14.36162 63.9796,14.81862 C63.9796,15.28672 63.6453,15.65452 63.1883,15.65452 Z M70.9744,14.45072 L70.9744,19.15432 C70.9744,20.75922 69.7038,22.04102 68.1433,22.04102 C66.5829,22.04102 65.3012,20.75922 65.3012,19.15432 C65.3012,17.54932 66.5829,16.27862 68.1433,16.27862 C68.7787,16.27862 69.3582,16.52392 69.7929,16.90282 L69.7929,14.45072 L70.9744,14.45072 Z M68.1433,17.50472 C67.2183,17.50472 66.4826,18.24032 66.4826,19.15432 C66.4826,20.07932 67.2071,20.81502 68.1433,20.81502 C69.1019,20.81502 69.8041,20.07932 69.8041,19.15432 C69.8041,18.24032 69.0796,17.50472 68.1433,17.50472 Z M76.5918,18.12882 L76.603,18.14002 C76.3243,17.66072 75.8339,17.35982 75.1986,17.35982 C74.4853,17.35982 73.85,17.78332 73.6605,18.48552 L76.7367,18.48552 C76.7033,18.37402 76.6587,18.24032 76.5918,18.12882 Z M75.3881,22.08562 C73.6048,22.08562 72.3676,20.83732 72.3676,19.10972 C72.3676,17.38212 73.5825,16.13382 75.1986,16.13382 C76.8259,16.13382 78.0073,17.34862 78.0073,19.10972 C78.0073,19.14312 77.9962,19.19882 77.9962,19.23232 L77.9962,19.63352 L73.6605,19.63352 C73.8834,20.44722 74.5967,20.83732 75.4104,20.83732 C75.9788,20.83732 76.5361,20.56982 77.0154,20.02362 L77.7956,20.92642 C77.1491,21.68432 76.302,22.08562 75.3881,22.08562 Z M80.7814,22.04102 L79.5331,22.04102 L79.5331,16.18952 L80.748,16.18952 L80.748,16.69102 C81.283,16.22292 82.0186,16.13382 82.7096,16.13382 L82.7096,17.44902 C82.3975,17.44902 82.3641,17.44902 82.3418,17.43782 C81.3053,17.43782 80.7814,18.03972 80.7814,19.05392 L80.7814,22.04102 Z M85.9182,22.08562 C84.9931,22.08562 84.0234,21.70662 83.4216,21.21622 L84.0234,20.14622 C84.525,20.53632 85.2829,20.84842 85.9628,20.84842 C86.7653,20.84842 87.0996,20.63662 87.0996,20.30232 C87.0996,19.95672 86.5201,19.85642 85.8959,19.74502 C84.8594,19.56662 83.7002,19.36602 83.7002,17.93942 C83.7002,16.90282 84.5361,16.13382 86.0408,16.13382 C86.7653,16.13382 87.6458,16.41242 88.27,16.82482 L87.6792,17.91712 C87.0996,17.52702 86.5312,17.35982 86.0408,17.35982 C85.2829,17.35982 84.9374,17.59382 84.9374,17.91712 C84.9374,18.29602 85.5392,18.40752 86.1968,18.53012 C87.2223,18.71962 88.348,18.92022 88.348,20.28002 C88.348,21.38342 87.4563,22.08562 85.9182,22.08562 Z" id="Shape" fill-rule="nonzero"></path>
        </g>
    </g>
</svg>