<?xml version="1.0" encoding="UTF-8"?>
<svg width="50px" height="50px" viewBox="0 0 50 50" version="1.1" xmlns="http://www.w3.org/2000/svg" xmlns:xlink="http://www.w3.org/1999/xlink">
    <title>Group</title>
    <g id="Page-1" stroke="none" stroke-width="1" fill="none" fill-rule="evenodd">
        <g id="Group" transform="translate(1.000000, 1.000000)">
            <path d="M22.9079778,0.336760751 C23.4249778,-0.0840792485 24.1527777,-0.110531249 24.6960777,0.257660751 L24.8024778,0.336760751 L26.7429777,1.91684075 L29.0280778,0.893400751 L29.1501777,0.844570751 C29.7289777,0.643610751 30.3741778,0.815850751 30.7751778,1.27914075 L30.8571778,1.38363075 L32.3220777,3.41098075 L34.7946777,3.01449075 L34.9255778,2.99887075 C35.5801777,2.95151075 36.1968777,3.33792075 36.4343778,3.96078075 L37.3249778,6.29965075 L39.8161778,6.55551075 C40.4790778,6.62363075 41.0115778,7.11927075 41.1354777,7.76352075 L41.1550777,7.89438075 L41.4099778,10.3845908 L43.7497777,11.2761908 C44.4140777,11.5294908 44.8089777,12.2139908 44.6960778,12.9158908 L44.2985777,15.3875908 L46.3268778,16.8533908 C46.9031777,17.2697908 47.1078778,18.0335908 46.8171777,18.6824908 L45.7927777,20.9666908 L47.3737778,22.9080908 C47.8226778,23.4594908 47.8226778,24.2510908 47.3737778,24.8025908 L45.7927777,26.7429908 L46.8171777,29.0281908 C47.1078778,29.6769908 46.9031777,30.4407908 46.3268778,30.8572908 L44.2985777,32.3220908 L44.6960778,34.7947908 C44.8089777,35.4966908 44.4140777,36.1811908 43.7497777,36.4343908 L41.4099778,37.3250908 L41.1550777,39.8162908 C41.0823777,40.5233908 40.5232777,41.0824908 39.8161778,41.1550908 L37.3249778,41.4099908 L36.4343778,43.7498908 C36.1810778,44.4140908 35.4965778,44.8090908 34.7946777,44.6960908 L32.3220777,44.2986908 L30.8571778,46.3269908 C30.4407777,46.9032908 29.6769777,47.1079908 29.0280778,46.8171908 L26.7429777,45.7927908 L24.8024778,47.3738908 C24.2509777,47.8227908 23.4594778,47.8227908 22.9079778,47.3738908 L20.9665777,45.7927908 L18.6823778,46.8171908 C18.0335777,47.1079908 17.2697777,46.9032908 16.8532778,46.3269908 L15.3874778,44.2986908 L12.9157778,44.6960908 C12.2138777,44.8090908 11.5293778,44.4140908 11.2761778,43.7498908 L10.3845778,41.4099908 L7.89430775,41.1550908 C7.18720775,41.0824908 6.62810775,40.5233908 6.55543775,39.8162908 L6.29957775,37.3250908 L3.96071775,36.4343908 C3.29645775,36.1811908 2.90150775,35.4966908 3.01442775,34.7947908 L3.41090775,32.3220908 L1.38356775,30.8572908 C0.80727775,30.4407908 0.60260775,29.6769908 0.89332775,29.0281908 L1.91676775,26.7429908 L0.33668775,24.8025908 C-0.11222925,24.2510908 -0.11222925,23.4595908 0.33668775,22.9080908 L1.91676775,20.9666908 L0.89332775,18.6824908 C0.60260775,18.0335908 0.80727775,17.2697908 1.38356775,16.8533908 L3.41090775,15.3875908 L3.01442775,12.9158908 C2.90150775,12.2139908 3.29645775,11.5294908 3.96071775,11.2761908 L6.29957775,10.3845908 L6.55543775,7.89438075 C6.62810775,7.18727075 7.18720775,6.62818075 7.89430775,6.55551075 L10.3845778,6.29965075 L11.2761778,3.96078075 L11.3278777,3.83969075 C11.5951777,3.28832075 12.1737777,2.95466075 12.7849777,2.99887075 L12.9157778,3.01449075 L15.3874778,3.41098075 L16.8532778,1.38363075 L16.9352778,1.27914075 C17.3362778,0.815850751 17.9814777,0.643610751 18.5602778,0.844570751 L18.6823778,0.893400751 L20.9665777,1.91684075 L22.9079778,0.336760751 Z" id="Path" stroke="#4685F4" stroke-width="2"></path>
            <path d="M28.8552777,29.6287908 L32.8552777,29.6287908 L32.8552777,27.6287908 L28.8552777,27.6287908 L28.8552777,25.6287908 L25.8552777,28.6287908 L28.8552777,31.6287908 L28.8552777,29.6287908 Z M22.8552777,15.6287908 C20.6552777,15.6287908 18.8552777,17.4287908 18.8552777,19.6287908 C18.8552777,21.8287908 20.6552777,23.6287908 22.8552777,23.6287908 C25.0552777,23.6287908 26.8552777,21.8287908 26.8552777,19.6287908 C26.8552777,17.4287908 25.0552777,15.6287908 22.8552777,15.6287908 Z M22.8552777,17.6287908 C23.9552778,17.6287908 24.8552777,18.5287908 24.8552777,19.6287908 C24.8552777,20.7287908 23.9552778,21.6287908 22.8552777,21.6287908 C21.7552778,21.6287908 20.8552777,20.7287908 20.8552777,19.6287908 C20.8552777,18.5287908 21.7552778,17.6287908 22.8552777,17.6287908 Z M22.8552777,24.6287908 C20.1552777,24.6287908 14.8552777,25.9287908 14.8552777,28.6287908 L14.8552777,31.6287908 L24.3552777,31.6287908 C24.0552777,31.0287908 23.9552778,30.4287908 23.8552777,29.7287908 L16.7552778,29.7287908 L16.7552778,28.6287908 C16.7552778,28.0287908 19.8552777,26.5287908 22.8552777,26.5287908 C23.3552777,26.5287908 23.8552777,26.6287908 24.3552777,26.6287908 C24.6552777,26.0287908 24.9552778,25.4287908 25.4552778,24.9287908 C24.4552778,24.7287908 23.5552777,24.6287908 22.8552777,24.6287908 Z" id="Shape" fill="#4685F4" fill-rule="nonzero"></path>
        </g>
    </g>
</svg>