<svg xmlns="http://www.w3.org/2000/svg" width="40" height="40" viewBox="0 0 40 40" fill="none">
  <g clip-path="url(#clip0_15652_172)">
    <circle cx="21" cy="19" r="12" fill="black"/>
    <path d="M14.1074 28.2497L23.5355 18.8216L23.5355 27.0712L26.8825 27.0712L26.8825 13.1176L12.9289 13.1176L12.9289 16.4646L21.1785 16.4646L11.7504 25.8926L14.1074 28.2497ZM31.7851 8.21497C33.3328 9.76261 34.5604 11.5999 35.398 13.622C36.2356 15.6441 36.6667 17.8114 36.6667 20.0001C36.6667 24.4204 34.9107 28.6596 31.7851 31.7852C28.6595 34.9108 24.4203 36.6668 20 36.6668C15.5797 36.6668 11.3405 34.9108 8.21489 31.7852C6.66724 30.2376 5.43958 28.4002 4.60201 26.3781C3.76443 24.3561 3.33333 22.1888 3.33333 20.0001C3.33333 17.8114 3.76442 15.6441 4.602 13.622C5.43958 11.5999 6.66724 9.76262 8.21488 8.21497C11.3405 5.08937 15.5797 3.33342 20 3.33342C24.4203 3.33342 28.6595 5.08936 31.7851 8.21497Z" fill="white"/>
  </g>
  <defs>
    <clipPath id="clip0_15652_172">
      <rect width="40" height="40" fill="white" transform="translate(40 40) rotate(180)"/>
    </clipPath>
  </defs>
</svg>
