<svg width="49" height="53" viewBox="0 0 49 53" fill="none" xmlns="http://www.w3.org/2000/svg">
<path d="M43.4548 46.7663V20.5727H6.05819V46.7663H43.4548ZM43.4548 6.02074C44.8716 6.02074 46.2305 6.634 47.2324 7.72561C48.2343 8.81722 48.7971 10.2978 48.7971 11.8415V46.7663C48.7971 48.31 48.2343 49.7906 47.2324 50.8822C46.2305 51.9738 44.8716 52.5871 43.4548 52.5871H6.05819C3.09317 52.5871 0.71582 49.9677 0.71582 46.7663V11.8415C0.71582 10.2978 1.27867 8.81722 2.28056 7.72561C3.28245 6.634 4.6413 6.02074 6.05819 6.02074H8.72937V0.199951H14.0717V6.02074H35.4412V0.199951H40.7836V6.02074H43.4548ZM34.1858 29.4785L22.3257 42.4007L15.1669 34.6008L17.9984 31.5158L22.3257 36.2306L31.3543 26.3935L34.1858 29.4785Z" fill="#E5E5E5"/>
</svg>
