<svg width="53" height="53" viewBox="0 0 53 53" fill="none" xmlns="http://www.w3.org/2000/svg">
<path d="M34.097 5.47556V23.7787H8.39417L5.33494 26.8379V5.47556H34.097ZM36.7117 0.246094H2.7202C2.02673 0.246094 1.36166 0.521574 0.871306 1.01193C0.380949 1.50229 0.105469 2.16736 0.105469 2.86083V39.4671L10.5644 29.0082H36.7117C37.4052 29.0082 38.0703 28.7327 38.5606 28.2423C39.051 27.752 39.3265 27.0869 39.3265 26.3934V2.86083C39.3265 2.16736 39.051 1.50229 38.5606 1.01193C38.0703 0.521574 37.4052 0.246094 36.7117 0.246094ZM49.7854 10.705H44.5559V34.2376H10.5644V39.4671C10.5644 40.1606 10.8399 40.8256 11.3302 41.316C11.8206 41.8064 12.4857 42.0818 13.1791 42.0818H41.9412L52.4001 52.5408V13.3198C52.4001 12.6263 52.1247 11.9612 51.6343 11.4709C51.1439 10.9805 50.4789 10.705 49.7854 10.705Z" fill="#E5E5E5"/>
</svg>
