<svg width="31" height="38" viewBox="0 0 31 50" fill="none" xmlns="http://www.w3.org/2000/svg">
<path d="M30.822 33.0656C30.822 35.0823 30.2904 36.9523 29.227 38.6756C28.2004 40.3623 26.6604 41.7556 24.607 42.8556C22.5904 43.919 20.1887 44.5056 17.402 44.6156V49.0706H13.882V44.5606C9.99537 44.2306 6.86036 43.0756 4.47703 41.0956C2.0937 39.079 0.828698 36.3473 0.682031 32.9006H10.692C10.912 35.1006 11.9754 36.5123 13.882 37.1356V28.4456C11.022 27.7123 8.73037 26.9973 7.00703 26.3006C5.32037 25.604 3.83536 24.4856 2.55203 22.9456C1.2687 21.4056 0.627031 19.2973 0.627031 16.6206C0.627031 13.284 1.85536 10.6073 4.31203 8.59064C6.80536 6.57397 9.99537 5.43731 13.882 5.18064V0.725641H17.402V5.18064C21.252 5.47398 24.2954 6.59231 26.532 8.53564C28.7687 10.479 30.0154 13.174 30.272 16.6206H20.207C19.987 14.6406 19.052 13.3573 17.402 12.7706V21.2956C20.4454 22.139 22.792 22.8906 24.442 23.5506C26.092 24.2106 27.5587 25.3106 28.842 26.8506C30.162 28.354 30.822 30.4256 30.822 33.0656ZM10.582 16.1806C10.582 17.0973 10.857 17.8673 11.407 18.4906C11.9937 19.114 12.8187 19.664 13.882 20.1406V12.4956C12.8554 12.679 12.0487 13.0823 11.462 13.7056C10.8754 14.2923 10.582 15.1173 10.582 16.1806ZM17.402 37.3006C18.502 37.1173 19.3637 36.6773 19.987 35.9806C20.647 35.284 20.977 34.4223 20.977 33.3956C20.977 32.4423 20.6654 31.6723 20.042 31.0856C19.4554 30.4623 18.5754 29.9306 17.402 29.4906V37.3006Z" fill="#323232"/>
</svg>
