<svg width="73" height="53" viewBox="0 0 73 53" fill="none" xmlns="http://www.w3.org/2000/svg">
<path d="M66.0596 42.7355H54.1328V19.8566H66.0596M69.0413 13.3198H51.1511C50.3602 13.3198 49.6018 13.6641 49.0427 14.2771C48.4835 14.89 48.1693 15.7213 48.1693 16.5882V49.2723C48.1693 50.1392 48.4835 50.9705 49.0427 51.5835C49.6018 52.1964 50.3602 52.5408 51.1511 52.5408H69.0413C69.8321 52.5408 70.5905 52.1964 71.1497 51.5835C71.7089 50.9705 72.023 50.1392 72.023 49.2723V16.5882C72.023 15.7213 71.7089 14.89 71.1497 14.2771C70.5905 13.6641 69.8321 13.3198 69.0413 13.3198ZM12.3888 6.78293H66.0596V0.246094H12.3888C10.8072 0.246094 9.29035 0.934793 8.17199 2.16069C7.05363 3.38658 6.42534 5.04925 6.42534 6.78293V42.7355H0.461914V52.5408H42.2059V42.7355H12.3888V6.78293Z" fill="#E5E5E5"/>
</svg>
