<svg viewBox="0 0 19 18" fill="none" xmlns="http://www.w3.org/2000/svg">
    <path d="M9.02027 16.1916C12.9967 16.1916 16.2202 12.9716 16.2202 8.99962C16.2202 5.02759 12.9967 1.80762 9.02027 1.80762C5.04384 1.80762 1.82031 5.02759 1.82031 8.99962C1.82031 12.9716 5.04384 16.1916 9.02027 16.1916Z" stroke="#707070" stroke-width="1.79844"/>
    <path d="M7.21875 6.5598C7.47589 4.89022 10.5616 4.89022 10.8187 6.5598C11.0759 8.22937 8.95445 8.22937 8.95445 9.57787M9.02517 12.5959H9.01874V12.6024H9.02517V12.5959Z" stroke="#707070" stroke-width="1.79844" stroke-linecap="round" stroke-linejoin="round"/>
    <path d="M9.01908 12.5958C9.09003 12.5958 9.14754 12.5383 9.14754 12.4673C9.14754 12.3964 9.09003 12.3389 9.01908 12.3389C8.94814 12.3389 8.89062 12.3964 8.89062 12.4673C8.89062 12.5383 8.94814 12.5958 9.01908 12.5958Z" stroke="#707070" stroke-width="1.79844"/>
</svg>