<svg width="20" height="22" viewBox="0 0 20 22" fill="none" xmlns="http://www.w3.org/2000/svg">
<path fill-rule="evenodd" clip-rule="evenodd" d="M5.2626 2.26241C5.38219 1.13239 6.33828 0.251953 7.5 0.251953H12.5C13.6617 0.251953 14.6178 1.13239 14.7374 2.26241C15.5005 2.27794 16.1603 2.31742 16.7236 2.4209C17.4816 2.56013 18.1267 2.82537 18.6517 3.3503C19.2536 3.95222 19.5125 4.71009 19.6335 5.6102C19.75 6.47717 19.75 7.57949 19.75 8.94708V15.0568C19.75 16.4244 19.75 17.5267 19.6335 18.3937C19.5125 19.2938 19.2536 20.0517 18.6517 20.6536C18.0497 21.2555 17.2919 21.5144 16.3918 21.6354C15.5248 21.752 14.4225 21.752 13.0549 21.752H6.94513C5.57754 21.752 4.47522 21.752 3.60825 21.6354C2.70814 21.5144 1.95027 21.2555 1.34835 20.6536C0.746434 20.0517 0.48754 19.2938 0.366524 18.3937C0.249963 17.5267 0.24998 16.4244 0.250001 15.0568V8.94708C0.24998 7.57949 0.249963 6.47717 0.366524 5.6102C0.48754 4.71009 0.746434 3.95222 1.34835 3.3503C1.87328 2.82537 2.51835 2.56013 3.27635 2.4209C3.83973 2.31742 4.49952 2.27794 5.2626 2.26241ZM5.26496 3.76282C4.54678 3.77816 3.99336 3.81429 3.54735 3.89622C2.98054 4.00033 2.65246 4.16751 2.40901 4.41096C2.13225 4.68773 1.9518 5.0763 1.85315 5.81007C1.75159 6.56542 1.75 7.56654 1.75 9.00195V15.002C1.75 16.4374 1.75159 17.4385 1.85315 18.1938C1.9518 18.9276 2.13225 19.3162 2.40901 19.5929C2.68577 19.8697 3.07435 20.0502 3.80812 20.1488C4.56347 20.2504 5.56458 20.252 7 20.252H13C14.4354 20.252 15.4365 20.2504 16.1919 20.1488C16.9257 20.0502 17.3142 19.8697 17.591 19.5929C17.8678 19.3162 18.0482 18.9276 18.1469 18.1938C18.2484 17.4385 18.25 16.4374 18.25 15.002V9.00195C18.25 7.56654 18.2484 6.56542 18.1469 5.81007C18.0482 5.0763 17.8678 4.68773 17.591 4.41096C17.3475 4.16751 17.0195 4.00033 16.4527 3.89622C16.0066 3.81429 15.4532 3.77816 14.735 3.76282C14.6058 4.88257 13.6544 5.75195 12.5 5.75195H7.5C6.34559 5.75195 5.39424 4.88257 5.26496 3.76282ZM7.5 1.75195C7.08579 1.75195 6.75 2.08774 6.75 2.50195V3.50195C6.75 3.91617 7.08579 4.25195 7.5 4.25195H12.5C12.9142 4.25195 13.25 3.91617 13.25 3.50195V2.50195C13.25 2.08774 12.9142 1.75195 12.5 1.75195H7.5ZM4.25 9.50195C4.25 9.08774 4.58579 8.75195 5 8.75195H5.5C5.91421 8.75195 6.25 9.08774 6.25 9.50195C6.25 9.91617 5.91421 10.252 5.5 10.252H5C4.58579 10.252 4.25 9.91617 4.25 9.50195ZM7.75 9.50195C7.75 9.08774 8.08579 8.75195 8.5 8.75195H15C15.4142 8.75195 15.75 9.08774 15.75 9.50195C15.75 9.91617 15.4142 10.252 15 10.252H8.5C8.08579 10.252 7.75 9.91617 7.75 9.50195ZM4.25 13.002C4.25 12.5877 4.58579 12.252 5 12.252H5.5C5.91421 12.252 6.25 12.5877 6.25 13.002C6.25 13.4162 5.91421 13.752 5.5 13.752H5C4.58579 13.752 4.25 13.4162 4.25 13.002ZM7.75 13.002C7.75 12.5877 8.08579 12.252 8.5 12.252H15C15.4142 12.252 15.75 12.5877 15.75 13.002C15.75 13.4162 15.4142 13.752 15 13.752H8.5C8.08579 13.752 7.75 13.4162 7.75 13.002ZM4.25 16.502C4.25 16.0877 4.58579 15.752 5 15.752H5.5C5.91421 15.752 6.25 16.0877 6.25 16.502C6.25 16.9162 5.91421 17.252 5.5 17.252H5C4.58579 17.252 4.25 16.9162 4.25 16.502ZM7.75 16.502C7.75 16.0877 8.08579 15.752 8.5 15.752H15C15.4142 15.752 15.75 16.0877 15.75 16.502C15.75 16.9162 15.4142 17.252 15 17.252H8.5C8.08579 17.252 7.75 16.9162 7.75 16.502Z" fill="white"/>
</svg>
