<svg width="33" height="31" viewBox="0 0 33 31" fill="none" xmlns="http://www.w3.org/2000/svg">
<path d="M11.3943 3.92258C13.1127 -1.13005 20.3125 -1.13004 22.0309 3.92258C22.7817 6.12999 24.8609 7.63317 27.1925 7.63317H27.6205C32.8242 7.63317 34.9238 14.3405 30.6489 17.3077C28.7018 18.6591 27.8896 21.1484 28.6528 23.3923C30.3275 28.3162 24.763 32.5684 20.4904 29.6028L19.9175 29.2052C17.9903 27.8675 15.4349 27.8675 13.5077 29.2052L12.9347 29.6028C8.66221 32.5684 3.0977 28.3162 4.77236 23.3923C5.53555 21.1484 4.72337 18.6591 2.77626 17.3077C-1.49864 14.3405 0.601 7.63317 5.80472 7.63317H6.23269C8.56428 7.63317 10.6435 6.12999 11.3943 3.92258Z" fill="#323232"/>
</svg>
