<svg width="155" height="26" viewBox="0 0 155 26" fill="none" xmlns="http://www.w3.org/2000/svg">
<path d="M33.4074 10.3367C34.8785 8.33311 36.8217 7.4998 39.1694 7.57946C41.511 7.65298 43.4358 8.52918 44.6434 10.7289C44.8027 10.5328 44.9069 10.4164 45.005 10.2938C46.2739 8.73138 47.9106 7.86131 49.9089 7.6346C51.3065 7.4753 52.6673 7.62235 53.9607 8.1738C55.8303 8.97034 56.9643 10.4286 57.4363 12.3648C57.6693 13.3207 57.8041 14.3194 57.8164 15.2998C57.8654 18.5227 57.8348 21.7456 57.8348 24.9747C57.8348 25.4894 57.8287 25.4955 57.3199 25.5016H53.8565C53.3845 25.5016 53.3723 25.4894 53.3723 25.0237C53.3723 21.9478 53.3906 18.8719 53.3539 15.7961C53.3477 15.0731 53.2129 14.3378 53.0045 13.6393C52.5202 12.0033 51.0736 11.1884 49.3695 11.3783C47.4141 11.5989 46.1636 13.0695 45.8448 14.9689C45.7406 15.5755 45.6977 16.2005 45.6916 16.8193C45.6732 19.5214 45.6854 22.2235 45.6854 24.9318C45.6854 25.3117 45.4913 25.5016 45.1031 25.5016H41.7869C41.4109 25.5016 41.2209 25.3076 41.2168 24.9195C41.2168 21.8437 41.2474 18.7678 41.1923 15.6919C41.18 14.8892 40.99 14.0621 40.708 13.3084C40.1011 11.6847 38.5871 11.2497 37.1711 11.3906C35.044 11.5989 33.8916 13.2594 33.6158 15.1588C33.5483 15.6123 33.53 16.0718 33.53 16.5313C33.5238 19.3437 33.53 22.1623 33.53 24.9747C33.53 25.33 33.3501 25.5077 32.9905 25.5077C31.8136 25.5077 30.6305 25.5016 29.4536 25.5077C29.1165 25.5077 29 25.4097 29 25.0605C29.0061 19.5276 29.0061 14.0008 29 8.46791C29 8.13091 29.0981 8.00836 29.4475 8.00836C30.4896 8.02675 31.5316 8.02675 32.5798 8.00836C32.8925 8.00836 33.0212 8.11253 33.058 8.41889C33.1254 8.94583 33.2296 9.47277 33.3215 9.99359C33.3338 10.0732 33.3644 10.1529 33.4196 10.3367H33.4074Z" fill="#3060FE"/>
<path d="M20.7799 22.6769C20.6083 22.9281 20.4428 23.1855 20.2528 23.4244C19.0942 24.9011 17.574 25.6915 15.7106 25.8753C14.362 26.0101 13.0563 25.8753 11.812 25.3239C9.99754 24.5273 8.93095 23.0752 8.45895 21.2064C8.21989 20.2566 8.08503 19.2518 8.07277 18.2714C8.02373 15.024 8.05438 11.7765 8.05438 8.52299C8.05438 8.01443 8.06051 8.0083 8.58155 8.0083H12.0081C12.4985 8.0083 12.5108 8.02056 12.5108 8.50461C12.5108 11.5927 12.4985 14.6809 12.5292 17.769C12.5353 18.4185 12.6518 19.0863 12.8418 19.7052C13.4241 21.6046 14.7604 22.2541 16.6913 22.1193C19.0636 21.9539 20.5899 20.0422 20.6451 17.6771C20.7064 14.6441 20.7002 11.605 20.7248 8.56588C20.7248 8.19416 20.9107 8.0083 21.2826 8.0083C22.435 8.0083 23.5935 8.02056 24.7459 8.0083C25.0892 8.0083 25.1934 8.12472 25.1934 8.46172C25.1873 13.9946 25.1873 19.5214 25.1934 25.0543C25.1934 25.3974 25.077 25.5077 24.7398 25.5015C23.71 25.4832 22.6802 25.4893 21.6504 25.5015C21.3255 25.5015 21.1968 25.4035 21.1661 25.0604C21.0987 24.2761 20.9761 23.4918 20.878 22.7075C20.8474 22.7014 20.8167 22.6891 20.7861 22.683L20.7799 22.6769Z" fill="#3060FE"/>
<path d="M4.47479 12.7693V24.9318C4.47479 25.3076 4.29089 25.4955 3.9231 25.4955C2.77069 25.4955 1.61215 25.4894 0.459738 25.4955C0.122597 25.5078 0 25.3975 0 25.0544C0.00612984 16.8684 0.00612984 8.68855 0 0.508701C0 0.171703 0.0980775 0.043031 0.447479 0.0491582C1.63667 0.0675399 2.83199 0.0675399 4.02118 0.0491582C4.43801 0.043031 4.48092 0.239102 4.48092 0.569973C4.47479 4.63845 4.48092 8.70081 4.48092 12.7693H4.47479Z" fill="#3060FE"/>
<path d="M61.5625 16.758V8.53524C61.5625 8.02056 61.5748 8.01443 62.0835 8.0083C63.2482 8.0083 64.419 8.01443 65.5837 8.0083C65.9208 8.0083 66.0373 8.11859 66.0373 8.45559C66.0312 13.9885 66.0312 19.5152 66.0373 25.0481C66.0373 25.3851 65.9331 25.5077 65.5898 25.5015C64.4251 25.4832 63.2543 25.5015 62.0897 25.4954C61.5748 25.4954 61.5686 25.4893 61.5625 24.9807C61.5625 22.2419 61.5625 19.503 61.5625 16.758Z" fill="#3060FE"/>
<path d="M63.8113 0.0553453C64.8963 0.128872 65.779 0.46587 66.3001 1.40946C67.1644 2.97803 66.1775 4.90199 64.3998 5.16546C63.3945 5.31864 62.4689 5.17158 61.7211 4.40568C60.9548 3.62139 60.7893 2.68393 61.151 1.69132C61.4881 0.784486 62.2237 0.294307 63.1738 0.122745C63.4068 0.0798542 63.6397 0.0675997 63.8113 0.0430908V0.0553453Z" fill="#3060FE"/>
<path d="M96.4838 25.5383H93.5721V15.4774C93.5721 14.5277 93.5231 13.5841 93.2411 12.665C92.6159 10.6124 90.9853 9.54623 88.846 9.78519C86.9887 9.99351 85.775 11.0474 85.0394 12.714C84.5367 13.8414 84.4264 15.0362 84.4264 16.2494V25.5383H81.4534V25.1278C81.4534 21.5985 81.4534 18.0692 81.4289 14.5399C81.4228 13.4799 81.2205 12.4505 80.6381 11.5376C79.7309 10.1161 78.1065 9.49108 76.3718 9.84646C74.6861 10.1957 73.6379 11.268 72.9636 12.7814C72.4732 13.8904 72.3874 15.0669 72.3874 16.2555C72.3812 19.2027 72.3874 22.1499 72.3874 25.0971V25.5383H69.4512V7.67129H72.0993C72.1544 8.48009 72.2157 9.28275 72.277 10.1835C73.7482 8.12471 75.673 7.12597 78.131 7.23626C80.5768 7.34655 82.52 8.29014 83.6111 10.6614C83.8502 10.3244 84.0463 10.0058 84.2915 9.72392C86.063 7.66517 88.3311 6.95441 90.973 7.32817C92.1071 7.48748 93.1675 7.86124 94.0686 8.5965C95.2578 9.55848 95.9505 10.8329 96.2325 12.3096C96.398 13.1735 96.4838 14.0559 96.4899 14.9321C96.5206 18.3694 96.5022 21.8129 96.5022 25.2503C96.5022 25.3361 96.496 25.428 96.4838 25.5444V25.5383Z" fill="#3060FE"/>
<path d="M134.256 10.594V0H137.229V25.5383H134.556C134.458 24.5763 134.366 23.6266 134.268 22.6462C133.882 23.0874 133.551 23.5041 133.171 23.8778C131.614 25.4096 129.714 26.0346 127.556 25.9611C126.164 25.9182 124.834 25.6363 123.602 24.944C122.064 24.08 120.917 22.8607 120.151 21.2676C119.164 19.215 118.974 17.0521 119.262 14.8279C119.471 13.2287 120.028 11.752 121.003 10.4592C122.303 8.74356 124.031 7.71419 126.152 7.36493C127.556 7.1321 128.954 7.15048 130.333 7.56713C131.896 8.04506 133.159 8.92125 134.047 10.3121C134.09 10.3795 134.139 10.4408 134.25 10.5879L134.256 10.594ZM122.174 16.6048C122.174 16.6048 122.119 16.6171 122.094 16.6171C122.229 17.4197 122.315 18.2285 122.511 19.0128C123.149 21.5556 125.349 23.357 128.046 23.3876C130.835 23.4244 132.962 21.7578 133.765 19.2334C134.317 17.4994 134.311 15.7347 133.772 13.9946C133.404 12.8059 132.76 11.7888 131.773 11.0106C130.566 10.0609 129.18 9.69941 127.66 9.82195C125.748 9.97513 124.264 10.8575 123.247 12.475C122.456 13.7311 122.192 15.1343 122.174 16.5987L122.174 16.6048Z" fill="#3060FE"/>
<path d="M116.087 20.3608C115.854 21.286 115.444 22.0764 114.904 22.8116C113.764 24.3618 112.238 25.3606 110.368 25.7466C107.683 26.3042 105.152 25.8998 102.945 24.1842C101.511 23.069 100.585 21.5801 100.101 19.8277C99.4571 17.4748 99.4694 15.1158 100.26 12.812C100.977 10.7288 102.295 9.12342 104.318 8.14306C106.224 7.22397 108.211 7.07079 110.264 7.43843C113.642 8.05115 116.032 10.9064 116.443 14.0497C116.572 15.0301 116.535 16.0288 116.584 17.0153C116.59 17.2114 116.504 17.2788 116.326 17.2665H103.012C102.553 17.2665 102.547 17.2788 102.596 17.7383C102.737 19.1721 103.172 20.4772 104.116 21.5985C104.913 22.5421 105.936 23.0996 107.126 23.3447C108.542 23.6327 109.909 23.4795 111.177 22.7565C112.005 22.2847 112.612 21.5923 112.998 20.7223C113.121 20.4465 113.268 20.3424 113.574 20.3546C114.402 20.3791 115.223 20.3608 116.087 20.3608ZM108.143 14.9565H113.335C113.605 14.9565 113.709 14.8769 113.66 14.6073C113.586 14.2151 113.543 13.8107 113.445 13.4247C113.096 12.0767 112.287 11.0719 111.067 10.4224C109.749 9.71163 108.345 9.5707 106.88 9.87707C104.649 10.3427 102.859 12.3157 102.632 14.5767C102.602 14.8769 102.688 14.9627 102.988 14.9565C104.71 14.9443 106.427 14.9565 108.149 14.9565H108.143Z" fill="#3060FE"/>
<path d="M140.508 20.0238C141.489 20.0238 142.433 20.0238 143.383 20.0299C143.45 20.0299 143.56 20.1279 143.579 20.1953C144.155 22.5114 146.215 23.5714 148.507 23.4612C149.372 23.4183 150.193 23.2651 150.91 22.7504C152.351 21.7271 152.191 19.601 151.26 18.8106C150.659 18.2959 149.929 18.0508 149.175 17.8731C147.931 17.5729 146.674 17.3094 145.436 16.9969C144.48 16.7518 143.585 16.3413 142.807 15.7286C141.587 14.7727 141.121 13.4921 141.286 11.9787C141.507 9.9261 142.672 8.56585 144.541 7.81833C146.705 6.95439 148.912 6.9789 151.07 7.85509C152.958 8.61487 154.012 10.0977 154.386 12.0768C154.416 12.2299 154.435 12.3831 154.465 12.5731H151.609C151.425 12.1196 151.296 11.6601 151.063 11.268C150.499 10.3244 149.58 9.91384 148.532 9.78517C147.594 9.66875 146.668 9.71777 145.761 10.0548C144.492 10.5266 143.873 12.0155 144.517 13.1429C144.829 13.6882 145.332 14.013 145.884 14.2764C146.963 14.7789 148.133 14.9688 149.286 15.22C150.493 15.4835 151.689 15.7899 152.78 16.4087C154.263 17.2481 154.98 18.5226 154.999 20.2198C155.017 21.5617 154.698 22.7749 153.81 23.8104C153.037 24.7111 152.056 25.2932 150.929 25.6057C148.759 26.2 146.589 26.1449 144.498 25.2871C142.328 24.3986 140.998 22.7872 140.581 20.4588C140.557 20.3363 140.538 20.2198 140.508 20.036V20.0238Z" fill="#3060FE"/>
</svg>
