<svg width="34" height="32" viewBox="0 0 34 32" fill="none" xmlns="http://www.w3.org/2000/svg">
<path d="M11.687 4.63693C13.4055 -0.41569 20.6052 -0.415689 22.3236 4.63693C23.0744 6.84435 25.1536 8.34752 27.4852 8.34752H27.9132C33.1169 8.34752 35.2165 15.0549 30.9416 18.022C28.9945 19.3735 28.1824 21.8627 28.9455 24.1067C30.6202 29.0305 25.0557 33.2827 20.7832 30.3172L20.2102 29.9196C18.283 28.5819 15.7276 28.5819 13.8004 29.9196L13.2275 30.3172C8.95494 33.2827 3.39042 29.0305 5.06508 24.1067C5.82828 21.8627 5.0161 19.3735 3.06898 18.022C-1.20591 15.0549 0.893724 8.34752 6.09744 8.34752H6.52541C8.857 8.34752 10.9362 6.84435 11.687 4.63693Z" fill="#577C4B"/>
</svg>
