<svg width="20" height="20" viewBox="0 0 20 20" fill="none" xmlns="http://www.w3.org/2000/svg">
<path d="M6.66667 5.83268V4.99935C6.66667 3.1584 8.15905 1.66602 10 1.66602C11.8409 1.66602 13.3333 3.1584 13.3333 4.99935V5.83268M7.5 11.666H12.5M10 9.16602V14.166M5.16667 17.4993H14.8333C15.7668 17.4993 16.2335 17.4993 16.59 17.3177C16.9036 17.1579 17.1586 16.9029 17.3183 16.5893C17.5 16.2328 17.5 15.7661 17.5 14.8327V8.49935C17.5 7.56593 17.5 7.09922 17.3183 6.7427C17.1586 6.42909 16.9036 6.17413 16.59 6.01434C16.2335 5.83268 15.7668 5.83268 14.8333 5.83268H5.16667C4.23325 5.83268 3.76654 5.83268 3.41002 6.01434C3.09641 6.17413 2.84144 6.42909 2.68166 6.7427C2.5 7.09922 2.5 7.56593 2.5 8.49935V14.8327C2.5 15.7661 2.5 16.2328 2.68166 16.5893C2.84144 16.9029 3.09641 17.1579 3.41002 17.3177C3.76654 17.4993 4.23325 17.4993 5.16667 17.4993Z" stroke="#2E2E2E" stroke-width="1.25" stroke-linecap="round"/>
</svg>
