<svg width="199" height="170" viewBox="0 0 199 170" fill="none" xmlns="http://www.w3.org/2000/svg">
<circle cx="144.711" cy="115.026" r="54.1737" fill="#F3FF53"/>
<circle cx="60.1105" cy="60.1105" r="60.1105" fill="#4685F4"/>
<path d="M166.121 69.7579C165.86 60.5149 164.981 54.6219 162.02 49.5931C157.808 42.4408 150.224 38.4606 135.054 30.5001L120.954 23.1008C108.577 16.6056 102.389 13.3579 95.7314 13.3579C89.0741 13.3579 82.8856 16.6056 70.5086 23.1008L56.4086 30.5001C41.2394 38.4606 33.6547 42.4408 29.4431 49.5931C25.2314 56.7454 25.2314 65.6454 25.2314 83.4455V84.2703C25.2314 102.07 25.2314 110.971 29.4431 118.123C33.6547 125.275 41.2394 129.255 56.4086 137.216L70.5086 144.615C82.8856 151.11 89.0741 154.358 95.7314 154.358C102.389 154.358 108.577 151.11 120.954 144.615L135.054 137.216C150.224 129.255 157.808 125.275 162.02 118.123C164.981 113.094 165.86 107.201 166.121 97.9579" fill="#D7EAFF"/>
<path d="M166.121 69.7579C165.86 60.5149 164.981 54.6219 162.02 49.5931C157.808 42.4408 150.224 38.4606 135.054 30.5001L120.954 23.1008C108.577 16.6056 102.389 13.3579 95.7314 13.3579C89.0741 13.3579 82.8856 16.6056 70.5086 23.1008L56.4086 30.5001C41.2394 38.4606 33.6547 42.4408 29.4431 49.5931C25.2314 56.7454 25.2314 65.6454 25.2314 83.4455V84.2703C25.2314 102.07 25.2314 110.971 29.4431 118.123C33.6547 125.275 41.2394 129.255 56.4086 137.216L70.5086 144.615C82.8856 151.11 89.0741 154.358 95.7314 154.358C102.389 154.358 108.577 151.11 120.954 144.615L135.054 137.216C150.224 129.255 157.808 125.275 162.02 118.123C164.981 113.094 165.86 107.201 166.121 97.9579" stroke="#222A3F" stroke-width="10.575" stroke-linecap="round"/>
<path d="M158.53 52.4112L130.595 66.3876L158.53 52.4112ZM95.6774 83.858L32.8252 52.4112L95.6774 83.858ZM95.6774 83.858V150.245V83.858ZM95.6774 83.858C95.6774 83.858 114.831 74.2751 127.103 68.1346C128.467 67.4524 130.595 66.3876 130.595 66.3876M130.595 66.3876V90.8461V66.3876ZM130.595 66.3876L64.2513 31.4468L130.595 66.3876Z" fill="#D7EAFF"/>
<path d="M158.53 52.4112L130.595 66.3876M130.595 66.3876C130.595 66.3876 128.467 67.4523 127.103 68.1346C114.831 74.2751 95.6774 83.858 95.6774 83.858M130.595 66.3876V90.8461M130.595 66.3876L64.2513 31.4468M95.6774 83.858L32.8252 52.4112M95.6774 83.858V150.245" stroke="#222A3F" stroke-width="10.575" stroke-linecap="round"/>
</svg>
