<svg width="16" height="17" viewBox="0 0 16 17" fill="none" xmlns="http://www.w3.org/2000/svg">
<path d="M7.9987 14.2939C9.41319 14.2939 10.7697 13.732 11.7699 12.7318C12.7701 11.7317 13.332 10.3751 13.332 8.96061C13.332 7.54612 12.7701 6.18957 11.7699 5.18938C10.7697 4.18918 9.41319 3.62728 7.9987 3.62728C6.58421 3.62728 5.22766 4.18918 4.22746 5.18938C3.22727 6.18957 2.66536 7.54612 2.66536 8.96061C2.66536 10.3751 3.22727 11.7317 4.22746 12.7318C5.22766 13.732 6.58421 14.2939 7.9987 14.2939ZM7.9987 2.29395C8.87418 2.29395 9.74108 2.46638 10.5499 2.80142C11.3588 3.13645 12.0937 3.62751 12.7127 4.24657C13.3318 4.86562 13.8229 5.60055 14.1579 6.40939C14.4929 7.21823 14.6654 8.08513 14.6654 8.96061C14.6654 10.7287 13.963 12.4244 12.7127 13.6747C11.4625 14.9249 9.76681 15.6273 7.9987 15.6273C4.31203 15.6273 1.33203 12.6273 1.33203 8.96061C1.33203 7.1925 2.03441 5.49681 3.28465 4.24657C4.5349 2.99632 6.23059 2.29395 7.9987 2.29395ZM8.33203 5.62728V9.12728L11.332 10.9073L10.832 11.7273L7.33203 9.62728V5.62728H8.33203Z" fill="white"/>
</svg>
