<svg width="199" height="176" viewBox="0 0 199 176" fill="none" xmlns="http://www.w3.org/2000/svg">
<circle cx="144.711" cy="73.4686" r="54.1737" fill="#F3FF53"/>
<circle cx="66.0471" cy="115.026" r="60.1105" fill="#4685F4"/>
<path d="M94.6796 69.1624C94.6796 61.1145 91.6097 53.0666 85.469 46.9263C80.2188 41.6761 73.5739 38.6704 66.7269 37.9093M94.6796 69.1624C94.6796 77.2107 91.6097 85.2583 85.469 91.3988C73.1883 103.679 53.2774 103.679 40.9967 91.3988C34.8563 85.2583 31.7861 77.2107 31.7861 69.1624M94.6796 69.1624H31.7861H94.6796ZM31.7861 69.1624C31.7861 61.1145 34.8563 52.151 40.9967 46.0106L31.7861 69.1624Z" fill="#D7E9FF"/>
<path fill-rule="evenodd" clip-rule="evenodd" d="M85.469 46.9263C91.6097 53.0666 94.6796 61.1145 94.6796 69.1624H31.7861C31.7861 61.1145 34.8563 52.151 40.9967 46.0106C44.358 42.8361 54.2099 36.7714 66.7269 37.9093C73.5739 38.6704 80.2188 41.6761 85.469 46.9263Z" fill="#D7E9FF"/>
<path d="M94.6796 69.1624C94.6796 61.1145 91.6097 53.0666 85.469 46.9263C80.2187 41.6761 73.5739 38.6704 66.7269 37.9093C54.2099 36.7714 44.358 42.8361 40.9967 46.0106C34.8563 52.151 31.7861 61.1145 31.7861 69.1624M94.6796 69.1624C94.6796 77.2107 91.6097 85.2583 85.469 91.3988C73.1883 103.679 53.2774 103.679 40.9967 91.3988C34.8563 85.2583 31.7861 77.2107 31.7861 69.1624M94.6796 69.1624H31.7861" stroke="#1C274C" stroke-width="12.152" stroke-linecap="round"/>
<path d="M120.938 52.7334C129.125 60.9205 142.399 60.9205 150.586 52.7334C154.68 48.6398 156.727 43.2746 156.727 37.9093C156.727 32.544 154.68 27.1788 150.586 23.0852C142.399 14.898 129.125 14.898 120.938 23.0852C116.845 27.1788 114.798 32.544 114.798 37.9093C114.798 43.2746 116.845 48.6398 120.938 52.7334Z" stroke="#1C274C" stroke-width="12.152" stroke-linecap="round"/>
<path d="M139.272 149.057L163.9 124.43C174.1 114.229 174.1 97.6902 163.9 87.4888C153.698 77.2882 137.159 77.2882 126.959 87.4888L102.331 112.117C92.1305 122.317 92.1305 138.856 102.331 149.057C106.113 152.839 110.767 155.219 115.645 156.196" fill="#D7E9FF"/>
<path d="M139.272 149.057L163.9 124.43C174.1 114.229 174.1 97.6902 163.9 87.4888C153.698 77.2882 137.159 77.2882 126.959 87.4888L102.331 112.117C92.1305 122.317 92.1305 138.856 102.331 149.057C106.113 152.839 110.767 155.219 115.645 156.196" stroke="#1C274C" stroke-width="12.152" stroke-linecap="round"/>
<path d="M115.645 100.802C115.645 100.802 117.61 111.002 128.999 122.39C140.387 133.779 150.585 135.743 150.585 135.743" stroke="#1C274C" stroke-width="12.152"/>
</svg>
