<svg width="199" height="176" viewBox="0 0 199 176" fill="none" xmlns="http://www.w3.org/2000/svg">
<circle cx="67.5316" cy="116.511" r="58.6263" fill="#F3FF53"/>
<circle cx="147.679" cy="74.9526" r="51.2053" fill="#4685F4"/>
<path d="M95.979 73.7158C111.417 73.7158 123.932 61.201 123.932 45.7632C123.932 30.3254 111.417 17.8105 95.979 17.8105C80.5412 17.8105 68.0264 30.3254 68.0264 45.7632C68.0264 61.201 80.5412 73.7158 95.979 73.7158Z" fill="#D7E9FF" stroke="#1C274C" stroke-width="10.3895"/>
<path d="M137.907 75.8123C141.546 79.087 143.586 80.9235 147.225 84.1981L165.86 63.2336" stroke="#1C274C" stroke-width="10.3895" stroke-linecap="round" stroke-linejoin="round"/>
<path d="M151.866 129.621C151.884 128.474 151.884 127.308 151.884 126.127C151.884 108.759 126.854 94.6802 95.9785 94.6802C65.1029 94.6802 40.0732 108.759 40.0732 126.127C40.0732 143.495 40.0732 157.574 95.9785 157.574C111.569 157.574 122.812 156.479 130.919 154.523" fill="#D7E9FF"/>
<path d="M151.866 129.621C151.884 128.474 151.884 127.308 151.884 126.127C151.884 108.759 126.854 94.6802 95.9785 94.6802C65.1029 94.6802 40.0732 108.759 40.0732 126.127C40.0732 143.495 40.0732 157.574 95.9785 157.574C111.569 157.574 122.812 156.479 130.919 154.523" stroke="#1C274C" stroke-width="10.3895" stroke-linecap="round"/>
</svg>
